M48
INCH,TZ
T1C0.0197
T2C0.0453
T3C0.0551
T4C0.1260
%
G90
G05
T1
X43307Y-21260
X50984Y-21260
X59055Y-21260
T2
X35485Y-30453
X35485Y-32421
X37454Y-30453
X37454Y-32421
X43248Y-30656
X43248Y-32625
X45217Y-30656
X45217Y-32625
X58819Y-30315
X58819Y-32283
X60787Y-30315
X60787Y-32283
X64908Y-30571
X64908Y-32539
X66877Y-30571
X66877Y-32539
T3
X53954Y-30496
X53954Y-31496
X53954Y-32496
T4
X34843Y-21654
X34843Y-41339
X67520Y-21654
X67520Y-41339
M30
