G04 #@! TF.GenerationSoftware,KiCad,Pcbnew,9.0.6+1*
G04 #@! TF.CreationDate,2025-12-01T13:58:52+00:00*
G04 #@! TF.ProjectId,pors485,706f7273-3438-4352-9e6b-696361645f70,0.1*
G04 #@! TF.SameCoordinates,Original*
G04 #@! TF.FileFunction,Copper,L1,Top*
G04 #@! TF.FilePolarity,Positive*
%FSLAX46Y46*%
G04 Gerber Fmt 4.6, Leading zero omitted, Abs format (unit mm)*
G04 Created by KiCad (PCBNEW 9.0.6+1) date 2025-12-01 13:58:52*
%MOMM*%
%LPD*%
G01*
G04 APERTURE LIST*
G04 #@! TA.AperFunction,ComponentPad*
%ADD10C,5.500000*%
G04 #@! TD*
G04 #@! TA.AperFunction,SMDPad,CuDef*
%ADD11R,6.000000X3.500000*%
G04 #@! TD*
G04 #@! TA.AperFunction,ComponentPad*
%ADD12R,3.000000X1.500000*%
G04 #@! TD*
G04 #@! TA.AperFunction,ComponentPad*
%ADD13O,3.000000X1.500000*%
G04 #@! TD*
G04 #@! TA.AperFunction,ComponentPad*
%ADD14R,1.500000X3.000000*%
G04 #@! TD*
G04 #@! TA.AperFunction,ComponentPad*
%ADD15O,1.500000X3.000000*%
G04 #@! TD*
G04 #@! TA.AperFunction,ComponentPad*
%ADD16C,2.000000*%
G04 #@! TD*
G04 #@! TA.AperFunction,ViaPad*
%ADD17C,1.000000*%
G04 #@! TD*
G04 #@! TA.AperFunction,Conductor*
%ADD18C,1.000000*%
G04 #@! TD*
G04 #@! TA.AperFunction,Conductor*
%ADD19C,0.500000*%
G04 #@! TD*
G04 APERTURE END LIST*
D10*
X171500000Y-55000000D03*
D11*
X100000000Y-94000000D03*
X100000000Y-106000000D03*
X140000000Y-54000000D03*
X140000000Y-66000000D03*
G04 #@! TA.AperFunction,SMDPad,CuDef*
G36*
G01*
X122450000Y-83650000D02*
X122450000Y-82350000D01*
G75*
G02*
X122700000Y-82100000I250000J0D01*
G01*
X123350000Y-82100000D01*
G75*
G02*
X123600000Y-82350000I0J-250000D01*
G01*
X123600000Y-83650000D01*
G75*
G02*
X123350000Y-83900000I-250000J0D01*
G01*
X122700000Y-83900000D01*
G75*
G02*
X122450000Y-83650000I0J250000D01*
G01*
G37*
G04 #@! TD.AperFunction*
G04 #@! TA.AperFunction,SMDPad,CuDef*
G36*
G01*
X125400000Y-83650000D02*
X125400000Y-82350000D01*
G75*
G02*
X125650000Y-82100000I250000J0D01*
G01*
X126300000Y-82100000D01*
G75*
G02*
X126550000Y-82350000I0J-250000D01*
G01*
X126550000Y-83650000D01*
G75*
G02*
X126300000Y-83900000I-250000J0D01*
G01*
X125650000Y-83900000D01*
G75*
G02*
X125400000Y-83650000I0J250000D01*
G01*
G37*
G04 #@! TD.AperFunction*
X100000000Y-54000000D03*
X100000000Y-66000000D03*
G04 #@! TA.AperFunction,SMDPad,CuDef*
G36*
G01*
X142975000Y-84950000D02*
X142025000Y-84950000D01*
G75*
G02*
X141775000Y-84700000I0J250000D01*
G01*
X141775000Y-84200000D01*
G75*
G02*
X142025000Y-83950000I250000J0D01*
G01*
X142975000Y-83950000D01*
G75*
G02*
X143225000Y-84200000I0J-250000D01*
G01*
X143225000Y-84700000D01*
G75*
G02*
X142975000Y-84950000I-250000J0D01*
G01*
G37*
G04 #@! TD.AperFunction*
G04 #@! TA.AperFunction,SMDPad,CuDef*
G36*
G01*
X142975000Y-83050000D02*
X142025000Y-83050000D01*
G75*
G02*
X141775000Y-82800000I0J250000D01*
G01*
X141775000Y-82300000D01*
G75*
G02*
X142025000Y-82050000I250000J0D01*
G01*
X142975000Y-82050000D01*
G75*
G02*
X143225000Y-82300000I0J-250000D01*
G01*
X143225000Y-82800000D01*
G75*
G02*
X142975000Y-83050000I-250000J0D01*
G01*
G37*
G04 #@! TD.AperFunction*
D10*
X171500000Y-105000000D03*
D11*
X120000000Y-54000000D03*
X120000000Y-66000000D03*
G04 #@! TA.AperFunction,SMDPad,CuDef*
G36*
G01*
X101875000Y-77975000D02*
X103125000Y-77975000D01*
G75*
G02*
X103375000Y-78225000I0J-250000D01*
G01*
X103375000Y-78850000D01*
G75*
G02*
X103125000Y-79100000I-250000J0D01*
G01*
X101875000Y-79100000D01*
G75*
G02*
X101625000Y-78850000I0J250000D01*
G01*
X101625000Y-78225000D01*
G75*
G02*
X101875000Y-77975000I250000J0D01*
G01*
G37*
G04 #@! TD.AperFunction*
G04 #@! TA.AperFunction,SMDPad,CuDef*
G36*
G01*
X101875000Y-80900000D02*
X103125000Y-80900000D01*
G75*
G02*
X103375000Y-81150000I0J-250000D01*
G01*
X103375000Y-81775000D01*
G75*
G02*
X103125000Y-82025000I-250000J0D01*
G01*
X101875000Y-82025000D01*
G75*
G02*
X101625000Y-81775000I0J250000D01*
G01*
X101625000Y-81150000D01*
G75*
G02*
X101875000Y-80900000I250000J0D01*
G01*
G37*
G04 #@! TD.AperFunction*
G04 #@! TA.AperFunction,SMDPad,CuDef*
G36*
G01*
X101550000Y-84475000D02*
X101550000Y-83525000D01*
G75*
G02*
X101800000Y-83275000I250000J0D01*
G01*
X102300000Y-83275000D01*
G75*
G02*
X102550000Y-83525000I0J-250000D01*
G01*
X102550000Y-84475000D01*
G75*
G02*
X102300000Y-84725000I-250000J0D01*
G01*
X101800000Y-84725000D01*
G75*
G02*
X101550000Y-84475000I0J250000D01*
G01*
G37*
G04 #@! TD.AperFunction*
G04 #@! TA.AperFunction,SMDPad,CuDef*
G36*
G01*
X103450000Y-84475000D02*
X103450000Y-83525000D01*
G75*
G02*
X103700000Y-83275000I250000J0D01*
G01*
X104200000Y-83275000D01*
G75*
G02*
X104450000Y-83525000I0J-250000D01*
G01*
X104450000Y-84475000D01*
G75*
G02*
X104200000Y-84725000I-250000J0D01*
G01*
X103700000Y-84725000D01*
G75*
G02*
X103450000Y-84475000I0J250000D01*
G01*
G37*
G04 #@! TD.AperFunction*
G04 #@! TA.AperFunction,ComponentPad*
G36*
G01*
X93882501Y-76600000D02*
X96382499Y-76600000D01*
G75*
G02*
X96632500Y-76850001I0J-250001D01*
G01*
X96632500Y-77849999D01*
G75*
G02*
X96382499Y-78100000I-250001J0D01*
G01*
X93882501Y-78100000D01*
G75*
G02*
X93632500Y-77849999I0J250001D01*
G01*
X93632500Y-76850001D01*
G75*
G02*
X93882501Y-76600000I250001J0D01*
G01*
G37*
G04 #@! TD.AperFunction*
D12*
X90132500Y-77350000D03*
D13*
X95132500Y-82350000D03*
X90132500Y-82350000D03*
G04 #@! TA.AperFunction,SMDPad,CuDef*
G36*
G01*
X140350000Y-76700000D02*
X141650000Y-76700000D01*
G75*
G02*
X141900000Y-76950000I0J-250000D01*
G01*
X141900000Y-77600000D01*
G75*
G02*
X141650000Y-77850000I-250000J0D01*
G01*
X140350000Y-77850000D01*
G75*
G02*
X140100000Y-77600000I0J250000D01*
G01*
X140100000Y-76950000D01*
G75*
G02*
X140350000Y-76700000I250000J0D01*
G01*
G37*
G04 #@! TD.AperFunction*
G04 #@! TA.AperFunction,SMDPad,CuDef*
G36*
G01*
X140350000Y-79650000D02*
X141650000Y-79650000D01*
G75*
G02*
X141900000Y-79900000I0J-250000D01*
G01*
X141900000Y-80550000D01*
G75*
G02*
X141650000Y-80800000I-250000J0D01*
G01*
X140350000Y-80800000D01*
G75*
G02*
X140100000Y-80550000I0J250000D01*
G01*
X140100000Y-79900000D01*
G75*
G02*
X140350000Y-79650000I250000J0D01*
G01*
G37*
G04 #@! TD.AperFunction*
D11*
X120000000Y-94000000D03*
X120000000Y-106000000D03*
D10*
X88500000Y-105000000D03*
G04 #@! TA.AperFunction,SMDPad,CuDef*
G36*
G01*
X122000000Y-78500000D02*
X122000000Y-76500000D01*
G75*
G02*
X122250000Y-76250000I250000J0D01*
G01*
X123650000Y-76250000D01*
G75*
G02*
X123900000Y-76500000I0J-250000D01*
G01*
X123900000Y-78500000D01*
G75*
G02*
X123650000Y-78750000I-250000J0D01*
G01*
X122250000Y-78750000D01*
G75*
G02*
X122000000Y-78500000I0J250000D01*
G01*
G37*
G04 #@! TD.AperFunction*
G04 #@! TA.AperFunction,SMDPad,CuDef*
G36*
G01*
X126100000Y-78500000D02*
X126100000Y-76500000D01*
G75*
G02*
X126350000Y-76250000I250000J0D01*
G01*
X127750000Y-76250000D01*
G75*
G02*
X128000000Y-76500000I0J-250000D01*
G01*
X128000000Y-78500000D01*
G75*
G02*
X127750000Y-78750000I-250000J0D01*
G01*
X126350000Y-78750000D01*
G75*
G02*
X126100000Y-78500000I0J250000D01*
G01*
G37*
G04 #@! TD.AperFunction*
X88500000Y-55000000D03*
G04 #@! TA.AperFunction,ComponentPad*
G36*
G01*
X155150000Y-80750001D02*
X155150000Y-83249999D01*
G75*
G02*
X154899999Y-83500000I-250001J0D01*
G01*
X153900001Y-83500000D01*
G75*
G02*
X153650000Y-83249999I0J250001D01*
G01*
X153650000Y-80750001D01*
G75*
G02*
X153900001Y-80500000I250001J0D01*
G01*
X154899999Y-80500000D01*
G75*
G02*
X155150000Y-80750001I0J-250001D01*
G01*
G37*
G04 #@! TD.AperFunction*
D14*
X154400000Y-77000000D03*
D15*
X149400000Y-82000000D03*
X149400000Y-77000000D03*
G04 #@! TA.AperFunction,ComponentPad*
G36*
G01*
X109100000Y-79117499D02*
X109100000Y-76617501D01*
G75*
G02*
X109350001Y-76367500I250001J0D01*
G01*
X110349999Y-76367500D01*
G75*
G02*
X110600000Y-76617501I0J-250001D01*
G01*
X110600000Y-79117499D01*
G75*
G02*
X110349999Y-79367500I-250001J0D01*
G01*
X109350001Y-79367500D01*
G75*
G02*
X109100000Y-79117499I0J250001D01*
G01*
G37*
G04 #@! TD.AperFunction*
D14*
X109850000Y-82867500D03*
D15*
X114850000Y-77867500D03*
X114850000Y-82867500D03*
D11*
X140000000Y-94000000D03*
X140000000Y-106000000D03*
G04 #@! TA.AperFunction,ComponentPad*
G36*
G01*
X166117499Y-83400000D02*
X163617501Y-83400000D01*
G75*
G02*
X163367500Y-83149999I0J250001D01*
G01*
X163367500Y-82150001D01*
G75*
G02*
X163617501Y-81900000I250001J0D01*
G01*
X166117499Y-81900000D01*
G75*
G02*
X166367500Y-82150001I0J-250001D01*
G01*
X166367500Y-83149999D01*
G75*
G02*
X166117499Y-83400000I-250001J0D01*
G01*
G37*
G04 #@! TD.AperFunction*
D12*
X169867500Y-82650000D03*
D13*
X164867500Y-77650000D03*
X169867500Y-77650000D03*
G04 #@! TA.AperFunction,SMDPad,CuDef*
G36*
G01*
X101550000Y-76475000D02*
X101550000Y-75525000D01*
G75*
G02*
X101800000Y-75275000I250000J0D01*
G01*
X102300000Y-75275000D01*
G75*
G02*
X102550000Y-75525000I0J-250000D01*
G01*
X102550000Y-76475000D01*
G75*
G02*
X102300000Y-76725000I-250000J0D01*
G01*
X101800000Y-76725000D01*
G75*
G02*
X101550000Y-76475000I0J250000D01*
G01*
G37*
G04 #@! TD.AperFunction*
G04 #@! TA.AperFunction,SMDPad,CuDef*
G36*
G01*
X103450000Y-76475000D02*
X103450000Y-75525000D01*
G75*
G02*
X103700000Y-75275000I250000J0D01*
G01*
X104200000Y-75275000D01*
G75*
G02*
X104450000Y-75525000I0J-250000D01*
G01*
X104450000Y-76475000D01*
G75*
G02*
X104200000Y-76725000I-250000J0D01*
G01*
X103700000Y-76725000D01*
G75*
G02*
X103450000Y-76475000I0J250000D01*
G01*
G37*
G04 #@! TD.AperFunction*
G04 #@! TA.AperFunction,ComponentPad*
G36*
G01*
X136042500Y-78210000D02*
X136042500Y-76710000D01*
G75*
G02*
X136292500Y-76460000I250000J0D01*
G01*
X137792500Y-76460000D01*
G75*
G02*
X138042500Y-76710000I0J-250000D01*
G01*
X138042500Y-78210000D01*
G75*
G02*
X137792500Y-78460000I-250000J0D01*
G01*
X136292500Y-78460000D01*
G75*
G02*
X136042500Y-78210000I0J250000D01*
G01*
G37*
G04 #@! TD.AperFunction*
D16*
X137042500Y-80000000D03*
X137042500Y-82540000D03*
D11*
X160000000Y-54000000D03*
X160000000Y-66000000D03*
X160000000Y-94000000D03*
X160000000Y-106000000D03*
D17*
X150000000Y-54000000D03*
X110000000Y-54000000D03*
X129500000Y-54000000D03*
D18*
X164867500Y-77650000D02*
X164867500Y-70867500D01*
X103950000Y-69950000D02*
X100000000Y-66000000D01*
X103950000Y-76000000D02*
X103950000Y-69950000D01*
X164867500Y-77650000D02*
X169867500Y-77650000D01*
X164867500Y-70867500D02*
X160000000Y-66000000D01*
X100000000Y-66000000D02*
X160000000Y-66000000D01*
D19*
X101312500Y-77350000D02*
X102500000Y-78537500D01*
X90132500Y-77350000D02*
X95132500Y-77350000D01*
X102050000Y-76000000D02*
X102050000Y-78087500D01*
X102050000Y-78087500D02*
X102500000Y-78537500D01*
X95132500Y-77350000D02*
X101312500Y-77350000D01*
D18*
X103950000Y-84000000D02*
X103950000Y-90050000D01*
X100000000Y-94000000D02*
X160000000Y-94000000D01*
X103950000Y-90050000D02*
X100000000Y-94000000D01*
X164867500Y-82650000D02*
X169867500Y-82650000D01*
X164867500Y-82650000D02*
X164867500Y-88132500D01*
X164867500Y-89132500D02*
X164867500Y-88132500D01*
X160000000Y-94000000D02*
X164867500Y-89132500D01*
D19*
X102050000Y-84000000D02*
X102050000Y-81912500D01*
X102050000Y-81912500D02*
X102500000Y-81462500D01*
X90132500Y-82350000D02*
X95132500Y-82350000D01*
X101612500Y-82350000D02*
X102500000Y-81462500D01*
X95132500Y-82350000D02*
X101612500Y-82350000D01*
D18*
X100000000Y-54000000D02*
X110000000Y-54000000D01*
X110000000Y-54000000D02*
X129500000Y-54000000D01*
X129500000Y-54000000D02*
X150000000Y-54000000D01*
X150000000Y-54000000D02*
X160000000Y-54000000D01*
X137042500Y-77460000D02*
X140815000Y-77460000D01*
X127090000Y-77460000D02*
X127050000Y-77500000D01*
X140815000Y-77460000D02*
X141000000Y-77275000D01*
X137042500Y-77460000D02*
X127090000Y-77460000D01*
X142490000Y-82540000D02*
X142500000Y-82550000D01*
X137042500Y-82540000D02*
X142490000Y-82540000D01*
X142500000Y-82550000D02*
X148850000Y-82550000D01*
X148850000Y-82550000D02*
X149400000Y-82000000D01*
X149400000Y-82000000D02*
X149400000Y-77000000D01*
G04 #@! TA.AperFunction,Conductor*
G36*
X124443039Y-75019685D02*
G01*
X124488794Y-75072489D01*
X124500000Y-75124000D01*
X124500000Y-84876000D01*
X124480315Y-84943039D01*
X124427511Y-84988794D01*
X124376000Y-85000000D01*
X113124000Y-85000000D01*
X113056961Y-84980315D01*
X113011206Y-84927511D01*
X113000000Y-84876000D01*
X113000000Y-75124000D01*
X113019685Y-75056961D01*
X113072489Y-75011206D01*
X113124000Y-75000000D01*
X124376000Y-75000000D01*
X124443039Y-75019685D01*
G37*
G04 #@! TD.AperFunction*
G04 #@! TA.AperFunction,Conductor*
G36*
X174442539Y-50520185D02*
G01*
X174488294Y-50572989D01*
X174499500Y-50624500D01*
X174499500Y-109375500D01*
X174479815Y-109442539D01*
X174427011Y-109488294D01*
X174375500Y-109499500D01*
X85624500Y-109499500D01*
X85557461Y-109479815D01*
X85511706Y-109427011D01*
X85500500Y-109375500D01*
X85500500Y-82251577D01*
X88132000Y-82251577D01*
X88132000Y-82448422D01*
X88162790Y-82642826D01*
X88223617Y-82830029D01*
X88276910Y-82934622D01*
X88312976Y-83005405D01*
X88428672Y-83164646D01*
X88567854Y-83303828D01*
X88727095Y-83419524D01*
X88782753Y-83447883D01*
X88902470Y-83508882D01*
X88902472Y-83508882D01*
X88902475Y-83508884D01*
X89001754Y-83541142D01*
X89089673Y-83569709D01*
X89284078Y-83600500D01*
X89284083Y-83600500D01*
X90980922Y-83600500D01*
X91175326Y-83569709D01*
X91190908Y-83564646D01*
X91362525Y-83508884D01*
X91537905Y-83419524D01*
X91697146Y-83303828D01*
X91836328Y-83164646D01*
X91845797Y-83151612D01*
X91901128Y-83108948D01*
X91946114Y-83100500D01*
X93318886Y-83100500D01*
X93385925Y-83120185D01*
X93419202Y-83151612D01*
X93428672Y-83164646D01*
X93567854Y-83303828D01*
X93727095Y-83419524D01*
X93782753Y-83447883D01*
X93902470Y-83508882D01*
X93902472Y-83508882D01*
X93902475Y-83508884D01*
X94001754Y-83541142D01*
X94089673Y-83569709D01*
X94284078Y-83600500D01*
X94284083Y-83600500D01*
X95980922Y-83600500D01*
X96175326Y-83569709D01*
X96190908Y-83564646D01*
X96362525Y-83508884D01*
X96537905Y-83419524D01*
X96697146Y-83303828D01*
X96836328Y-83164646D01*
X96845797Y-83151612D01*
X96901128Y-83108948D01*
X96946114Y-83100500D01*
X100978315Y-83100500D01*
X101045354Y-83120185D01*
X101091109Y-83172989D01*
X101101053Y-83242147D01*
X101096022Y-83263497D01*
X101060001Y-83372203D01*
X101060001Y-83372204D01*
X101060000Y-83372204D01*
X101049500Y-83474983D01*
X101049500Y-84525001D01*
X101049501Y-84525019D01*
X101060000Y-84627796D01*
X101060001Y-84627799D01*
X101115185Y-84794331D01*
X101115186Y-84794334D01*
X101207288Y-84943656D01*
X101331344Y-85067712D01*
X101480666Y-85159814D01*
X101647203Y-85214999D01*
X101749991Y-85225500D01*
X102350008Y-85225499D01*
X102350016Y-85225498D01*
X102350019Y-85225498D01*
X102406302Y-85219748D01*
X102452797Y-85214999D01*
X102619334Y-85159814D01*
X102760407Y-85072799D01*
X102827795Y-85054361D01*
X102894459Y-85075283D01*
X102939229Y-85128925D01*
X102949500Y-85178340D01*
X102949500Y-89584217D01*
X102929815Y-89651256D01*
X102913181Y-89671898D01*
X100871897Y-91713181D01*
X100810574Y-91746666D01*
X100784216Y-91749500D01*
X96952129Y-91749500D01*
X96952123Y-91749501D01*
X96892516Y-91755908D01*
X96757671Y-91806202D01*
X96757664Y-91806206D01*
X96642455Y-91892452D01*
X96642452Y-91892455D01*
X96556206Y-92007664D01*
X96556202Y-92007671D01*
X96505908Y-92142517D01*
X96499501Y-92202116D01*
X96499501Y-92202123D01*
X96499500Y-92202135D01*
X96499500Y-95797870D01*
X96499501Y-95797876D01*
X96505908Y-95857483D01*
X96556202Y-95992328D01*
X96556206Y-95992335D01*
X96642452Y-96107544D01*
X96642455Y-96107547D01*
X96757664Y-96193793D01*
X96757671Y-96193797D01*
X96892517Y-96244091D01*
X96892516Y-96244091D01*
X96899444Y-96244835D01*
X96952127Y-96250500D01*
X103047872Y-96250499D01*
X103107483Y-96244091D01*
X103242331Y-96193796D01*
X103357546Y-96107546D01*
X103443796Y-95992331D01*
X103494091Y-95857483D01*
X103500500Y-95797873D01*
X103500500Y-95124500D01*
X103520185Y-95057461D01*
X103572989Y-95011706D01*
X103624500Y-95000500D01*
X116375501Y-95000500D01*
X116442540Y-95020185D01*
X116488295Y-95072989D01*
X116499501Y-95124500D01*
X116499501Y-95797876D01*
X116505908Y-95857483D01*
X116556202Y-95992328D01*
X116556206Y-95992335D01*
X116642452Y-96107544D01*
X116642455Y-96107547D01*
X116757664Y-96193793D01*
X116757671Y-96193797D01*
X116892517Y-96244091D01*
X116892516Y-96244091D01*
X116899444Y-96244835D01*
X116952127Y-96250500D01*
X123047872Y-96250499D01*
X123107483Y-96244091D01*
X123242331Y-96193796D01*
X123357546Y-96107546D01*
X123443796Y-95992331D01*
X123494091Y-95857483D01*
X123500500Y-95797873D01*
X123500500Y-95124500D01*
X123520185Y-95057461D01*
X123572989Y-95011706D01*
X123624500Y-95000500D01*
X136375501Y-95000500D01*
X136442540Y-95020185D01*
X136488295Y-95072989D01*
X136499501Y-95124500D01*
X136499501Y-95797876D01*
X136505908Y-95857483D01*
X136556202Y-95992328D01*
X136556206Y-95992335D01*
X136642452Y-96107544D01*
X136642455Y-96107547D01*
X136757664Y-96193793D01*
X136757671Y-96193797D01*
X136892517Y-96244091D01*
X136892516Y-96244091D01*
X136899444Y-96244835D01*
X136952127Y-96250500D01*
X143047872Y-96250499D01*
X143107483Y-96244091D01*
X143242331Y-96193796D01*
X143357546Y-96107546D01*
X143443796Y-95992331D01*
X143494091Y-95857483D01*
X143500500Y-95797873D01*
X143500500Y-95124500D01*
X143520185Y-95057461D01*
X143572989Y-95011706D01*
X143624500Y-95000500D01*
X156375501Y-95000500D01*
X156442540Y-95020185D01*
X156488295Y-95072989D01*
X156499501Y-95124500D01*
X156499501Y-95797876D01*
X156505908Y-95857483D01*
X156556202Y-95992328D01*
X156556206Y-95992335D01*
X156642452Y-96107544D01*
X156642455Y-96107547D01*
X156757664Y-96193793D01*
X156757671Y-96193797D01*
X156892517Y-96244091D01*
X156892516Y-96244091D01*
X156899444Y-96244835D01*
X156952127Y-96250500D01*
X163047872Y-96250499D01*
X163107483Y-96244091D01*
X163242331Y-96193796D01*
X163357546Y-96107546D01*
X163443796Y-95992331D01*
X163494091Y-95857483D01*
X163500500Y-95797873D01*
X163500499Y-92202128D01*
X163494091Y-92142517D01*
X163461716Y-92055715D01*
X163456732Y-91986024D01*
X163490215Y-91924703D01*
X165644640Y-89770281D01*
X165754132Y-89606414D01*
X165829552Y-89424335D01*
X165868001Y-89231040D01*
X165868001Y-89033959D01*
X165868001Y-89028849D01*
X165868000Y-89028823D01*
X165868000Y-84024500D01*
X165887685Y-83957461D01*
X165940489Y-83911706D01*
X165992000Y-83900500D01*
X166167503Y-83900500D01*
X166167508Y-83900500D01*
X166270297Y-83889999D01*
X166436834Y-83834814D01*
X166586155Y-83742711D01*
X166642047Y-83686819D01*
X166703370Y-83653334D01*
X166729728Y-83650500D01*
X167867749Y-83650500D01*
X167934788Y-83670185D01*
X167967015Y-83700188D01*
X167998848Y-83742710D01*
X168009954Y-83757546D01*
X168009957Y-83757548D01*
X168125164Y-83843793D01*
X168125171Y-83843797D01*
X168260017Y-83894091D01*
X168260016Y-83894091D01*
X168266944Y-83894835D01*
X168319627Y-83900500D01*
X171415372Y-83900499D01*
X171474983Y-83894091D01*
X171609831Y-83843796D01*
X171725046Y-83757546D01*
X171811296Y-83642331D01*
X171861591Y-83507483D01*
X171868000Y-83447873D01*
X171867999Y-81852128D01*
X171861591Y-81792517D01*
X171847063Y-81753566D01*
X171811297Y-81657671D01*
X171811293Y-81657664D01*
X171725047Y-81542455D01*
X171725044Y-81542452D01*
X171609835Y-81456206D01*
X171609828Y-81456202D01*
X171474982Y-81405908D01*
X171474983Y-81405908D01*
X171415383Y-81399501D01*
X171415381Y-81399500D01*
X171415373Y-81399500D01*
X171415364Y-81399500D01*
X168319629Y-81399500D01*
X168319623Y-81399501D01*
X168260016Y-81405908D01*
X168125171Y-81456202D01*
X168125164Y-81456206D01*
X168009957Y-81542451D01*
X168009951Y-81542457D01*
X167967015Y-81599812D01*
X167911081Y-81641682D01*
X167867749Y-81649500D01*
X166729728Y-81649500D01*
X166662689Y-81629815D01*
X166642047Y-81613181D01*
X166586155Y-81557289D01*
X166586151Y-81557286D01*
X166436837Y-81465187D01*
X166436835Y-81465186D01*
X166353565Y-81437593D01*
X166270297Y-81410001D01*
X166270295Y-81410000D01*
X166167515Y-81399500D01*
X166167508Y-81399500D01*
X163567492Y-81399500D01*
X163567484Y-81399500D01*
X163464704Y-81410000D01*
X163464703Y-81410001D01*
X163298164Y-81465186D01*
X163298162Y-81465187D01*
X163148848Y-81557286D01*
X163148844Y-81557289D01*
X163024789Y-81681344D01*
X163024786Y-81681348D01*
X162932687Y-81830662D01*
X162932686Y-81830664D01*
X162877501Y-81997203D01*
X162877500Y-81997204D01*
X162867000Y-82099984D01*
X162867000Y-83200015D01*
X162877500Y-83302795D01*
X162877501Y-83302796D01*
X162932686Y-83469335D01*
X162932687Y-83469337D01*
X163024786Y-83618651D01*
X163024789Y-83618655D01*
X163148844Y-83742710D01*
X163148848Y-83742713D01*
X163298162Y-83834812D01*
X163298164Y-83834813D01*
X163298166Y-83834814D01*
X163464703Y-83889999D01*
X163567492Y-83900500D01*
X163743000Y-83900500D01*
X163810039Y-83920185D01*
X163855794Y-83972989D01*
X163867000Y-84024500D01*
X163867000Y-88666717D01*
X163847315Y-88733756D01*
X163830681Y-88754398D01*
X160871897Y-91713181D01*
X160810574Y-91746666D01*
X160784216Y-91749500D01*
X156952129Y-91749500D01*
X156952123Y-91749501D01*
X156892516Y-91755908D01*
X156757671Y-91806202D01*
X156757664Y-91806206D01*
X156642455Y-91892452D01*
X156642452Y-91892455D01*
X156556206Y-92007664D01*
X156556202Y-92007671D01*
X156505908Y-92142517D01*
X156499501Y-92202116D01*
X156499501Y-92202123D01*
X156499500Y-92202135D01*
X156499500Y-92875500D01*
X156479815Y-92942539D01*
X156427011Y-92988294D01*
X156375500Y-92999500D01*
X143624499Y-92999500D01*
X143557460Y-92979815D01*
X143511705Y-92927011D01*
X143500499Y-92875500D01*
X143500499Y-92202129D01*
X143500498Y-92202123D01*
X143500497Y-92202116D01*
X143494091Y-92142517D01*
X143443796Y-92007669D01*
X143443795Y-92007668D01*
X143443793Y-92007664D01*
X143357547Y-91892455D01*
X143357544Y-91892452D01*
X143242335Y-91806206D01*
X143242328Y-91806202D01*
X143107482Y-91755908D01*
X143107483Y-91755908D01*
X143047883Y-91749501D01*
X143047881Y-91749500D01*
X143047873Y-91749500D01*
X143047864Y-91749500D01*
X136952129Y-91749500D01*
X136952123Y-91749501D01*
X136892516Y-91755908D01*
X136757671Y-91806202D01*
X136757664Y-91806206D01*
X136642455Y-91892452D01*
X136642452Y-91892455D01*
X136556206Y-92007664D01*
X136556202Y-92007671D01*
X136505908Y-92142517D01*
X136499501Y-92202116D01*
X136499501Y-92202123D01*
X136499500Y-92202135D01*
X136499500Y-92875500D01*
X136479815Y-92942539D01*
X136427011Y-92988294D01*
X136375500Y-92999500D01*
X123624499Y-92999500D01*
X123557460Y-92979815D01*
X123511705Y-92927011D01*
X123500499Y-92875500D01*
X123500499Y-92202129D01*
X123500498Y-92202123D01*
X123500497Y-92202116D01*
X123494091Y-92142517D01*
X123443796Y-92007669D01*
X123443795Y-92007668D01*
X123443793Y-92007664D01*
X123357547Y-91892455D01*
X123357544Y-91892452D01*
X123242335Y-91806206D01*
X123242328Y-91806202D01*
X123107482Y-91755908D01*
X123107483Y-91755908D01*
X123047883Y-91749501D01*
X123047881Y-91749500D01*
X123047873Y-91749500D01*
X123047864Y-91749500D01*
X116952129Y-91749500D01*
X116952123Y-91749501D01*
X116892516Y-91755908D01*
X116757671Y-91806202D01*
X116757664Y-91806206D01*
X116642455Y-91892452D01*
X116642452Y-91892455D01*
X116556206Y-92007664D01*
X116556202Y-92007671D01*
X116505908Y-92142517D01*
X116499501Y-92202116D01*
X116499501Y-92202123D01*
X116499500Y-92202135D01*
X116499500Y-92875500D01*
X116479815Y-92942539D01*
X116427011Y-92988294D01*
X116375500Y-92999500D01*
X103624499Y-92999500D01*
X103557460Y-92979815D01*
X103511705Y-92927011D01*
X103500499Y-92875500D01*
X103500499Y-92202129D01*
X103500498Y-92202123D01*
X103500497Y-92202116D01*
X103494091Y-92142517D01*
X103461716Y-92055715D01*
X103456732Y-91986024D01*
X103490215Y-91924703D01*
X104727140Y-90687781D01*
X104836632Y-90523914D01*
X104912052Y-90341835D01*
X104950501Y-90148540D01*
X104950501Y-89951459D01*
X104950501Y-89946349D01*
X104950500Y-89946323D01*
X104950500Y-83891470D01*
X104950499Y-83891456D01*
X104950499Y-83474998D01*
X104950498Y-83474981D01*
X104939999Y-83372203D01*
X104939998Y-83372200D01*
X104924832Y-83326433D01*
X104884814Y-83205666D01*
X104792712Y-83056344D01*
X104668656Y-82932288D01*
X104519334Y-82840186D01*
X104352797Y-82785001D01*
X104352795Y-82785000D01*
X104250010Y-82774500D01*
X103649998Y-82774500D01*
X103649980Y-82774501D01*
X103547203Y-82785000D01*
X103547200Y-82785001D01*
X103380668Y-82840185D01*
X103380663Y-82840187D01*
X103231342Y-82932289D01*
X103107285Y-83056346D01*
X103105537Y-83059182D01*
X103103829Y-83060717D01*
X103102807Y-83062011D01*
X103102585Y-83061836D01*
X103053589Y-83105905D01*
X102984626Y-83117126D01*
X102920544Y-83089282D01*
X102909131Y-83078456D01*
X102900849Y-83069536D01*
X102892712Y-83056344D01*
X102835189Y-82998821D01*
X102833631Y-82997143D01*
X102819018Y-82967851D01*
X102803334Y-82939128D01*
X102802961Y-82935665D01*
X102802441Y-82934622D01*
X102802646Y-82932734D01*
X102800500Y-82912770D01*
X102800500Y-82649499D01*
X102820185Y-82582460D01*
X102872989Y-82536705D01*
X102924500Y-82525499D01*
X103175002Y-82525499D01*
X103175008Y-82525499D01*
X103277797Y-82514999D01*
X103444334Y-82459814D01*
X103593656Y-82367712D01*
X103717712Y-82243656D01*
X103809814Y-82094334D01*
X103864999Y-81927797D01*
X103875500Y-81825009D01*
X103875499Y-81099992D01*
X103864999Y-80997203D01*
X103809814Y-80830666D01*
X103717712Y-80681344D01*
X103593656Y-80557288D01*
X103444334Y-80465186D01*
X103277797Y-80410001D01*
X103277795Y-80410000D01*
X103175010Y-80399500D01*
X101824998Y-80399500D01*
X101824981Y-80399501D01*
X101722203Y-80410000D01*
X101722200Y-80410001D01*
X101555668Y-80465185D01*
X101555663Y-80465187D01*
X101406342Y-80557289D01*
X101282289Y-80681342D01*
X101190187Y-80830663D01*
X101190186Y-80830666D01*
X101135001Y-80997203D01*
X101135001Y-80997204D01*
X101135000Y-80997204D01*
X101124500Y-81099983D01*
X101124500Y-81099996D01*
X101124501Y-81475500D01*
X101104817Y-81542539D01*
X101052013Y-81588294D01*
X101000501Y-81599500D01*
X96946114Y-81599500D01*
X96879075Y-81579815D01*
X96845797Y-81548387D01*
X96836328Y-81535354D01*
X96697148Y-81396174D01*
X96697146Y-81396172D01*
X96537905Y-81280476D01*
X96362529Y-81191117D01*
X96175326Y-81130290D01*
X95980922Y-81099500D01*
X95980917Y-81099500D01*
X94284083Y-81099500D01*
X94284078Y-81099500D01*
X94089673Y-81130290D01*
X93902470Y-81191117D01*
X93727094Y-81280476D01*
X93636241Y-81346485D01*
X93567854Y-81396172D01*
X93567852Y-81396174D01*
X93567851Y-81396174D01*
X93428671Y-81535354D01*
X93419203Y-81548387D01*
X93363872Y-81591052D01*
X93318886Y-81599500D01*
X91946114Y-81599500D01*
X91879075Y-81579815D01*
X91845797Y-81548387D01*
X91836328Y-81535354D01*
X91697148Y-81396174D01*
X91697146Y-81396172D01*
X91537905Y-81280476D01*
X91362529Y-81191117D01*
X91175326Y-81130290D01*
X90980922Y-81099500D01*
X90980917Y-81099500D01*
X89284083Y-81099500D01*
X89284078Y-81099500D01*
X89089673Y-81130290D01*
X88902470Y-81191117D01*
X88727094Y-81280476D01*
X88636241Y-81346485D01*
X88567854Y-81396172D01*
X88567852Y-81396174D01*
X88567851Y-81396174D01*
X88428674Y-81535351D01*
X88428674Y-81535352D01*
X88428672Y-81535354D01*
X88396369Y-81579815D01*
X88312976Y-81694594D01*
X88223617Y-81869970D01*
X88162790Y-82057173D01*
X88132000Y-82251577D01*
X85500500Y-82251577D01*
X85500500Y-76552135D01*
X88132000Y-76552135D01*
X88132000Y-78147870D01*
X88132001Y-78147876D01*
X88138408Y-78207483D01*
X88188702Y-78342328D01*
X88188706Y-78342335D01*
X88274952Y-78457544D01*
X88274955Y-78457547D01*
X88390164Y-78543793D01*
X88390171Y-78543797D01*
X88525017Y-78594091D01*
X88525016Y-78594091D01*
X88531944Y-78594835D01*
X88584627Y-78600500D01*
X91680372Y-78600499D01*
X91739983Y-78594091D01*
X91874831Y-78543796D01*
X91990046Y-78457546D01*
X92076296Y-78342331D01*
X92126591Y-78207483D01*
X92126591Y-78207481D01*
X92128374Y-78199938D01*
X92130646Y-78200474D01*
X92152929Y-78146688D01*
X92210323Y-78106843D01*
X92249476Y-78100500D01*
X93086592Y-78100500D01*
X93153631Y-78120185D01*
X93192135Y-78164271D01*
X93193894Y-78163187D01*
X93289786Y-78318651D01*
X93289789Y-78318655D01*
X93413844Y-78442710D01*
X93413848Y-78442713D01*
X93563162Y-78534812D01*
X93563164Y-78534813D01*
X93563166Y-78534814D01*
X93729703Y-78589999D01*
X93832492Y-78600500D01*
X93832497Y-78600500D01*
X96432503Y-78600500D01*
X96432508Y-78600500D01*
X96535297Y-78589999D01*
X96701834Y-78534814D01*
X96851155Y-78442711D01*
X96975211Y-78318655D01*
X97043784Y-78207482D01*
X97071106Y-78163187D01*
X97072899Y-78164293D01*
X97112187Y-78119663D01*
X97178408Y-78100500D01*
X100950269Y-78100500D01*
X100979705Y-78109143D01*
X101009695Y-78115667D01*
X101014711Y-78119422D01*
X101017308Y-78120185D01*
X101037949Y-78136818D01*
X101088180Y-78187048D01*
X101121666Y-78248371D01*
X101124500Y-78274730D01*
X101124500Y-78900001D01*
X101124501Y-78900019D01*
X101135000Y-79002796D01*
X101135001Y-79002799D01*
X101164795Y-79092710D01*
X101190186Y-79169334D01*
X101282288Y-79318656D01*
X101406344Y-79442712D01*
X101555666Y-79534814D01*
X101722203Y-79589999D01*
X101824991Y-79600500D01*
X103175008Y-79600499D01*
X103277797Y-79589999D01*
X103444334Y-79534814D01*
X103593656Y-79442712D01*
X103717712Y-79318656D01*
X103809814Y-79169334D01*
X103864999Y-79002797D01*
X103875500Y-78900009D01*
X103875499Y-78174992D01*
X103872728Y-78147870D01*
X103864999Y-78072203D01*
X103864998Y-78072200D01*
X103855264Y-78042826D01*
X103809814Y-77905666D01*
X103717712Y-77756344D01*
X103593656Y-77632288D01*
X103444334Y-77540186D01*
X103277797Y-77485001D01*
X103277795Y-77485000D01*
X103175016Y-77474500D01*
X103175009Y-77474500D01*
X102924500Y-77474500D01*
X102857461Y-77454815D01*
X102811706Y-77402011D01*
X102800500Y-77350500D01*
X102800500Y-77087230D01*
X102808523Y-77059906D01*
X102813541Y-77031876D01*
X102818966Y-77024341D01*
X102820185Y-77020191D01*
X102833630Y-77002858D01*
X102835188Y-77001179D01*
X102892712Y-76943656D01*
X102900850Y-76930460D01*
X102909130Y-76921544D01*
X102929113Y-76909650D01*
X102946406Y-76894096D01*
X102958577Y-76892115D01*
X102969171Y-76885810D01*
X102992412Y-76886608D01*
X103015368Y-76882872D01*
X103026676Y-76887784D01*
X103038999Y-76888208D01*
X103058120Y-76901445D01*
X103079451Y-76910713D01*
X103091363Y-76924460D01*
X103096446Y-76927979D01*
X103098322Y-76932491D01*
X103105537Y-76940817D01*
X103107288Y-76943656D01*
X103231344Y-77067712D01*
X103380666Y-77159814D01*
X103547203Y-77214999D01*
X103649991Y-77225500D01*
X104250008Y-77225499D01*
X104250016Y-77225498D01*
X104250019Y-77225498D01*
X104306302Y-77219748D01*
X104352797Y-77214999D01*
X104519334Y-77159814D01*
X104668656Y-77067712D01*
X104792712Y-76943656D01*
X104884814Y-76794334D01*
X104939999Y-76627797D01*
X104950500Y-76525009D01*
X104950500Y-76003295D01*
X104950500Y-75124000D01*
X112494500Y-75124000D01*
X112494500Y-84876000D01*
X112494501Y-84876009D01*
X112506052Y-84983450D01*
X112506054Y-84983462D01*
X112517260Y-85034972D01*
X112551383Y-85137497D01*
X112551386Y-85137503D01*
X112629171Y-85258537D01*
X112629179Y-85258548D01*
X112674923Y-85311340D01*
X112674926Y-85311343D01*
X112674930Y-85311347D01*
X112783664Y-85405567D01*
X112783667Y-85405568D01*
X112783668Y-85405569D01*
X112877925Y-85448616D01*
X112914541Y-85465338D01*
X112981580Y-85485023D01*
X112981584Y-85485024D01*
X113124000Y-85505500D01*
X113124003Y-85505500D01*
X124375990Y-85505500D01*
X124376000Y-85505500D01*
X124483456Y-85493947D01*
X124534967Y-85482741D01*
X124569197Y-85471347D01*
X124637497Y-85448616D01*
X124637501Y-85448613D01*
X124637504Y-85448613D01*
X124758543Y-85370825D01*
X124811347Y-85325070D01*
X124905567Y-85216336D01*
X124965338Y-85085459D01*
X124985023Y-85018420D01*
X124985024Y-85018416D01*
X125005500Y-84876000D01*
X125005500Y-82421902D01*
X135542000Y-82421902D01*
X135542000Y-82658097D01*
X135578946Y-82891368D01*
X135651933Y-83115996D01*
X135727093Y-83263504D01*
X135759157Y-83326433D01*
X135897983Y-83517510D01*
X136064990Y-83684517D01*
X136256067Y-83823343D01*
X136355491Y-83874002D01*
X136466503Y-83930566D01*
X136466505Y-83930566D01*
X136466508Y-83930568D01*
X136549276Y-83957461D01*
X136691131Y-84003553D01*
X136924403Y-84040500D01*
X136924408Y-84040500D01*
X137160597Y-84040500D01*
X137393868Y-84003553D01*
X137403264Y-84000500D01*
X137618492Y-83930568D01*
X137828933Y-83823343D01*
X138020010Y-83684517D01*
X138127708Y-83576819D01*
X138189031Y-83543334D01*
X138215389Y-83540500D01*
X141870789Y-83540500D01*
X141883390Y-83541141D01*
X141974991Y-83550500D01*
X142391456Y-83550499D01*
X142391470Y-83550500D01*
X142401459Y-83550500D01*
X142401460Y-83550500D01*
X142598540Y-83550500D01*
X148380663Y-83550500D01*
X148447702Y-83570185D01*
X148468344Y-83586818D01*
X148585354Y-83703828D01*
X148744595Y-83819524D01*
X148774600Y-83834812D01*
X148919970Y-83908882D01*
X148919972Y-83908882D01*
X148919975Y-83908884D01*
X148954756Y-83920185D01*
X149107173Y-83969709D01*
X149301578Y-84000500D01*
X149301583Y-84000500D01*
X149498422Y-84000500D01*
X149692826Y-83969709D01*
X149730521Y-83957461D01*
X149880025Y-83908884D01*
X150055405Y-83819524D01*
X150214646Y-83703828D01*
X150353828Y-83564646D01*
X150469524Y-83405405D01*
X150558884Y-83230025D01*
X150619709Y-83042826D01*
X150625636Y-83005405D01*
X150650500Y-82848422D01*
X150650500Y-81151577D01*
X150619709Y-80957173D01*
X150558882Y-80769970D01*
X150526464Y-80706347D01*
X150469524Y-80594595D01*
X150465547Y-80589121D01*
X150424182Y-80532186D01*
X150400702Y-80466380D01*
X150400500Y-80459301D01*
X150400500Y-78540697D01*
X150420185Y-78473658D01*
X150424170Y-78467827D01*
X150469524Y-78405405D01*
X150558884Y-78230025D01*
X150619709Y-78042826D01*
X150650500Y-77848422D01*
X150650500Y-76151577D01*
X150619709Y-75957173D01*
X150573574Y-75815186D01*
X150558884Y-75769975D01*
X150558882Y-75769972D01*
X150558882Y-75769970D01*
X150469523Y-75594594D01*
X150353828Y-75435354D01*
X150214646Y-75296172D01*
X150055405Y-75180476D01*
X149880029Y-75091117D01*
X149692826Y-75030290D01*
X149498422Y-74999500D01*
X149498417Y-74999500D01*
X149301583Y-74999500D01*
X149301578Y-74999500D01*
X149107173Y-75030290D01*
X148919970Y-75091117D01*
X148744594Y-75180476D01*
X148709928Y-75205663D01*
X148585354Y-75296172D01*
X148585352Y-75296174D01*
X148585351Y-75296174D01*
X148446174Y-75435351D01*
X148446174Y-75435352D01*
X148446172Y-75435354D01*
X148417380Y-75474983D01*
X148330476Y-75594594D01*
X148241117Y-75769970D01*
X148180290Y-75957173D01*
X148149500Y-76151577D01*
X148149500Y-77848422D01*
X148180290Y-78042826D01*
X148241117Y-78230029D01*
X148320910Y-78386631D01*
X148330476Y-78405405D01*
X148375818Y-78467812D01*
X148399298Y-78533618D01*
X148399500Y-78540697D01*
X148399500Y-80459301D01*
X148379815Y-80526340D01*
X148375818Y-80532186D01*
X148330478Y-80594591D01*
X148241117Y-80769970D01*
X148180290Y-80957173D01*
X148149500Y-81151577D01*
X148149500Y-81425500D01*
X148129815Y-81492539D01*
X148077011Y-81538294D01*
X148025500Y-81549500D01*
X142651026Y-81549500D01*
X142626834Y-81547117D01*
X142603377Y-81542451D01*
X142588542Y-81539500D01*
X142588541Y-81539500D01*
X138215389Y-81539500D01*
X138148350Y-81519815D01*
X138127708Y-81503181D01*
X138020012Y-81395485D01*
X138020010Y-81395483D01*
X137828933Y-81256657D01*
X137618496Y-81149433D01*
X137393868Y-81076446D01*
X137160597Y-81039500D01*
X137160592Y-81039500D01*
X136924408Y-81039500D01*
X136924403Y-81039500D01*
X136691131Y-81076446D01*
X136466503Y-81149433D01*
X136256066Y-81256657D01*
X136147050Y-81335862D01*
X136064990Y-81395483D01*
X136064988Y-81395485D01*
X136064987Y-81395485D01*
X135897985Y-81562487D01*
X135897985Y-81562488D01*
X135897983Y-81562490D01*
X135871094Y-81599500D01*
X135759157Y-81753566D01*
X135651933Y-81964003D01*
X135578946Y-82188631D01*
X135542000Y-82421902D01*
X125005500Y-82421902D01*
X125005500Y-76449983D01*
X125599500Y-76449983D01*
X125599500Y-78550001D01*
X125599501Y-78550018D01*
X125610000Y-78652796D01*
X125610001Y-78652799D01*
X125661723Y-78808884D01*
X125665186Y-78819334D01*
X125757288Y-78968656D01*
X125881344Y-79092712D01*
X126030666Y-79184814D01*
X126197203Y-79239999D01*
X126299991Y-79250500D01*
X127800008Y-79250499D01*
X127902797Y-79239999D01*
X128069334Y-79184814D01*
X128218656Y-79092712D01*
X128342712Y-78968656D01*
X128434814Y-78819334D01*
X128489999Y-78652797D01*
X128498264Y-78571897D01*
X128524660Y-78507206D01*
X128581841Y-78467054D01*
X128621622Y-78460500D01*
X135496592Y-78460500D01*
X135563631Y-78480185D01*
X135602136Y-78524271D01*
X135603895Y-78523187D01*
X135607685Y-78529332D01*
X135607686Y-78529334D01*
X135699788Y-78678656D01*
X135823844Y-78802712D01*
X135973166Y-78894814D01*
X136139703Y-78949999D01*
X136242491Y-78960500D01*
X137842508Y-78960499D01*
X137945297Y-78949999D01*
X138111834Y-78894814D01*
X138261156Y-78802712D01*
X138385212Y-78678656D01*
X138477314Y-78529334D01*
X138477314Y-78529332D01*
X138481105Y-78523187D01*
X138482899Y-78524293D01*
X138522187Y-78479663D01*
X138588408Y-78460500D01*
X140913543Y-78460500D01*
X140964327Y-78450397D01*
X141060916Y-78431185D01*
X141106836Y-78422051D01*
X141192347Y-78386631D01*
X141259625Y-78358763D01*
X141262517Y-78357730D01*
X141270082Y-78357293D01*
X141304242Y-78350499D01*
X141700002Y-78350499D01*
X141700008Y-78350499D01*
X141802797Y-78339999D01*
X141969334Y-78284814D01*
X142118656Y-78192712D01*
X142242712Y-78068656D01*
X142334814Y-77919334D01*
X142389999Y-77752797D01*
X142400500Y-77650009D01*
X142400499Y-76899992D01*
X142399694Y-76892115D01*
X142389999Y-76797203D01*
X142389998Y-76797200D01*
X142356521Y-76696174D01*
X142334814Y-76630666D01*
X142242712Y-76481344D01*
X142118656Y-76357288D01*
X141969334Y-76265186D01*
X141802797Y-76210001D01*
X141802795Y-76210000D01*
X141700010Y-76199500D01*
X140299998Y-76199500D01*
X140299981Y-76199501D01*
X140197203Y-76210000D01*
X140197200Y-76210001D01*
X140030668Y-76265185D01*
X140030663Y-76265187D01*
X139881342Y-76357289D01*
X139815451Y-76423181D01*
X139754128Y-76456666D01*
X139727770Y-76459500D01*
X138588408Y-76459500D01*
X138521369Y-76439815D01*
X138482863Y-76395728D01*
X138481105Y-76396813D01*
X138477314Y-76390666D01*
X138385212Y-76241344D01*
X138261156Y-76117288D01*
X138111834Y-76025186D01*
X137945297Y-75970001D01*
X137945295Y-75970000D01*
X137842510Y-75959500D01*
X136242498Y-75959500D01*
X136242481Y-75959501D01*
X136139703Y-75970000D01*
X136139700Y-75970001D01*
X135973168Y-76025185D01*
X135973163Y-76025187D01*
X135823842Y-76117289D01*
X135699789Y-76241342D01*
X135668284Y-76292419D01*
X135609941Y-76387011D01*
X135603895Y-76396813D01*
X135602100Y-76395706D01*
X135562813Y-76440337D01*
X135496592Y-76459500D01*
X128613449Y-76459500D01*
X128546410Y-76439815D01*
X128500655Y-76387011D01*
X128491629Y-76353773D01*
X128491415Y-76353819D01*
X128490569Y-76349866D01*
X128490091Y-76348106D01*
X128489999Y-76347203D01*
X128434814Y-76180666D01*
X128342712Y-76031344D01*
X128218656Y-75907288D01*
X128069334Y-75815186D01*
X127902797Y-75760001D01*
X127902795Y-75760000D01*
X127800010Y-75749500D01*
X126299998Y-75749500D01*
X126299981Y-75749501D01*
X126197203Y-75760000D01*
X126197200Y-75760001D01*
X126030668Y-75815185D01*
X126030663Y-75815187D01*
X125881342Y-75907289D01*
X125757289Y-76031342D01*
X125665187Y-76180663D01*
X125665185Y-76180668D01*
X125655465Y-76210001D01*
X125610001Y-76347203D01*
X125610001Y-76347204D01*
X125610000Y-76347204D01*
X125599500Y-76449983D01*
X125005500Y-76449983D01*
X125005500Y-75124000D01*
X124993947Y-75016544D01*
X124982741Y-74965033D01*
X124971843Y-74932289D01*
X124948616Y-74862502D01*
X124948613Y-74862496D01*
X124870828Y-74741462D01*
X124870825Y-74741457D01*
X124870820Y-74741451D01*
X124825076Y-74688659D01*
X124825072Y-74688656D01*
X124825070Y-74688653D01*
X124716336Y-74594433D01*
X124716333Y-74594431D01*
X124716331Y-74594430D01*
X124585465Y-74534664D01*
X124585460Y-74534662D01*
X124585459Y-74534662D01*
X124518420Y-74514977D01*
X124518422Y-74514977D01*
X124518417Y-74514976D01*
X124456347Y-74506052D01*
X124376000Y-74494500D01*
X113124000Y-74494500D01*
X113123991Y-74494500D01*
X113123990Y-74494501D01*
X113016549Y-74506052D01*
X113016537Y-74506054D01*
X112965027Y-74517260D01*
X112862502Y-74551383D01*
X112862496Y-74551386D01*
X112741462Y-74629171D01*
X112741451Y-74629179D01*
X112688659Y-74674923D01*
X112594433Y-74783664D01*
X112594430Y-74783668D01*
X112534664Y-74914534D01*
X112514976Y-74981582D01*
X112509949Y-75016549D01*
X112494500Y-75124000D01*
X104950500Y-75124000D01*
X104950500Y-70054675D01*
X104950501Y-70054654D01*
X104950501Y-69851457D01*
X104950500Y-69851455D01*
X104912053Y-69658172D01*
X104912052Y-69658165D01*
X104836632Y-69476086D01*
X104836631Y-69476085D01*
X104836628Y-69476079D01*
X104727140Y-69312219D01*
X104727137Y-69312215D01*
X103490217Y-68075297D01*
X103456732Y-68013974D01*
X103461715Y-67944285D01*
X103494091Y-67857483D01*
X103500500Y-67797873D01*
X103500500Y-67124500D01*
X103520185Y-67057461D01*
X103572989Y-67011706D01*
X103624500Y-67000500D01*
X116375501Y-67000500D01*
X116442540Y-67020185D01*
X116488295Y-67072989D01*
X116499501Y-67124500D01*
X116499501Y-67797876D01*
X116505908Y-67857483D01*
X116556202Y-67992328D01*
X116556206Y-67992335D01*
X116642452Y-68107544D01*
X116642455Y-68107547D01*
X116757664Y-68193793D01*
X116757671Y-68193797D01*
X116892517Y-68244091D01*
X116892516Y-68244091D01*
X116899444Y-68244835D01*
X116952127Y-68250500D01*
X123047872Y-68250499D01*
X123107483Y-68244091D01*
X123242331Y-68193796D01*
X123357546Y-68107546D01*
X123443796Y-67992331D01*
X123494091Y-67857483D01*
X123500500Y-67797873D01*
X123500500Y-67124500D01*
X123520185Y-67057461D01*
X123572989Y-67011706D01*
X123624500Y-67000500D01*
X136375501Y-67000500D01*
X136442540Y-67020185D01*
X136488295Y-67072989D01*
X136499501Y-67124500D01*
X136499501Y-67797876D01*
X136505908Y-67857483D01*
X136556202Y-67992328D01*
X136556206Y-67992335D01*
X136642452Y-68107544D01*
X136642455Y-68107547D01*
X136757664Y-68193793D01*
X136757671Y-68193797D01*
X136892517Y-68244091D01*
X136892516Y-68244091D01*
X136899444Y-68244835D01*
X136952127Y-68250500D01*
X143047872Y-68250499D01*
X143107483Y-68244091D01*
X143242331Y-68193796D01*
X143357546Y-68107546D01*
X143443796Y-67992331D01*
X143494091Y-67857483D01*
X143500500Y-67797873D01*
X143500500Y-67124500D01*
X143520185Y-67057461D01*
X143572989Y-67011706D01*
X143624500Y-67000500D01*
X156375501Y-67000500D01*
X156442540Y-67020185D01*
X156488295Y-67072989D01*
X156499501Y-67124500D01*
X156499501Y-67797876D01*
X156505908Y-67857483D01*
X156556202Y-67992328D01*
X156556206Y-67992335D01*
X156642452Y-68107544D01*
X156642455Y-68107547D01*
X156757664Y-68193793D01*
X156757671Y-68193797D01*
X156892517Y-68244091D01*
X156892516Y-68244091D01*
X156899444Y-68244835D01*
X156952127Y-68250500D01*
X160784217Y-68250499D01*
X160851256Y-68270184D01*
X160871898Y-68286818D01*
X163830681Y-71245601D01*
X163864166Y-71306924D01*
X163867000Y-71333282D01*
X163867000Y-76326447D01*
X163847315Y-76393486D01*
X163794511Y-76439241D01*
X163781319Y-76444378D01*
X163637470Y-76491117D01*
X163462094Y-76580476D01*
X163394186Y-76629815D01*
X163302854Y-76696172D01*
X163302852Y-76696174D01*
X163302851Y-76696174D01*
X163163674Y-76835351D01*
X163163674Y-76835352D01*
X163163672Y-76835354D01*
X163116705Y-76899998D01*
X163047976Y-76994594D01*
X162958617Y-77169970D01*
X162897790Y-77357173D01*
X162867000Y-77551577D01*
X162867000Y-77748422D01*
X162897790Y-77942826D01*
X162958617Y-78130029D01*
X163009568Y-78230025D01*
X163047976Y-78305405D01*
X163163672Y-78464646D01*
X163302854Y-78603828D01*
X163462095Y-78719524D01*
X163544955Y-78761743D01*
X163637470Y-78808882D01*
X163637472Y-78808882D01*
X163637475Y-78808884D01*
X163737817Y-78841487D01*
X163824673Y-78869709D01*
X164019078Y-78900500D01*
X164019083Y-78900500D01*
X165715922Y-78900500D01*
X165910326Y-78869709D01*
X166097525Y-78808884D01*
X166272905Y-78719524D01*
X166301396Y-78698823D01*
X166335314Y-78674182D01*
X166401120Y-78650702D01*
X166408199Y-78650500D01*
X168326801Y-78650500D01*
X168393840Y-78670185D01*
X168399686Y-78674182D01*
X168456621Y-78715547D01*
X168462095Y-78719524D01*
X168573847Y-78776464D01*
X168637470Y-78808882D01*
X168637472Y-78808882D01*
X168637475Y-78808884D01*
X168737817Y-78841487D01*
X168824673Y-78869709D01*
X169019078Y-78900500D01*
X169019083Y-78900500D01*
X170715922Y-78900500D01*
X170910326Y-78869709D01*
X171097525Y-78808884D01*
X171272905Y-78719524D01*
X171432146Y-78603828D01*
X171571328Y-78464646D01*
X171687024Y-78305405D01*
X171776384Y-78130025D01*
X171837209Y-77942826D01*
X171868000Y-77748422D01*
X171868000Y-77551577D01*
X171837209Y-77357173D01*
X171794425Y-77225499D01*
X171776384Y-77169975D01*
X171776382Y-77169972D01*
X171776382Y-77169970D01*
X171720301Y-77059906D01*
X171687024Y-76994595D01*
X171571328Y-76835354D01*
X171432146Y-76696172D01*
X171272905Y-76580476D01*
X171271608Y-76579815D01*
X171097529Y-76491117D01*
X170910326Y-76430290D01*
X170715922Y-76399500D01*
X170715917Y-76399500D01*
X169019083Y-76399500D01*
X169019078Y-76399500D01*
X168824673Y-76430290D01*
X168637470Y-76491117D01*
X168462091Y-76580478D01*
X168399686Y-76625818D01*
X168333880Y-76649298D01*
X168326801Y-76649500D01*
X166408199Y-76649500D01*
X166341160Y-76629815D01*
X166335314Y-76625818D01*
X166272908Y-76580478D01*
X166272907Y-76580477D01*
X166272905Y-76580476D01*
X166198449Y-76542539D01*
X166097529Y-76491117D01*
X165953681Y-76444378D01*
X165896006Y-76404940D01*
X165868808Y-76340581D01*
X165868000Y-76326447D01*
X165868000Y-70972175D01*
X165868001Y-70972154D01*
X165868001Y-70768957D01*
X165868000Y-70768955D01*
X165829553Y-70575672D01*
X165829552Y-70575665D01*
X165754132Y-70393586D01*
X165754131Y-70393585D01*
X165754128Y-70393579D01*
X165644640Y-70229719D01*
X165644637Y-70229715D01*
X163490217Y-68075297D01*
X163456732Y-68013974D01*
X163461715Y-67944285D01*
X163494091Y-67857483D01*
X163500500Y-67797873D01*
X163500499Y-64202128D01*
X163494091Y-64142517D01*
X163443796Y-64007669D01*
X163443795Y-64007668D01*
X163443793Y-64007664D01*
X163357547Y-63892455D01*
X163357544Y-63892452D01*
X163242335Y-63806206D01*
X163242328Y-63806202D01*
X163107482Y-63755908D01*
X163107483Y-63755908D01*
X163047883Y-63749501D01*
X163047881Y-63749500D01*
X163047873Y-63749500D01*
X163047864Y-63749500D01*
X156952129Y-63749500D01*
X156952123Y-63749501D01*
X156892516Y-63755908D01*
X156757671Y-63806202D01*
X156757664Y-63806206D01*
X156642455Y-63892452D01*
X156642452Y-63892455D01*
X156556206Y-64007664D01*
X156556202Y-64007671D01*
X156505908Y-64142517D01*
X156499501Y-64202116D01*
X156499501Y-64202123D01*
X156499500Y-64202135D01*
X156499500Y-64875500D01*
X156479815Y-64942539D01*
X156427011Y-64988294D01*
X156375500Y-64999500D01*
X143624499Y-64999500D01*
X143557460Y-64979815D01*
X143511705Y-64927011D01*
X143500499Y-64875500D01*
X143500499Y-64202129D01*
X143500498Y-64202123D01*
X143500497Y-64202116D01*
X143494091Y-64142517D01*
X143443796Y-64007669D01*
X143443795Y-64007668D01*
X143443793Y-64007664D01*
X143357547Y-63892455D01*
X143357544Y-63892452D01*
X143242335Y-63806206D01*
X143242328Y-63806202D01*
X143107482Y-63755908D01*
X143107483Y-63755908D01*
X143047883Y-63749501D01*
X143047881Y-63749500D01*
X143047873Y-63749500D01*
X143047864Y-63749500D01*
X136952129Y-63749500D01*
X136952123Y-63749501D01*
X136892516Y-63755908D01*
X136757671Y-63806202D01*
X136757664Y-63806206D01*
X136642455Y-63892452D01*
X136642452Y-63892455D01*
X136556206Y-64007664D01*
X136556202Y-64007671D01*
X136505908Y-64142517D01*
X136499501Y-64202116D01*
X136499501Y-64202123D01*
X136499500Y-64202135D01*
X136499500Y-64875500D01*
X136479815Y-64942539D01*
X136427011Y-64988294D01*
X136375500Y-64999500D01*
X123624499Y-64999500D01*
X123557460Y-64979815D01*
X123511705Y-64927011D01*
X123500499Y-64875500D01*
X123500499Y-64202129D01*
X123500498Y-64202123D01*
X123500497Y-64202116D01*
X123494091Y-64142517D01*
X123443796Y-64007669D01*
X123443795Y-64007668D01*
X123443793Y-64007664D01*
X123357547Y-63892455D01*
X123357544Y-63892452D01*
X123242335Y-63806206D01*
X123242328Y-63806202D01*
X123107482Y-63755908D01*
X123107483Y-63755908D01*
X123047883Y-63749501D01*
X123047881Y-63749500D01*
X123047873Y-63749500D01*
X123047864Y-63749500D01*
X116952129Y-63749500D01*
X116952123Y-63749501D01*
X116892516Y-63755908D01*
X116757671Y-63806202D01*
X116757664Y-63806206D01*
X116642455Y-63892452D01*
X116642452Y-63892455D01*
X116556206Y-64007664D01*
X116556202Y-64007671D01*
X116505908Y-64142517D01*
X116499501Y-64202116D01*
X116499501Y-64202123D01*
X116499500Y-64202135D01*
X116499500Y-64875500D01*
X116479815Y-64942539D01*
X116427011Y-64988294D01*
X116375500Y-64999500D01*
X103624499Y-64999500D01*
X103557460Y-64979815D01*
X103511705Y-64927011D01*
X103500499Y-64875500D01*
X103500499Y-64202129D01*
X103500498Y-64202123D01*
X103500497Y-64202116D01*
X103494091Y-64142517D01*
X103443796Y-64007669D01*
X103443795Y-64007668D01*
X103443793Y-64007664D01*
X103357547Y-63892455D01*
X103357544Y-63892452D01*
X103242335Y-63806206D01*
X103242328Y-63806202D01*
X103107482Y-63755908D01*
X103107483Y-63755908D01*
X103047883Y-63749501D01*
X103047881Y-63749500D01*
X103047873Y-63749500D01*
X103047864Y-63749500D01*
X96952129Y-63749500D01*
X96952123Y-63749501D01*
X96892516Y-63755908D01*
X96757671Y-63806202D01*
X96757664Y-63806206D01*
X96642455Y-63892452D01*
X96642452Y-63892455D01*
X96556206Y-64007664D01*
X96556202Y-64007671D01*
X96505908Y-64142517D01*
X96499501Y-64202116D01*
X96499501Y-64202123D01*
X96499500Y-64202135D01*
X96499500Y-67797870D01*
X96499501Y-67797876D01*
X96505908Y-67857483D01*
X96556202Y-67992328D01*
X96556206Y-67992335D01*
X96642452Y-68107544D01*
X96642455Y-68107547D01*
X96757664Y-68193793D01*
X96757671Y-68193797D01*
X96892517Y-68244091D01*
X96892516Y-68244091D01*
X96899444Y-68244835D01*
X96952127Y-68250500D01*
X100784216Y-68250499D01*
X100851255Y-68270184D01*
X100871897Y-68286818D01*
X102913181Y-70328101D01*
X102946666Y-70389424D01*
X102949500Y-70415782D01*
X102949500Y-74821659D01*
X102929815Y-74888698D01*
X102877011Y-74934453D01*
X102807853Y-74944397D01*
X102760404Y-74927198D01*
X102619340Y-74840189D01*
X102619335Y-74840187D01*
X102619334Y-74840186D01*
X102452797Y-74785001D01*
X102452795Y-74785000D01*
X102350010Y-74774500D01*
X101749998Y-74774500D01*
X101749980Y-74774501D01*
X101647203Y-74785000D01*
X101647200Y-74785001D01*
X101480668Y-74840185D01*
X101480663Y-74840187D01*
X101331342Y-74932289D01*
X101207289Y-75056342D01*
X101115187Y-75205663D01*
X101115186Y-75205666D01*
X101060001Y-75372203D01*
X101060001Y-75372204D01*
X101060000Y-75372204D01*
X101049500Y-75474983D01*
X101049500Y-75474996D01*
X101049501Y-76475500D01*
X101029817Y-76542539D01*
X100977013Y-76588294D01*
X100925501Y-76599500D01*
X97178408Y-76599500D01*
X97111369Y-76579815D01*
X97072864Y-76535728D01*
X97071106Y-76536813D01*
X96975213Y-76381348D01*
X96975210Y-76381344D01*
X96851155Y-76257289D01*
X96851151Y-76257286D01*
X96701837Y-76165187D01*
X96701835Y-76165186D01*
X96618565Y-76137593D01*
X96535297Y-76110001D01*
X96535295Y-76110000D01*
X96432515Y-76099500D01*
X96432508Y-76099500D01*
X93832492Y-76099500D01*
X93832484Y-76099500D01*
X93729704Y-76110000D01*
X93729703Y-76110001D01*
X93563164Y-76165186D01*
X93563162Y-76165187D01*
X93413848Y-76257286D01*
X93413844Y-76257289D01*
X93289789Y-76381344D01*
X93289786Y-76381348D01*
X93193894Y-76536813D01*
X93192100Y-76535706D01*
X93152813Y-76580337D01*
X93086592Y-76599500D01*
X92249477Y-76599500D01*
X92182438Y-76579815D01*
X92136683Y-76527011D01*
X92129233Y-76499865D01*
X92128376Y-76500068D01*
X92126592Y-76492520D01*
X92076297Y-76357671D01*
X92076293Y-76357664D01*
X91990047Y-76242455D01*
X91990044Y-76242452D01*
X91874835Y-76156206D01*
X91874828Y-76156202D01*
X91739982Y-76105908D01*
X91739983Y-76105908D01*
X91680383Y-76099501D01*
X91680381Y-76099500D01*
X91680373Y-76099500D01*
X91680364Y-76099500D01*
X88584629Y-76099500D01*
X88584623Y-76099501D01*
X88525016Y-76105908D01*
X88390171Y-76156202D01*
X88390164Y-76156206D01*
X88274955Y-76242452D01*
X88274952Y-76242455D01*
X88188706Y-76357664D01*
X88188702Y-76357671D01*
X88138408Y-76492517D01*
X88132001Y-76552116D01*
X88132000Y-76552135D01*
X85500500Y-76552135D01*
X85500500Y-52202135D01*
X96499500Y-52202135D01*
X96499500Y-55797870D01*
X96499501Y-55797876D01*
X96505908Y-55857483D01*
X96556202Y-55992328D01*
X96556206Y-55992335D01*
X96642452Y-56107544D01*
X96642455Y-56107547D01*
X96757664Y-56193793D01*
X96757671Y-56193797D01*
X96892517Y-56244091D01*
X96892516Y-56244091D01*
X96899444Y-56244835D01*
X96952127Y-56250500D01*
X103047872Y-56250499D01*
X103107483Y-56244091D01*
X103242331Y-56193796D01*
X103357546Y-56107546D01*
X103443796Y-55992331D01*
X103494091Y-55857483D01*
X103500500Y-55797873D01*
X103500500Y-55124500D01*
X103520185Y-55057461D01*
X103572989Y-55011706D01*
X103624500Y-55000500D01*
X109901459Y-55000500D01*
X116375501Y-55000500D01*
X116442540Y-55020185D01*
X116488295Y-55072989D01*
X116499501Y-55124500D01*
X116499501Y-55797876D01*
X116505908Y-55857483D01*
X116556202Y-55992328D01*
X116556206Y-55992335D01*
X116642452Y-56107544D01*
X116642455Y-56107547D01*
X116757664Y-56193793D01*
X116757671Y-56193797D01*
X116892517Y-56244091D01*
X116892516Y-56244091D01*
X116899444Y-56244835D01*
X116952127Y-56250500D01*
X123047872Y-56250499D01*
X123107483Y-56244091D01*
X123242331Y-56193796D01*
X123357546Y-56107546D01*
X123443796Y-55992331D01*
X123494091Y-55857483D01*
X123500500Y-55797873D01*
X123500500Y-55124500D01*
X123520185Y-55057461D01*
X123572989Y-55011706D01*
X123624500Y-55000500D01*
X129401459Y-55000500D01*
X136375501Y-55000500D01*
X136442540Y-55020185D01*
X136488295Y-55072989D01*
X136499501Y-55124500D01*
X136499501Y-55797876D01*
X136505908Y-55857483D01*
X136556202Y-55992328D01*
X136556206Y-55992335D01*
X136642452Y-56107544D01*
X136642455Y-56107547D01*
X136757664Y-56193793D01*
X136757671Y-56193797D01*
X136892517Y-56244091D01*
X136892516Y-56244091D01*
X136899444Y-56244835D01*
X136952127Y-56250500D01*
X143047872Y-56250499D01*
X143107483Y-56244091D01*
X143242331Y-56193796D01*
X143357546Y-56107546D01*
X143443796Y-55992331D01*
X143494091Y-55857483D01*
X143500500Y-55797873D01*
X143500500Y-55124500D01*
X143520185Y-55057461D01*
X143572989Y-55011706D01*
X143624500Y-55000500D01*
X149901459Y-55000500D01*
X156375501Y-55000500D01*
X156442540Y-55020185D01*
X156488295Y-55072989D01*
X156499501Y-55124500D01*
X156499501Y-55797876D01*
X156505908Y-55857483D01*
X156556202Y-55992328D01*
X156556206Y-55992335D01*
X156642452Y-56107544D01*
X156642455Y-56107547D01*
X156757664Y-56193793D01*
X156757671Y-56193797D01*
X156892517Y-56244091D01*
X156892516Y-56244091D01*
X156899444Y-56244835D01*
X156952127Y-56250500D01*
X163047872Y-56250499D01*
X163107483Y-56244091D01*
X163242331Y-56193796D01*
X163357546Y-56107546D01*
X163443796Y-55992331D01*
X163494091Y-55857483D01*
X163500500Y-55797873D01*
X163500499Y-52202128D01*
X163494091Y-52142517D01*
X163443796Y-52007669D01*
X163443795Y-52007668D01*
X163443793Y-52007664D01*
X163357547Y-51892455D01*
X163357544Y-51892452D01*
X163242335Y-51806206D01*
X163242328Y-51806202D01*
X163107482Y-51755908D01*
X163107483Y-51755908D01*
X163047883Y-51749501D01*
X163047881Y-51749500D01*
X163047873Y-51749500D01*
X163047864Y-51749500D01*
X156952129Y-51749500D01*
X156952123Y-51749501D01*
X156892516Y-51755908D01*
X156757671Y-51806202D01*
X156757664Y-51806206D01*
X156642455Y-51892452D01*
X156642452Y-51892455D01*
X156556206Y-52007664D01*
X156556202Y-52007671D01*
X156505908Y-52142517D01*
X156499501Y-52202116D01*
X156499501Y-52202123D01*
X156499500Y-52202135D01*
X156499500Y-52875500D01*
X156479815Y-52942539D01*
X156427011Y-52988294D01*
X156375500Y-52999500D01*
X143624499Y-52999500D01*
X143557460Y-52979815D01*
X143511705Y-52927011D01*
X143500499Y-52875500D01*
X143500499Y-52202129D01*
X143500498Y-52202123D01*
X143500497Y-52202116D01*
X143494091Y-52142517D01*
X143443796Y-52007669D01*
X143443795Y-52007668D01*
X143443793Y-52007664D01*
X143357547Y-51892455D01*
X143357544Y-51892452D01*
X143242335Y-51806206D01*
X143242328Y-51806202D01*
X143107482Y-51755908D01*
X143107483Y-51755908D01*
X143047883Y-51749501D01*
X143047881Y-51749500D01*
X143047873Y-51749500D01*
X143047864Y-51749500D01*
X136952129Y-51749500D01*
X136952123Y-51749501D01*
X136892516Y-51755908D01*
X136757671Y-51806202D01*
X136757664Y-51806206D01*
X136642455Y-51892452D01*
X136642452Y-51892455D01*
X136556206Y-52007664D01*
X136556202Y-52007671D01*
X136505908Y-52142517D01*
X136499501Y-52202116D01*
X136499501Y-52202123D01*
X136499500Y-52202135D01*
X136499500Y-52875500D01*
X136479815Y-52942539D01*
X136427011Y-52988294D01*
X136375500Y-52999500D01*
X123624499Y-52999500D01*
X123557460Y-52979815D01*
X123511705Y-52927011D01*
X123500499Y-52875500D01*
X123500499Y-52202129D01*
X123500498Y-52202123D01*
X123500497Y-52202116D01*
X123494091Y-52142517D01*
X123443796Y-52007669D01*
X123443795Y-52007668D01*
X123443793Y-52007664D01*
X123357547Y-51892455D01*
X123357544Y-51892452D01*
X123242335Y-51806206D01*
X123242328Y-51806202D01*
X123107482Y-51755908D01*
X123107483Y-51755908D01*
X123047883Y-51749501D01*
X123047881Y-51749500D01*
X123047873Y-51749500D01*
X123047864Y-51749500D01*
X116952129Y-51749500D01*
X116952123Y-51749501D01*
X116892516Y-51755908D01*
X116757671Y-51806202D01*
X116757664Y-51806206D01*
X116642455Y-51892452D01*
X116642452Y-51892455D01*
X116556206Y-52007664D01*
X116556202Y-52007671D01*
X116505908Y-52142517D01*
X116499501Y-52202116D01*
X116499501Y-52202123D01*
X116499500Y-52202135D01*
X116499500Y-52875500D01*
X116479815Y-52942539D01*
X116427011Y-52988294D01*
X116375500Y-52999500D01*
X103624499Y-52999500D01*
X103557460Y-52979815D01*
X103511705Y-52927011D01*
X103500499Y-52875500D01*
X103500499Y-52202129D01*
X103500498Y-52202123D01*
X103500497Y-52202116D01*
X103494091Y-52142517D01*
X103443796Y-52007669D01*
X103443795Y-52007668D01*
X103443793Y-52007664D01*
X103357547Y-51892455D01*
X103357544Y-51892452D01*
X103242335Y-51806206D01*
X103242328Y-51806202D01*
X103107482Y-51755908D01*
X103107483Y-51755908D01*
X103047883Y-51749501D01*
X103047881Y-51749500D01*
X103047873Y-51749500D01*
X103047864Y-51749500D01*
X96952129Y-51749500D01*
X96952123Y-51749501D01*
X96892516Y-51755908D01*
X96757671Y-51806202D01*
X96757664Y-51806206D01*
X96642455Y-51892452D01*
X96642452Y-51892455D01*
X96556206Y-52007664D01*
X96556202Y-52007671D01*
X96505908Y-52142517D01*
X96499501Y-52202116D01*
X96499501Y-52202123D01*
X96499500Y-52202135D01*
X85500500Y-52202135D01*
X85500500Y-50624500D01*
X85520185Y-50557461D01*
X85572989Y-50511706D01*
X85624500Y-50500500D01*
X174375500Y-50500500D01*
X174442539Y-50520185D01*
G37*
G04 #@! TD.AperFunction*
M02*
