M48
; DRILL file {KiCad 9.0.6+1} date 2025-12-01T13:59:15+0000
; FORMAT={-:-/ absolute / inch / decimal}
; #@! TF.CreationDate,2025-12-01T13:59:15+00:00
; #@! TF.GenerationSoftware,Kicad,Pcbnew,9.0.6+1
; #@! TF.FileFunction,Plated,1,2,PTH
FMAT,2
INCH
; #@! TA.AperFunction,Plated,PTH,ViaDrill
T1C0.0197
; #@! TA.AperFunction,Plated,PTH,ComponentDrill
T2C0.0453
; #@! TA.AperFunction,Plated,PTH,ComponentDrill
T3C0.0551
; #@! TA.AperFunction,Plated,PTH,ComponentDrill
T4C0.1260
%
G90
G05
T1
X4.3307Y-2.126
X5.0984Y-2.126
X5.9055Y-2.126
T2
X3.5485Y-3.0453
X3.5485Y-3.2421
X3.7454Y-3.0453
X3.7454Y-3.2421
X4.3248Y-3.0656
X4.3248Y-3.2625
X4.5217Y-3.0656
X4.5217Y-3.2625
X5.8819Y-3.0315
X5.8819Y-3.2283
X6.0787Y-3.0315
X6.0787Y-3.2283
X6.4908Y-3.0571
X6.4908Y-3.2539
X6.6877Y-3.0571
X6.6877Y-3.2539
T3
X5.3954Y-3.0496
X5.3954Y-3.1496
X5.3954Y-3.2496
T4
X3.4843Y-2.1654
X3.4843Y-4.1339
X6.752Y-2.1654
X6.752Y-4.1339
M30
