%TF.GenerationSoftware,KiCad,Pcbnew,9.0.6+1*%
%TF.CreationDate,2025-12-02T12:13:41+00:00*%
%TF.ProjectId,pors485,706f7273-3438-4352-9e6b-696361645f70,0.1*%
%TF.SameCoordinates,Original*%
%TF.FileFunction,Copper,L2,Bot*%
%TF.FilePolarity,Positive*%
%FSLAX46Y46*%
G04 Gerber Fmt 4.6, Leading zero omitted, Abs format (unit mm)*
G04 Created by KiCad (PCBNEW 9.0.6+1) date 2025-12-02 12:13:41*
%MOMM*%
%LPD*%
G01*
G04 APERTURE LIST*
G04 Aperture macros list*
%AMRoundRect*
0 Rectangle with rounded corners*
0 $1 Rounding radius*
0 $2 $3 $4 $5 $6 $7 $8 $9 X,Y pos of 4 corners*
0 Add a 4 corners polygon primitive as box body*
4,1,4,$2,$3,$4,$5,$6,$7,$8,$9,$2,$3,0*
0 Add four circle primitives for the rounded corners*
1,1,$1+$1,$2,$3*
1,1,$1+$1,$4,$5*
1,1,$1+$1,$6,$7*
1,1,$1+$1,$8,$9*
0 Add four rect primitives between the rounded corners*
20,1,$1+$1,$2,$3,$4,$5,0*
20,1,$1+$1,$4,$5,$6,$7,0*
20,1,$1+$1,$6,$7,$8,$9,0*
20,1,$1+$1,$8,$9,$2,$3,0*%
G04 Aperture macros list end*
%TA.AperFunction,ComponentPad*%
%ADD10C,5.500000*%
%TD*%
%TA.AperFunction,ComponentPad*%
%ADD11RoundRect,0.250001X-1.249999X0.499999X-1.249999X-0.499999X1.249999X-0.499999X1.249999X0.499999X0*%
%TD*%
%TA.AperFunction,ComponentPad*%
%ADD12R,3.000000X1.500000*%
%TD*%
%TA.AperFunction,ComponentPad*%
%ADD13O,3.000000X1.500000*%
%TD*%
%TA.AperFunction,ComponentPad*%
%ADD14RoundRect,0.250001X0.499999X1.249999X-0.499999X1.249999X-0.499999X-1.249999X0.499999X-1.249999X0*%
%TD*%
%TA.AperFunction,ComponentPad*%
%ADD15R,1.500000X3.000000*%
%TD*%
%TA.AperFunction,ComponentPad*%
%ADD16O,1.500000X3.000000*%
%TD*%
%TA.AperFunction,ComponentPad*%
%ADD17RoundRect,0.250001X-0.499999X-1.249999X0.499999X-1.249999X0.499999X1.249999X-0.499999X1.249999X0*%
%TD*%
%TA.AperFunction,ComponentPad*%
%ADD18RoundRect,0.250001X1.249999X-0.499999X1.249999X0.499999X-1.249999X0.499999X-1.249999X-0.499999X0*%
%TD*%
%TA.AperFunction,ComponentPad*%
%ADD19RoundRect,0.250000X-0.750000X-0.750000X0.750000X-0.750000X0.750000X0.750000X-0.750000X0.750000X0*%
%TD*%
%TA.AperFunction,ComponentPad*%
%ADD20C,2.000000*%
%TD*%
%TA.AperFunction,ViaPad*%
%ADD21C,1.000000*%
%TD*%
%TA.AperFunction,Conductor*%
%ADD22C,1.000000*%
%TD*%
G04 APERTURE END LIST*
D10*
%TO.P,H104,1,1*%
%TO.N,GNDPWR*%
X171500000Y-55000000D03*
%TD*%
%TO.P,H103,1,1*%
%TO.N,GNDPWR*%
X171500000Y-105000000D03*
%TD*%
D11*
%TO.P,J102,1,Pin_1*%
%TO.N,/B*%
X95132500Y-77350000D03*
D12*
X90132500Y-77350000D03*
D13*
%TO.P,J102,2,Pin_2*%
%TO.N,/A*%
X95132500Y-82350000D03*
X90132500Y-82350000D03*
%TD*%
D10*
%TO.P,H102,1,1*%
%TO.N,GNDPWR*%
X88500000Y-105000000D03*
%TD*%
%TO.P,H101,1,1*%
%TO.N,GNDPWR*%
X88500000Y-55000000D03*
%TD*%
D14*
%TO.P,J104,1,Pin_1*%
%TO.N,GNDPWR*%
X154400000Y-82000000D03*
D15*
X154400000Y-77000000D03*
D16*
%TO.P,J104,2,Pin_2*%
%TO.N,+5V*%
X149400000Y-82000000D03*
X149400000Y-77000000D03*
%TD*%
D17*
%TO.P,J101,1,Pin_1*%
%TO.N,GNDPWR*%
X109850000Y-77867500D03*
D15*
X109850000Y-82867500D03*
D16*
%TO.P,J101,2,Pin_2*%
%TO.N,VBUS*%
X114850000Y-77867500D03*
X114850000Y-82867500D03*
%TD*%
D18*
%TO.P,J103,1,Pin_1*%
%TO.N,/Apwr*%
X164867500Y-82650000D03*
D12*
X169867500Y-82650000D03*
D13*
%TO.P,J103,2,Pin_2*%
%TO.N,/Bpwr*%
X164867500Y-77650000D03*
X169867500Y-77650000D03*
%TD*%
D19*
%TO.P,U101,1,Vin*%
%TO.N,Net-(U101-Vin)*%
X137042500Y-77460000D03*
D20*
%TO.P,U101,2,GND*%
%TO.N,GNDPWR*%
X137042500Y-80000000D03*
%TO.P,U101,3,Vout*%
%TO.N,+5V*%
X137042500Y-82540000D03*
%TD*%
D21*
%TO.N,VBUS*%
X150000000Y-54000000D03*
X110000000Y-54000000D03*
X129500000Y-54000000D03*
%TD*%
D22*
%TO.N,VBUS*%
X114850000Y-77867500D02*
X126132500Y-77867500D01*
X114850000Y-77867500D02*
X114850000Y-68650000D01*
X114850000Y-77867500D02*
X114850000Y-58850000D01*
X114850000Y-82867500D02*
X114850000Y-77867500D01*
X126132500Y-77867500D02*
X150000000Y-54000000D01*
X114850000Y-68650000D02*
X129500000Y-54000000D01*
X114850000Y-58850000D02*
X110000000Y-54000000D01*
%TD*%
%TA.AperFunction,Conductor*%
%TO.N,GNDPWR*%
G36*
X174442539Y-50520185D02*
G01*
X174488294Y-50572989D01*
X174499500Y-50624500D01*
X174499500Y-109375500D01*
X174479815Y-109442539D01*
X174427011Y-109488294D01*
X174375500Y-109499500D01*
X85624500Y-109499500D01*
X85557461Y-109479815D01*
X85511706Y-109427011D01*
X85500500Y-109375500D01*
X85500500Y-82251577D01*
X88132000Y-82251577D01*
X88132000Y-82448422D01*
X88162790Y-82642826D01*
X88223617Y-82830029D01*
X88312976Y-83005405D01*
X88428672Y-83164646D01*
X88567854Y-83303828D01*
X88727095Y-83419524D01*
X88782753Y-83447883D01*
X88902470Y-83508882D01*
X88902472Y-83508882D01*
X88902475Y-83508884D01*
X89002817Y-83541487D01*
X89089673Y-83569709D01*
X89284078Y-83600500D01*
X89284083Y-83600500D01*
X90980922Y-83600500D01*
X91175326Y-83569709D01*
X91190908Y-83564646D01*
X91362525Y-83508884D01*
X91537905Y-83419524D01*
X91697146Y-83303828D01*
X91836328Y-83164646D01*
X91952024Y-83005405D01*
X92041384Y-82830025D01*
X92102209Y-82642826D01*
X92133000Y-82448422D01*
X92133000Y-82251577D01*
X93132000Y-82251577D01*
X93132000Y-82448422D01*
X93162790Y-82642826D01*
X93223617Y-82830029D01*
X93312976Y-83005405D01*
X93428672Y-83164646D01*
X93567854Y-83303828D01*
X93727095Y-83419524D01*
X93782753Y-83447883D01*
X93902470Y-83508882D01*
X93902472Y-83508882D01*
X93902475Y-83508884D01*
X94002817Y-83541487D01*
X94089673Y-83569709D01*
X94284078Y-83600500D01*
X94284083Y-83600500D01*
X95980922Y-83600500D01*
X96175326Y-83569709D01*
X96190908Y-83564646D01*
X96362525Y-83508884D01*
X96537905Y-83419524D01*
X96697146Y-83303828D01*
X96836328Y-83164646D01*
X96952024Y-83005405D01*
X97041384Y-82830025D01*
X97102209Y-82642826D01*
X97133000Y-82448422D01*
X97133000Y-82251577D01*
X97102209Y-82057173D01*
X97041382Y-81869970D01*
X96994243Y-81777455D01*
X96952024Y-81694595D01*
X96836328Y-81535354D01*
X96697146Y-81396172D01*
X96537905Y-81280476D01*
X96362529Y-81191117D01*
X96175326Y-81130290D01*
X95980922Y-81099500D01*
X95980917Y-81099500D01*
X94284083Y-81099500D01*
X94284078Y-81099500D01*
X94089673Y-81130290D01*
X93902470Y-81191117D01*
X93727094Y-81280476D01*
X93663334Y-81326801D01*
X93567854Y-81396172D01*
X93567852Y-81396174D01*
X93567851Y-81396174D01*
X93428674Y-81535351D01*
X93428674Y-81535352D01*
X93428672Y-81535354D01*
X93378985Y-81603741D01*
X93312976Y-81694594D01*
X93223617Y-81869970D01*
X93162790Y-82057173D01*
X93132000Y-82251577D01*
X92133000Y-82251577D01*
X92102209Y-82057173D01*
X92041382Y-81869970D01*
X91994243Y-81777455D01*
X91952024Y-81694595D01*
X91836328Y-81535354D01*
X91697146Y-81396172D01*
X91537905Y-81280476D01*
X91362529Y-81191117D01*
X91175326Y-81130290D01*
X90980922Y-81099500D01*
X90980917Y-81099500D01*
X89284083Y-81099500D01*
X89284078Y-81099500D01*
X89089673Y-81130290D01*
X88902470Y-81191117D01*
X88727094Y-81280476D01*
X88663334Y-81326801D01*
X88567854Y-81396172D01*
X88567852Y-81396174D01*
X88567851Y-81396174D01*
X88428674Y-81535351D01*
X88428674Y-81535352D01*
X88428672Y-81535354D01*
X88378985Y-81603741D01*
X88312976Y-81694594D01*
X88223617Y-81869970D01*
X88162790Y-82057173D01*
X88132000Y-82251577D01*
X85500500Y-82251577D01*
X85500500Y-76552135D01*
X88132000Y-76552135D01*
X88132000Y-78147870D01*
X88132001Y-78147876D01*
X88138408Y-78207483D01*
X88188702Y-78342328D01*
X88188706Y-78342335D01*
X88274952Y-78457544D01*
X88274955Y-78457547D01*
X88390164Y-78543793D01*
X88390171Y-78543797D01*
X88525017Y-78594091D01*
X88525016Y-78594091D01*
X88531944Y-78594835D01*
X88584627Y-78600500D01*
X91680372Y-78600499D01*
X91739983Y-78594091D01*
X91874831Y-78543796D01*
X91990046Y-78457546D01*
X92076296Y-78342331D01*
X92126591Y-78207483D01*
X92133000Y-78147873D01*
X92132999Y-76799984D01*
X93132000Y-76799984D01*
X93132000Y-77900015D01*
X93142500Y-78002795D01*
X93142501Y-78002796D01*
X93197686Y-78169335D01*
X93197687Y-78169337D01*
X93289786Y-78318651D01*
X93289789Y-78318655D01*
X93413844Y-78442710D01*
X93413848Y-78442713D01*
X93563162Y-78534812D01*
X93563164Y-78534813D01*
X93563166Y-78534814D01*
X93729703Y-78589999D01*
X93832492Y-78600500D01*
X93832497Y-78600500D01*
X96432503Y-78600500D01*
X96432508Y-78600500D01*
X96535297Y-78589999D01*
X96701834Y-78534814D01*
X96851155Y-78442711D01*
X96975211Y-78318655D01*
X97067314Y-78169334D01*
X97122499Y-78002797D01*
X97133000Y-77900008D01*
X97133000Y-76799992D01*
X97122499Y-76697203D01*
X97067314Y-76530666D01*
X97043783Y-76492517D01*
X96975213Y-76381348D01*
X96975210Y-76381344D01*
X96851155Y-76257289D01*
X96851151Y-76257286D01*
X96701837Y-76165187D01*
X96701835Y-76165186D01*
X96618565Y-76137593D01*
X96535297Y-76110001D01*
X96535295Y-76110000D01*
X96432515Y-76099500D01*
X96432508Y-76099500D01*
X93832492Y-76099500D01*
X93832484Y-76099500D01*
X93729704Y-76110000D01*
X93729703Y-76110001D01*
X93563164Y-76165186D01*
X93563162Y-76165187D01*
X93413848Y-76257286D01*
X93413844Y-76257289D01*
X93289789Y-76381344D01*
X93289786Y-76381348D01*
X93197687Y-76530662D01*
X93197686Y-76530664D01*
X93142501Y-76697203D01*
X93142500Y-76697204D01*
X93132000Y-76799984D01*
X92132999Y-76799984D01*
X92132999Y-76552128D01*
X92126591Y-76492517D01*
X92126068Y-76491116D01*
X92076297Y-76357671D01*
X92076293Y-76357664D01*
X91990047Y-76242455D01*
X91990044Y-76242452D01*
X91874835Y-76156206D01*
X91874828Y-76156202D01*
X91739982Y-76105908D01*
X91739983Y-76105908D01*
X91680383Y-76099501D01*
X91680381Y-76099500D01*
X91680373Y-76099500D01*
X91680364Y-76099500D01*
X88584629Y-76099500D01*
X88584623Y-76099501D01*
X88525016Y-76105908D01*
X88390171Y-76156202D01*
X88390164Y-76156206D01*
X88274955Y-76242452D01*
X88274952Y-76242455D01*
X88188706Y-76357664D01*
X88188702Y-76357671D01*
X88138408Y-76492517D01*
X88134307Y-76530666D01*
X88132001Y-76552123D01*
X88132000Y-76552135D01*
X85500500Y-76552135D01*
X85500500Y-54098543D01*
X108999499Y-54098543D01*
X109037947Y-54291829D01*
X109037950Y-54291839D01*
X109113364Y-54473907D01*
X109113371Y-54473920D01*
X109222859Y-54637780D01*
X109222860Y-54637781D01*
X109222861Y-54637782D01*
X109362218Y-54777139D01*
X109362219Y-54777139D01*
X109369286Y-54784206D01*
X109369285Y-54784206D01*
X109369289Y-54784209D01*
X113813181Y-59228101D01*
X113846666Y-59289424D01*
X113849500Y-59315782D01*
X113849500Y-76326801D01*
X113829815Y-76393840D01*
X113825818Y-76399686D01*
X113780478Y-76462091D01*
X113691117Y-76637470D01*
X113630290Y-76824673D01*
X113599500Y-77019077D01*
X113599500Y-78715922D01*
X113630290Y-78910326D01*
X113691117Y-79097529D01*
X113774363Y-79260907D01*
X113780476Y-79272905D01*
X113825818Y-79335312D01*
X113849298Y-79401118D01*
X113849500Y-79408197D01*
X113849500Y-81326801D01*
X113829815Y-81393840D01*
X113825818Y-81399686D01*
X113780478Y-81462091D01*
X113691117Y-81637470D01*
X113630290Y-81824673D01*
X113599500Y-82019077D01*
X113599500Y-83715922D01*
X113630290Y-83910326D01*
X113691117Y-84097529D01*
X113780476Y-84272905D01*
X113896172Y-84432146D01*
X114035354Y-84571328D01*
X114194595Y-84687024D01*
X114277455Y-84729243D01*
X114369970Y-84776382D01*
X114369972Y-84776382D01*
X114369975Y-84776384D01*
X114470317Y-84808987D01*
X114557173Y-84837209D01*
X114751578Y-84868000D01*
X114751583Y-84868000D01*
X114948422Y-84868000D01*
X115142826Y-84837209D01*
X115330025Y-84776384D01*
X115505405Y-84687024D01*
X115664646Y-84571328D01*
X115803828Y-84432146D01*
X115919524Y-84272905D01*
X116008884Y-84097525D01*
X116069709Y-83910326D01*
X116072280Y-83894091D01*
X116100500Y-83715922D01*
X116100500Y-82421902D01*
X135542000Y-82421902D01*
X135542000Y-82658097D01*
X135578946Y-82891368D01*
X135651933Y-83115996D01*
X135747113Y-83302795D01*
X135759157Y-83326433D01*
X135897983Y-83517510D01*
X136064990Y-83684517D01*
X136256067Y-83823343D01*
X136355491Y-83874002D01*
X136466503Y-83930566D01*
X136466505Y-83930566D01*
X136466508Y-83930568D01*
X136586912Y-83969689D01*
X136691131Y-84003553D01*
X136924403Y-84040500D01*
X136924408Y-84040500D01*
X137160597Y-84040500D01*
X137393868Y-84003553D01*
X137403264Y-84000500D01*
X137618492Y-83930568D01*
X137828933Y-83823343D01*
X138020010Y-83684517D01*
X138187017Y-83517510D01*
X138325843Y-83326433D01*
X138433068Y-83115992D01*
X138506053Y-82891368D01*
X138515769Y-82830025D01*
X138543000Y-82658097D01*
X138543000Y-82421902D01*
X138506053Y-82188631D01*
X138472189Y-82084412D01*
X138433068Y-81964008D01*
X138433066Y-81964005D01*
X138433066Y-81964003D01*
X138325842Y-81753566D01*
X138282996Y-81694594D01*
X138187017Y-81562490D01*
X138020010Y-81395483D01*
X137828933Y-81256657D01*
X137828934Y-81256657D01*
X137828932Y-81256656D01*
X137622704Y-81151577D01*
X148149500Y-81151577D01*
X148149500Y-82848422D01*
X148180290Y-83042826D01*
X148241117Y-83230029D01*
X148278720Y-83303828D01*
X148330476Y-83405405D01*
X148446172Y-83564646D01*
X148585354Y-83703828D01*
X148744595Y-83819524D01*
X148774600Y-83834812D01*
X148919970Y-83908882D01*
X148919972Y-83908882D01*
X148919975Y-83908884D01*
X148986705Y-83930566D01*
X149107173Y-83969709D01*
X149301578Y-84000500D01*
X149301583Y-84000500D01*
X149498422Y-84000500D01*
X149692826Y-83969709D01*
X149880025Y-83908884D01*
X150055405Y-83819524D01*
X150214646Y-83703828D01*
X150353828Y-83564646D01*
X150469524Y-83405405D01*
X150558884Y-83230025D01*
X150619709Y-83042826D01*
X150625636Y-83005405D01*
X150650500Y-82848422D01*
X150650500Y-82099984D01*
X162867000Y-82099984D01*
X162867000Y-83200015D01*
X162877500Y-83302795D01*
X162877501Y-83302796D01*
X162932686Y-83469335D01*
X162932687Y-83469337D01*
X163024786Y-83618651D01*
X163024789Y-83618655D01*
X163148844Y-83742710D01*
X163148848Y-83742713D01*
X163298162Y-83834812D01*
X163298164Y-83834813D01*
X163298166Y-83834814D01*
X163464703Y-83889999D01*
X163567492Y-83900500D01*
X163567497Y-83900500D01*
X166167503Y-83900500D01*
X166167508Y-83900500D01*
X166270297Y-83889999D01*
X166436834Y-83834814D01*
X166586155Y-83742711D01*
X166710211Y-83618655D01*
X166802314Y-83469334D01*
X166857499Y-83302797D01*
X166868000Y-83200008D01*
X166868000Y-82099992D01*
X166857499Y-81997203D01*
X166809428Y-81852135D01*
X167867000Y-81852135D01*
X167867000Y-83447870D01*
X167867001Y-83447876D01*
X167873408Y-83507483D01*
X167923702Y-83642328D01*
X167923706Y-83642335D01*
X168009952Y-83757544D01*
X168009955Y-83757547D01*
X168125164Y-83843793D01*
X168125171Y-83843797D01*
X168260017Y-83894091D01*
X168260016Y-83894091D01*
X168266944Y-83894835D01*
X168319627Y-83900500D01*
X171415372Y-83900499D01*
X171474983Y-83894091D01*
X171609831Y-83843796D01*
X171725046Y-83757546D01*
X171811296Y-83642331D01*
X171861591Y-83507483D01*
X171868000Y-83447873D01*
X171867999Y-81852128D01*
X171861591Y-81792517D01*
X171847063Y-81753566D01*
X171811297Y-81657671D01*
X171811293Y-81657664D01*
X171725047Y-81542455D01*
X171725044Y-81542452D01*
X171609835Y-81456206D01*
X171609828Y-81456202D01*
X171474982Y-81405908D01*
X171474983Y-81405908D01*
X171415383Y-81399501D01*
X171415381Y-81399500D01*
X171415373Y-81399500D01*
X171415364Y-81399500D01*
X168319629Y-81399500D01*
X168319623Y-81399501D01*
X168260016Y-81405908D01*
X168125171Y-81456202D01*
X168125164Y-81456206D01*
X168009955Y-81542452D01*
X168009952Y-81542455D01*
X167923706Y-81657664D01*
X167923702Y-81657671D01*
X167873408Y-81792517D01*
X167869307Y-81830666D01*
X167867001Y-81852123D01*
X167867000Y-81852135D01*
X166809428Y-81852135D01*
X166802314Y-81830666D01*
X166798618Y-81824674D01*
X166710213Y-81681348D01*
X166710210Y-81681344D01*
X166586155Y-81557289D01*
X166586151Y-81557286D01*
X166436837Y-81465187D01*
X166436835Y-81465186D01*
X166353565Y-81437593D01*
X166270297Y-81410001D01*
X166270295Y-81410000D01*
X166167515Y-81399500D01*
X166167508Y-81399500D01*
X163567492Y-81399500D01*
X163567484Y-81399500D01*
X163464704Y-81410000D01*
X163464703Y-81410001D01*
X163298164Y-81465186D01*
X163298162Y-81465187D01*
X163148848Y-81557286D01*
X163148844Y-81557289D01*
X163024789Y-81681344D01*
X163024786Y-81681348D01*
X162932687Y-81830662D01*
X162932686Y-81830664D01*
X162877501Y-81997203D01*
X162877500Y-81997204D01*
X162867000Y-82099984D01*
X150650500Y-82099984D01*
X150650500Y-81151577D01*
X150619709Y-80957173D01*
X150558882Y-80769970D01*
X150469523Y-80594594D01*
X150353828Y-80435354D01*
X150214646Y-80296172D01*
X150055405Y-80180476D01*
X149880029Y-80091117D01*
X149692826Y-80030290D01*
X149498422Y-79999500D01*
X149498417Y-79999500D01*
X149301583Y-79999500D01*
X149301578Y-79999500D01*
X149107173Y-80030290D01*
X148919970Y-80091117D01*
X148744594Y-80180476D01*
X148653741Y-80246485D01*
X148585354Y-80296172D01*
X148585352Y-80296174D01*
X148585351Y-80296174D01*
X148446174Y-80435351D01*
X148446174Y-80435352D01*
X148446172Y-80435354D01*
X148396485Y-80503741D01*
X148330476Y-80594594D01*
X148241117Y-80769970D01*
X148180290Y-80957173D01*
X148149500Y-81151577D01*
X137622704Y-81151577D01*
X137618496Y-81149433D01*
X137393868Y-81076446D01*
X137160597Y-81039500D01*
X137160592Y-81039500D01*
X136924408Y-81039500D01*
X136924403Y-81039500D01*
X136691131Y-81076446D01*
X136466503Y-81149433D01*
X136256066Y-81256657D01*
X136159522Y-81326801D01*
X136064990Y-81395483D01*
X136064988Y-81395485D01*
X136064987Y-81395485D01*
X135897985Y-81562487D01*
X135897985Y-81562488D01*
X135897983Y-81562490D01*
X135843507Y-81637470D01*
X135759157Y-81753566D01*
X135651933Y-81964003D01*
X135578946Y-82188631D01*
X135542000Y-82421902D01*
X116100500Y-82421902D01*
X116100500Y-82019077D01*
X116069709Y-81824673D01*
X116041487Y-81737817D01*
X116008884Y-81637475D01*
X116008882Y-81637472D01*
X116008882Y-81637470D01*
X115960469Y-81542455D01*
X115919524Y-81462095D01*
X115915242Y-81456202D01*
X115874182Y-81399686D01*
X115850702Y-81333880D01*
X115850500Y-81326801D01*
X115850500Y-79408197D01*
X115870185Y-79341158D01*
X115874170Y-79335327D01*
X115919524Y-79272905D01*
X116008884Y-79097525D01*
X116055622Y-78953680D01*
X116095058Y-78896006D01*
X116159417Y-78868808D01*
X116173552Y-78868000D01*
X126231042Y-78868000D01*
X126262066Y-78861828D01*
X126327688Y-78848775D01*
X126424336Y-78829551D01*
X126477665Y-78807461D01*
X126606414Y-78754132D01*
X126770282Y-78644639D01*
X126909639Y-78505282D01*
X126909640Y-78505279D01*
X126916706Y-78498214D01*
X126916709Y-78498210D01*
X128754936Y-76659983D01*
X135542000Y-76659983D01*
X135542000Y-78260001D01*
X135542001Y-78260018D01*
X135552500Y-78362796D01*
X135552501Y-78362799D01*
X135583898Y-78457547D01*
X135607686Y-78529334D01*
X135699788Y-78678656D01*
X135823844Y-78802712D01*
X135973166Y-78894814D01*
X136139703Y-78949999D01*
X136242491Y-78960500D01*
X137842508Y-78960499D01*
X137945297Y-78949999D01*
X138111834Y-78894814D01*
X138261156Y-78802712D01*
X138385212Y-78678656D01*
X138477314Y-78529334D01*
X138532499Y-78362797D01*
X138543000Y-78260009D01*
X138542999Y-76659992D01*
X138532499Y-76557203D01*
X138477314Y-76390666D01*
X138385212Y-76241344D01*
X138295445Y-76151577D01*
X148149500Y-76151577D01*
X148149500Y-77848422D01*
X148180290Y-78042826D01*
X148241117Y-78230029D01*
X148298338Y-78342331D01*
X148330476Y-78405405D01*
X148446172Y-78564646D01*
X148585354Y-78703828D01*
X148744595Y-78819524D01*
X148827455Y-78861743D01*
X148919970Y-78908882D01*
X148919972Y-78908882D01*
X148919975Y-78908884D01*
X149020317Y-78941487D01*
X149107173Y-78969709D01*
X149301578Y-79000500D01*
X149301583Y-79000500D01*
X149498422Y-79000500D01*
X149692826Y-78969709D01*
X149721174Y-78960498D01*
X149880025Y-78908884D01*
X150055405Y-78819524D01*
X150214646Y-78703828D01*
X150353828Y-78564646D01*
X150469524Y-78405405D01*
X150558884Y-78230025D01*
X150619709Y-78042826D01*
X150626049Y-78002795D01*
X150650500Y-77848422D01*
X150650500Y-77551577D01*
X162867000Y-77551577D01*
X162867000Y-77748422D01*
X162897790Y-77942826D01*
X162958617Y-78130029D01*
X163024849Y-78260016D01*
X163047976Y-78305405D01*
X163163672Y-78464646D01*
X163302854Y-78603828D01*
X163462095Y-78719524D01*
X163544955Y-78761743D01*
X163637470Y-78808882D01*
X163637472Y-78808882D01*
X163637475Y-78808884D01*
X163737817Y-78841487D01*
X163824673Y-78869709D01*
X164019078Y-78900500D01*
X164019083Y-78900500D01*
X165715922Y-78900500D01*
X165910326Y-78869709D01*
X165971916Y-78849697D01*
X166097525Y-78808884D01*
X166272905Y-78719524D01*
X166432146Y-78603828D01*
X166571328Y-78464646D01*
X166687024Y-78305405D01*
X166776384Y-78130025D01*
X166837209Y-77942826D01*
X166852162Y-77848417D01*
X166868000Y-77748422D01*
X166868000Y-77551577D01*
X167867000Y-77551577D01*
X167867000Y-77748422D01*
X167897790Y-77942826D01*
X167958617Y-78130029D01*
X168024849Y-78260016D01*
X168047976Y-78305405D01*
X168163672Y-78464646D01*
X168302854Y-78603828D01*
X168462095Y-78719524D01*
X168544955Y-78761743D01*
X168637470Y-78808882D01*
X168637472Y-78808882D01*
X168637475Y-78808884D01*
X168737817Y-78841487D01*
X168824673Y-78869709D01*
X169019078Y-78900500D01*
X169019083Y-78900500D01*
X170715922Y-78900500D01*
X170910326Y-78869709D01*
X170971916Y-78849697D01*
X171097525Y-78808884D01*
X171272905Y-78719524D01*
X171432146Y-78603828D01*
X171571328Y-78464646D01*
X171687024Y-78305405D01*
X171776384Y-78130025D01*
X171837209Y-77942826D01*
X171852162Y-77848417D01*
X171868000Y-77748422D01*
X171868000Y-77551577D01*
X171837209Y-77357173D01*
X171776382Y-77169970D01*
X171687023Y-76994594D01*
X171571328Y-76835354D01*
X171432146Y-76696172D01*
X171272905Y-76580476D01*
X171227229Y-76557203D01*
X171097529Y-76491117D01*
X170910326Y-76430290D01*
X170715922Y-76399500D01*
X170715917Y-76399500D01*
X169019083Y-76399500D01*
X169019078Y-76399500D01*
X168824673Y-76430290D01*
X168637470Y-76491117D01*
X168462094Y-76580476D01*
X168383650Y-76637470D01*
X168302854Y-76696172D01*
X168302852Y-76696174D01*
X168302851Y-76696174D01*
X168163674Y-76835351D01*
X168163674Y-76835352D01*
X168163672Y-76835354D01*
X168154982Y-76847315D01*
X168047976Y-76994594D01*
X167958617Y-77169970D01*
X167897790Y-77357173D01*
X167867000Y-77551577D01*
X166868000Y-77551577D01*
X166837209Y-77357173D01*
X166776382Y-77169970D01*
X166687023Y-76994594D01*
X166571328Y-76835354D01*
X166432146Y-76696172D01*
X166272905Y-76580476D01*
X166227229Y-76557203D01*
X166097529Y-76491117D01*
X165910326Y-76430290D01*
X165715922Y-76399500D01*
X165715917Y-76399500D01*
X164019083Y-76399500D01*
X164019078Y-76399500D01*
X163824673Y-76430290D01*
X163637470Y-76491117D01*
X163462094Y-76580476D01*
X163383650Y-76637470D01*
X163302854Y-76696172D01*
X163302852Y-76696174D01*
X163302851Y-76696174D01*
X163163674Y-76835351D01*
X163163674Y-76835352D01*
X163163672Y-76835354D01*
X163154982Y-76847315D01*
X163047976Y-76994594D01*
X162958617Y-77169970D01*
X162897790Y-77357173D01*
X162867000Y-77551577D01*
X150650500Y-77551577D01*
X150650500Y-76151577D01*
X150619709Y-75957173D01*
X150558882Y-75769970D01*
X150469523Y-75594594D01*
X150353828Y-75435354D01*
X150214646Y-75296172D01*
X150055405Y-75180476D01*
X149880029Y-75091117D01*
X149692826Y-75030290D01*
X149498422Y-74999500D01*
X149498417Y-74999500D01*
X149301583Y-74999500D01*
X149301578Y-74999500D01*
X149107173Y-75030290D01*
X148919970Y-75091117D01*
X148744594Y-75180476D01*
X148653741Y-75246485D01*
X148585354Y-75296172D01*
X148585352Y-75296174D01*
X148585351Y-75296174D01*
X148446174Y-75435351D01*
X148446174Y-75435352D01*
X148446172Y-75435354D01*
X148396485Y-75503741D01*
X148330476Y-75594594D01*
X148241117Y-75769970D01*
X148180290Y-75957173D01*
X148149500Y-76151577D01*
X138295445Y-76151577D01*
X138261156Y-76117288D01*
X138111834Y-76025186D01*
X137945297Y-75970001D01*
X137945295Y-75970000D01*
X137842510Y-75959500D01*
X136242498Y-75959500D01*
X136242481Y-75959501D01*
X136139703Y-75970000D01*
X136139700Y-75970001D01*
X135973168Y-76025185D01*
X135973163Y-76025187D01*
X135823842Y-76117289D01*
X135699789Y-76241342D01*
X135607687Y-76390663D01*
X135607685Y-76390668D01*
X135584018Y-76462091D01*
X135552501Y-76557203D01*
X135552501Y-76557204D01*
X135552500Y-76557204D01*
X135542000Y-76659983D01*
X128754936Y-76659983D01*
X150637778Y-54777141D01*
X150637782Y-54777139D01*
X150777139Y-54637782D01*
X150886632Y-54473914D01*
X150962051Y-54291835D01*
X150974632Y-54228582D01*
X151000500Y-54098543D01*
X151000500Y-53901456D01*
X150962052Y-53708170D01*
X150962051Y-53708169D01*
X150962051Y-53708165D01*
X150962049Y-53708160D01*
X150886635Y-53526092D01*
X150886628Y-53526079D01*
X150777139Y-53362218D01*
X150777136Y-53362214D01*
X150637785Y-53222863D01*
X150637781Y-53222860D01*
X150473920Y-53113371D01*
X150473911Y-53113366D01*
X150401315Y-53083296D01*
X150345165Y-53060038D01*
X150291836Y-53037949D01*
X150291832Y-53037948D01*
X150291828Y-53037946D01*
X150195188Y-53018724D01*
X150098544Y-52999500D01*
X150098541Y-52999500D01*
X149901459Y-52999500D01*
X149901455Y-52999500D01*
X149804812Y-53018724D01*
X149708167Y-53037947D01*
X149708161Y-53037949D01*
X149654834Y-53060037D01*
X149654834Y-53060038D01*
X149609315Y-53078892D01*
X149526089Y-53113366D01*
X149526079Y-53113371D01*
X149362219Y-53222859D01*
X149292540Y-53292538D01*
X149222861Y-53362218D01*
X149222858Y-53362221D01*
X125754399Y-76830681D01*
X125693076Y-76864166D01*
X125666718Y-76867000D01*
X116173552Y-76867000D01*
X116106513Y-76847315D01*
X116060758Y-76794511D01*
X116055625Y-76781328D01*
X116008884Y-76637475D01*
X115919524Y-76462095D01*
X115896417Y-76430291D01*
X115874182Y-76399686D01*
X115850702Y-76333880D01*
X115850500Y-76326801D01*
X115850500Y-69115782D01*
X115870185Y-69048743D01*
X115886819Y-69028101D01*
X130277137Y-54637784D01*
X130277139Y-54637782D01*
X130277140Y-54637781D01*
X130386632Y-54473914D01*
X130462052Y-54291835D01*
X130500500Y-54098540D01*
X130500500Y-53901460D01*
X130462052Y-53708164D01*
X130386632Y-53526086D01*
X130386627Y-53526079D01*
X130277140Y-53362218D01*
X130277135Y-53362212D01*
X130137787Y-53222864D01*
X130137780Y-53222858D01*
X129973915Y-53113368D01*
X129791836Y-53037948D01*
X129791826Y-53037946D01*
X129626046Y-53004971D01*
X129598541Y-52999500D01*
X129401459Y-52999500D01*
X129401454Y-52999500D01*
X129369391Y-53005876D01*
X129369392Y-53005877D01*
X129208170Y-53037946D01*
X129208164Y-53037948D01*
X129026088Y-53113366D01*
X129026079Y-53113371D01*
X128862219Y-53222859D01*
X128862215Y-53222862D01*
X116062181Y-66022897D01*
X116000858Y-66056382D01*
X115931166Y-66051398D01*
X115875233Y-66009526D01*
X115850816Y-65944062D01*
X115850500Y-65935216D01*
X115850500Y-58751456D01*
X115812052Y-58558170D01*
X115812051Y-58558169D01*
X115812051Y-58558165D01*
X115812049Y-58558160D01*
X115736635Y-58376092D01*
X115736628Y-58376079D01*
X115627140Y-58212219D01*
X115627139Y-58212218D01*
X115487782Y-58072861D01*
X115487781Y-58072860D01*
X110784208Y-53369288D01*
X110784206Y-53369285D01*
X110784206Y-53369286D01*
X110777139Y-53362219D01*
X110777139Y-53362218D01*
X110637782Y-53222861D01*
X110637781Y-53222860D01*
X110637780Y-53222859D01*
X110473920Y-53113371D01*
X110473911Y-53113366D01*
X110401315Y-53083296D01*
X110345165Y-53060038D01*
X110291836Y-53037949D01*
X110291832Y-53037948D01*
X110291828Y-53037946D01*
X110195188Y-53018724D01*
X110098544Y-52999500D01*
X110098541Y-52999500D01*
X109901459Y-52999500D01*
X109901455Y-52999500D01*
X109804812Y-53018724D01*
X109708167Y-53037947D01*
X109708161Y-53037949D01*
X109654834Y-53060037D01*
X109654834Y-53060038D01*
X109609315Y-53078892D01*
X109526089Y-53113366D01*
X109526079Y-53113371D01*
X109362218Y-53222860D01*
X109362214Y-53222863D01*
X109222863Y-53362214D01*
X109222860Y-53362218D01*
X109113371Y-53526079D01*
X109113364Y-53526092D01*
X109037950Y-53708160D01*
X109037947Y-53708170D01*
X108999500Y-53901456D01*
X108999500Y-53901459D01*
X108999500Y-54098541D01*
X108999500Y-54098543D01*
X108999499Y-54098543D01*
X85500500Y-54098543D01*
X85500500Y-50624500D01*
X85520185Y-50557461D01*
X85572989Y-50511706D01*
X85624500Y-50500500D01*
X174375500Y-50500500D01*
X174442539Y-50520185D01*
G37*
%TD.AperFunction*%
%TD*%
M02*
