%TF.GenerationSoftware,KiCad,Pcbnew,9.0.6+1*%
%TF.CreationDate,2025-12-01T13:59:15+00:00*%
%TF.ProjectId,pors485,706f7273-3438-4352-9e6b-696361645f70,0.1*%
%TF.SameCoordinates,Original*%
%TF.FileFunction,AssemblyDrawing,Top*%
%FSLAX46Y46*%
G04 Gerber Fmt 4.6, Leading zero omitted, Abs format (unit mm)*
G04 Created by KiCad (PCBNEW 9.0.6+1) date 2025-12-01 13:59:15*
%MOMM*%
%LPD*%
G01*
G04 APERTURE LIST*
%ADD10C,0.150000*%
%ADD11C,0.120000*%
%ADD12C,0.080000*%
%ADD13C,0.100000*%
G04 APERTURE END LIST*
D10*
X171238095Y-58773866D02*
X171285714Y-58726247D01*
X171285714Y-58726247D02*
X171380952Y-58678628D01*
X171380952Y-58678628D02*
X171571428Y-58773866D01*
X171571428Y-58773866D02*
X171666666Y-58726247D01*
X171666666Y-58726247D02*
X171714285Y-58678628D01*
X169785714Y-55454819D02*
X169785714Y-54454819D01*
X169785714Y-54931009D02*
X170357142Y-54931009D01*
X170357142Y-55454819D02*
X170357142Y-54454819D01*
X171357142Y-55454819D02*
X170785714Y-55454819D01*
X171071428Y-55454819D02*
X171071428Y-54454819D01*
X171071428Y-54454819D02*
X170976190Y-54597676D01*
X170976190Y-54597676D02*
X170880952Y-54692914D01*
X170880952Y-54692914D02*
X170785714Y-54740533D01*
X171976190Y-54454819D02*
X172071428Y-54454819D01*
X172071428Y-54454819D02*
X172166666Y-54502438D01*
X172166666Y-54502438D02*
X172214285Y-54550057D01*
X172214285Y-54550057D02*
X172261904Y-54645295D01*
X172261904Y-54645295D02*
X172309523Y-54835771D01*
X172309523Y-54835771D02*
X172309523Y-55073866D01*
X172309523Y-55073866D02*
X172261904Y-55264342D01*
X172261904Y-55264342D02*
X172214285Y-55359580D01*
X172214285Y-55359580D02*
X172166666Y-55407200D01*
X172166666Y-55407200D02*
X172071428Y-55454819D01*
X172071428Y-55454819D02*
X171976190Y-55454819D01*
X171976190Y-55454819D02*
X171880952Y-55407200D01*
X171880952Y-55407200D02*
X171833333Y-55359580D01*
X171833333Y-55359580D02*
X171785714Y-55264342D01*
X171785714Y-55264342D02*
X171738095Y-55073866D01*
X171738095Y-55073866D02*
X171738095Y-54835771D01*
X171738095Y-54835771D02*
X171785714Y-54645295D01*
X171785714Y-54645295D02*
X171833333Y-54550057D01*
X171833333Y-54550057D02*
X171880952Y-54502438D01*
X171880952Y-54502438D02*
X171976190Y-54454819D01*
X173166666Y-54788152D02*
X173166666Y-55454819D01*
X172928571Y-54407200D02*
X172690476Y-55121485D01*
X172690476Y-55121485D02*
X173309523Y-55121485D01*
X90788152Y-100952380D02*
X91454819Y-100952380D01*
X90407200Y-101190475D02*
X91121485Y-101428570D01*
X91121485Y-101428570D02*
X91121485Y-100809523D01*
X91454819Y-100428570D02*
X90788152Y-100428570D01*
X90883390Y-100428570D02*
X90835771Y-100380951D01*
X90835771Y-100380951D02*
X90788152Y-100285713D01*
X90788152Y-100285713D02*
X90788152Y-100142856D01*
X90788152Y-100142856D02*
X90835771Y-100047618D01*
X90835771Y-100047618D02*
X90931009Y-99999999D01*
X90931009Y-99999999D02*
X91454819Y-99999999D01*
X90931009Y-99999999D02*
X90835771Y-99952380D01*
X90835771Y-99952380D02*
X90788152Y-99857142D01*
X90788152Y-99857142D02*
X90788152Y-99714285D01*
X90788152Y-99714285D02*
X90835771Y-99619046D01*
X90835771Y-99619046D02*
X90931009Y-99571427D01*
X90931009Y-99571427D02*
X91454819Y-99571427D01*
X90454819Y-99190475D02*
X90454819Y-98523809D01*
X90454819Y-98523809D02*
X91454819Y-98952380D01*
X100454819Y-101119047D02*
X100454819Y-101595237D01*
X100454819Y-101595237D02*
X99454819Y-101595237D01*
X100454819Y-100261904D02*
X100454819Y-100833332D01*
X100454819Y-100547618D02*
X99454819Y-100547618D01*
X99454819Y-100547618D02*
X99597676Y-100642856D01*
X99597676Y-100642856D02*
X99692914Y-100738094D01*
X99692914Y-100738094D02*
X99740533Y-100833332D01*
X99454819Y-99642856D02*
X99454819Y-99547618D01*
X99454819Y-99547618D02*
X99502438Y-99452380D01*
X99502438Y-99452380D02*
X99550057Y-99404761D01*
X99550057Y-99404761D02*
X99645295Y-99357142D01*
X99645295Y-99357142D02*
X99835771Y-99309523D01*
X99835771Y-99309523D02*
X100073866Y-99309523D01*
X100073866Y-99309523D02*
X100264342Y-99357142D01*
X100264342Y-99357142D02*
X100359580Y-99404761D01*
X100359580Y-99404761D02*
X100407200Y-99452380D01*
X100407200Y-99452380D02*
X100454819Y-99547618D01*
X100454819Y-99547618D02*
X100454819Y-99642856D01*
X100454819Y-99642856D02*
X100407200Y-99738094D01*
X100407200Y-99738094D02*
X100359580Y-99785713D01*
X100359580Y-99785713D02*
X100264342Y-99833332D01*
X100264342Y-99833332D02*
X100073866Y-99880951D01*
X100073866Y-99880951D02*
X99835771Y-99880951D01*
X99835771Y-99880951D02*
X99645295Y-99833332D01*
X99645295Y-99833332D02*
X99550057Y-99785713D01*
X99550057Y-99785713D02*
X99502438Y-99738094D01*
X99502438Y-99738094D02*
X99454819Y-99642856D01*
X99454819Y-98404761D02*
X99454819Y-98880951D01*
X99454819Y-98880951D02*
X99931009Y-98928570D01*
X99931009Y-98928570D02*
X99883390Y-98880951D01*
X99883390Y-98880951D02*
X99835771Y-98785713D01*
X99835771Y-98785713D02*
X99835771Y-98547618D01*
X99835771Y-98547618D02*
X99883390Y-98452380D01*
X99883390Y-98452380D02*
X99931009Y-98404761D01*
X99931009Y-98404761D02*
X100026247Y-98357142D01*
X100026247Y-98357142D02*
X100264342Y-98357142D01*
X100264342Y-98357142D02*
X100359580Y-98404761D01*
X100359580Y-98404761D02*
X100407200Y-98452380D01*
X100407200Y-98452380D02*
X100454819Y-98547618D01*
X100454819Y-98547618D02*
X100454819Y-98785713D01*
X100454819Y-98785713D02*
X100407200Y-98880951D01*
X100407200Y-98880951D02*
X100359580Y-98928570D01*
X130788152Y-60952380D02*
X131454819Y-60952380D01*
X130407200Y-61190475D02*
X131121485Y-61428570D01*
X131121485Y-61428570D02*
X131121485Y-60809523D01*
X131454819Y-60428570D02*
X130788152Y-60428570D01*
X130883390Y-60428570D02*
X130835771Y-60380951D01*
X130835771Y-60380951D02*
X130788152Y-60285713D01*
X130788152Y-60285713D02*
X130788152Y-60142856D01*
X130788152Y-60142856D02*
X130835771Y-60047618D01*
X130835771Y-60047618D02*
X130931009Y-59999999D01*
X130931009Y-59999999D02*
X131454819Y-59999999D01*
X130931009Y-59999999D02*
X130835771Y-59952380D01*
X130835771Y-59952380D02*
X130788152Y-59857142D01*
X130788152Y-59857142D02*
X130788152Y-59714285D01*
X130788152Y-59714285D02*
X130835771Y-59619046D01*
X130835771Y-59619046D02*
X130931009Y-59571427D01*
X130931009Y-59571427D02*
X131454819Y-59571427D01*
X130454819Y-59190475D02*
X130454819Y-58523809D01*
X130454819Y-58523809D02*
X131454819Y-58952380D01*
X140454819Y-61119047D02*
X140454819Y-61595237D01*
X140454819Y-61595237D02*
X139454819Y-61595237D01*
X140454819Y-60261904D02*
X140454819Y-60833332D01*
X140454819Y-60547618D02*
X139454819Y-60547618D01*
X139454819Y-60547618D02*
X139597676Y-60642856D01*
X139597676Y-60642856D02*
X139692914Y-60738094D01*
X139692914Y-60738094D02*
X139740533Y-60833332D01*
X139454819Y-59642856D02*
X139454819Y-59547618D01*
X139454819Y-59547618D02*
X139502438Y-59452380D01*
X139502438Y-59452380D02*
X139550057Y-59404761D01*
X139550057Y-59404761D02*
X139645295Y-59357142D01*
X139645295Y-59357142D02*
X139835771Y-59309523D01*
X139835771Y-59309523D02*
X140073866Y-59309523D01*
X140073866Y-59309523D02*
X140264342Y-59357142D01*
X140264342Y-59357142D02*
X140359580Y-59404761D01*
X140359580Y-59404761D02*
X140407200Y-59452380D01*
X140407200Y-59452380D02*
X140454819Y-59547618D01*
X140454819Y-59547618D02*
X140454819Y-59642856D01*
X140454819Y-59642856D02*
X140407200Y-59738094D01*
X140407200Y-59738094D02*
X140359580Y-59785713D01*
X140359580Y-59785713D02*
X140264342Y-59833332D01*
X140264342Y-59833332D02*
X140073866Y-59880951D01*
X140073866Y-59880951D02*
X139835771Y-59880951D01*
X139835771Y-59880951D02*
X139645295Y-59833332D01*
X139645295Y-59833332D02*
X139550057Y-59785713D01*
X139550057Y-59785713D02*
X139502438Y-59738094D01*
X139502438Y-59738094D02*
X139454819Y-59642856D01*
X139454819Y-58976189D02*
X139454819Y-58357142D01*
X139454819Y-58357142D02*
X139835771Y-58690475D01*
X139835771Y-58690475D02*
X139835771Y-58547618D01*
X139835771Y-58547618D02*
X139883390Y-58452380D01*
X139883390Y-58452380D02*
X139931009Y-58404761D01*
X139931009Y-58404761D02*
X140026247Y-58357142D01*
X140026247Y-58357142D02*
X140264342Y-58357142D01*
X140264342Y-58357142D02*
X140359580Y-58404761D01*
X140359580Y-58404761D02*
X140407200Y-58452380D01*
X140407200Y-58452380D02*
X140454819Y-58547618D01*
X140454819Y-58547618D02*
X140454819Y-58833332D01*
X140454819Y-58833332D02*
X140407200Y-58928570D01*
X140407200Y-58928570D02*
X140359580Y-58976189D01*
X123690476Y-84638152D02*
X123690476Y-85304819D01*
X123452381Y-84257200D02*
X123214286Y-84971485D01*
X123214286Y-84971485D02*
X123833333Y-84971485D01*
X124214286Y-84638152D02*
X124214286Y-85638152D01*
X124690476Y-85161961D02*
X124738095Y-85257200D01*
X124738095Y-85257200D02*
X124833333Y-85304819D01*
X124214286Y-85161961D02*
X124261905Y-85257200D01*
X124261905Y-85257200D02*
X124357143Y-85304819D01*
X124357143Y-85304819D02*
X124547619Y-85304819D01*
X124547619Y-85304819D02*
X124642857Y-85257200D01*
X124642857Y-85257200D02*
X124690476Y-85161961D01*
X124690476Y-85161961D02*
X124690476Y-84638152D01*
X125166667Y-84304819D02*
X125833333Y-84304819D01*
X125833333Y-84304819D02*
X125404762Y-85304819D01*
D11*
X123604762Y-83287664D02*
X123566666Y-83325760D01*
X123566666Y-83325760D02*
X123452381Y-83363855D01*
X123452381Y-83363855D02*
X123376190Y-83363855D01*
X123376190Y-83363855D02*
X123261904Y-83325760D01*
X123261904Y-83325760D02*
X123185714Y-83249569D01*
X123185714Y-83249569D02*
X123147619Y-83173379D01*
X123147619Y-83173379D02*
X123109523Y-83020998D01*
X123109523Y-83020998D02*
X123109523Y-82906712D01*
X123109523Y-82906712D02*
X123147619Y-82754331D01*
X123147619Y-82754331D02*
X123185714Y-82678140D01*
X123185714Y-82678140D02*
X123261904Y-82601950D01*
X123261904Y-82601950D02*
X123376190Y-82563855D01*
X123376190Y-82563855D02*
X123452381Y-82563855D01*
X123452381Y-82563855D02*
X123566666Y-82601950D01*
X123566666Y-82601950D02*
X123604762Y-82640045D01*
X124366666Y-83363855D02*
X123909523Y-83363855D01*
X124138095Y-83363855D02*
X124138095Y-82563855D01*
X124138095Y-82563855D02*
X124061904Y-82678140D01*
X124061904Y-82678140D02*
X123985714Y-82754331D01*
X123985714Y-82754331D02*
X123909523Y-82792426D01*
X124861905Y-82563855D02*
X124938095Y-82563855D01*
X124938095Y-82563855D02*
X125014286Y-82601950D01*
X125014286Y-82601950D02*
X125052381Y-82640045D01*
X125052381Y-82640045D02*
X125090476Y-82716236D01*
X125090476Y-82716236D02*
X125128571Y-82868617D01*
X125128571Y-82868617D02*
X125128571Y-83059093D01*
X125128571Y-83059093D02*
X125090476Y-83211474D01*
X125090476Y-83211474D02*
X125052381Y-83287664D01*
X125052381Y-83287664D02*
X125014286Y-83325760D01*
X125014286Y-83325760D02*
X124938095Y-83363855D01*
X124938095Y-83363855D02*
X124861905Y-83363855D01*
X124861905Y-83363855D02*
X124785714Y-83325760D01*
X124785714Y-83325760D02*
X124747619Y-83287664D01*
X124747619Y-83287664D02*
X124709524Y-83211474D01*
X124709524Y-83211474D02*
X124671428Y-83059093D01*
X124671428Y-83059093D02*
X124671428Y-82868617D01*
X124671428Y-82868617D02*
X124709524Y-82716236D01*
X124709524Y-82716236D02*
X124747619Y-82640045D01*
X124747619Y-82640045D02*
X124785714Y-82601950D01*
X124785714Y-82601950D02*
X124861905Y-82563855D01*
X125395238Y-82563855D02*
X125890476Y-82563855D01*
X125890476Y-82563855D02*
X125623810Y-82868617D01*
X125623810Y-82868617D02*
X125738095Y-82868617D01*
X125738095Y-82868617D02*
X125814286Y-82906712D01*
X125814286Y-82906712D02*
X125852381Y-82944807D01*
X125852381Y-82944807D02*
X125890476Y-83020998D01*
X125890476Y-83020998D02*
X125890476Y-83211474D01*
X125890476Y-83211474D02*
X125852381Y-83287664D01*
X125852381Y-83287664D02*
X125814286Y-83325760D01*
X125814286Y-83325760D02*
X125738095Y-83363855D01*
X125738095Y-83363855D02*
X125509524Y-83363855D01*
X125509524Y-83363855D02*
X125433333Y-83325760D01*
X125433333Y-83325760D02*
X125395238Y-83287664D01*
D10*
X90788152Y-60952380D02*
X91454819Y-60952380D01*
X90407200Y-61190475D02*
X91121485Y-61428570D01*
X91121485Y-61428570D02*
X91121485Y-60809523D01*
X91454819Y-60428570D02*
X90788152Y-60428570D01*
X90883390Y-60428570D02*
X90835771Y-60380951D01*
X90835771Y-60380951D02*
X90788152Y-60285713D01*
X90788152Y-60285713D02*
X90788152Y-60142856D01*
X90788152Y-60142856D02*
X90835771Y-60047618D01*
X90835771Y-60047618D02*
X90931009Y-59999999D01*
X90931009Y-59999999D02*
X91454819Y-59999999D01*
X90931009Y-59999999D02*
X90835771Y-59952380D01*
X90835771Y-59952380D02*
X90788152Y-59857142D01*
X90788152Y-59857142D02*
X90788152Y-59714285D01*
X90788152Y-59714285D02*
X90835771Y-59619046D01*
X90835771Y-59619046D02*
X90931009Y-59571427D01*
X90931009Y-59571427D02*
X91454819Y-59571427D01*
X90454819Y-59190475D02*
X90454819Y-58523809D01*
X90454819Y-58523809D02*
X91454819Y-58952380D01*
X100454819Y-61119047D02*
X100454819Y-61595237D01*
X100454819Y-61595237D02*
X99454819Y-61595237D01*
X100454819Y-60261904D02*
X100454819Y-60833332D01*
X100454819Y-60547618D02*
X99454819Y-60547618D01*
X99454819Y-60547618D02*
X99597676Y-60642856D01*
X99597676Y-60642856D02*
X99692914Y-60738094D01*
X99692914Y-60738094D02*
X99740533Y-60833332D01*
X99454819Y-59642856D02*
X99454819Y-59547618D01*
X99454819Y-59547618D02*
X99502438Y-59452380D01*
X99502438Y-59452380D02*
X99550057Y-59404761D01*
X99550057Y-59404761D02*
X99645295Y-59357142D01*
X99645295Y-59357142D02*
X99835771Y-59309523D01*
X99835771Y-59309523D02*
X100073866Y-59309523D01*
X100073866Y-59309523D02*
X100264342Y-59357142D01*
X100264342Y-59357142D02*
X100359580Y-59404761D01*
X100359580Y-59404761D02*
X100407200Y-59452380D01*
X100407200Y-59452380D02*
X100454819Y-59547618D01*
X100454819Y-59547618D02*
X100454819Y-59642856D01*
X100454819Y-59642856D02*
X100407200Y-59738094D01*
X100407200Y-59738094D02*
X100359580Y-59785713D01*
X100359580Y-59785713D02*
X100264342Y-59833332D01*
X100264342Y-59833332D02*
X100073866Y-59880951D01*
X100073866Y-59880951D02*
X99835771Y-59880951D01*
X99835771Y-59880951D02*
X99645295Y-59833332D01*
X99645295Y-59833332D02*
X99550057Y-59785713D01*
X99550057Y-59785713D02*
X99502438Y-59738094D01*
X99502438Y-59738094D02*
X99454819Y-59642856D01*
X100454819Y-58357142D02*
X100454819Y-58928570D01*
X100454819Y-58642856D02*
X99454819Y-58642856D01*
X99454819Y-58642856D02*
X99597676Y-58738094D01*
X99597676Y-58738094D02*
X99692914Y-58833332D01*
X99692914Y-58833332D02*
X99740533Y-58928570D01*
X144634819Y-84214285D02*
X144634819Y-84785713D01*
X144634819Y-84499999D02*
X143634819Y-84499999D01*
X143634819Y-84499999D02*
X143777676Y-84595237D01*
X143777676Y-84595237D02*
X143872914Y-84690475D01*
X143872914Y-84690475D02*
X143920533Y-84785713D01*
X143634819Y-83595237D02*
X143634819Y-83499999D01*
X143634819Y-83499999D02*
X143682438Y-83404761D01*
X143682438Y-83404761D02*
X143730057Y-83357142D01*
X143730057Y-83357142D02*
X143825295Y-83309523D01*
X143825295Y-83309523D02*
X144015771Y-83261904D01*
X144015771Y-83261904D02*
X144253866Y-83261904D01*
X144253866Y-83261904D02*
X144444342Y-83309523D01*
X144444342Y-83309523D02*
X144539580Y-83357142D01*
X144539580Y-83357142D02*
X144587200Y-83404761D01*
X144587200Y-83404761D02*
X144634819Y-83499999D01*
X144634819Y-83499999D02*
X144634819Y-83595237D01*
X144634819Y-83595237D02*
X144587200Y-83690475D01*
X144587200Y-83690475D02*
X144539580Y-83738094D01*
X144539580Y-83738094D02*
X144444342Y-83785713D01*
X144444342Y-83785713D02*
X144253866Y-83833332D01*
X144253866Y-83833332D02*
X144015771Y-83833332D01*
X144015771Y-83833332D02*
X143825295Y-83785713D01*
X143825295Y-83785713D02*
X143730057Y-83738094D01*
X143730057Y-83738094D02*
X143682438Y-83690475D01*
X143682438Y-83690475D02*
X143634819Y-83595237D01*
X143968152Y-82833332D02*
X144968152Y-82833332D01*
X144491961Y-82357142D02*
X144587200Y-82309523D01*
X144587200Y-82309523D02*
X144634819Y-82214285D01*
X144491961Y-82833332D02*
X144587200Y-82785713D01*
X144587200Y-82785713D02*
X144634819Y-82690475D01*
X144634819Y-82690475D02*
X144634819Y-82499999D01*
X144634819Y-82499999D02*
X144587200Y-82404761D01*
X144587200Y-82404761D02*
X144491961Y-82357142D01*
X144491961Y-82357142D02*
X143968152Y-82357142D01*
D12*
X142679530Y-84059523D02*
X142703340Y-84083332D01*
X142703340Y-84083332D02*
X142727149Y-84154761D01*
X142727149Y-84154761D02*
X142727149Y-84202380D01*
X142727149Y-84202380D02*
X142703340Y-84273808D01*
X142703340Y-84273808D02*
X142655720Y-84321427D01*
X142655720Y-84321427D02*
X142608101Y-84345237D01*
X142608101Y-84345237D02*
X142512863Y-84369046D01*
X142512863Y-84369046D02*
X142441435Y-84369046D01*
X142441435Y-84369046D02*
X142346197Y-84345237D01*
X142346197Y-84345237D02*
X142298578Y-84321427D01*
X142298578Y-84321427D02*
X142250959Y-84273808D01*
X142250959Y-84273808D02*
X142227149Y-84202380D01*
X142227149Y-84202380D02*
X142227149Y-84154761D01*
X142227149Y-84154761D02*
X142250959Y-84083332D01*
X142250959Y-84083332D02*
X142274768Y-84059523D01*
X142727149Y-83583332D02*
X142727149Y-83869046D01*
X142727149Y-83726189D02*
X142227149Y-83726189D01*
X142227149Y-83726189D02*
X142298578Y-83773808D01*
X142298578Y-83773808D02*
X142346197Y-83821427D01*
X142346197Y-83821427D02*
X142370006Y-83869046D01*
X142227149Y-83273809D02*
X142227149Y-83226190D01*
X142227149Y-83226190D02*
X142250959Y-83178571D01*
X142250959Y-83178571D02*
X142274768Y-83154761D01*
X142274768Y-83154761D02*
X142322387Y-83130952D01*
X142322387Y-83130952D02*
X142417625Y-83107142D01*
X142417625Y-83107142D02*
X142536673Y-83107142D01*
X142536673Y-83107142D02*
X142631911Y-83130952D01*
X142631911Y-83130952D02*
X142679530Y-83154761D01*
X142679530Y-83154761D02*
X142703340Y-83178571D01*
X142703340Y-83178571D02*
X142727149Y-83226190D01*
X142727149Y-83226190D02*
X142727149Y-83273809D01*
X142727149Y-83273809D02*
X142703340Y-83321428D01*
X142703340Y-83321428D02*
X142679530Y-83345237D01*
X142679530Y-83345237D02*
X142631911Y-83369047D01*
X142631911Y-83369047D02*
X142536673Y-83392856D01*
X142536673Y-83392856D02*
X142417625Y-83392856D01*
X142417625Y-83392856D02*
X142322387Y-83369047D01*
X142322387Y-83369047D02*
X142274768Y-83345237D01*
X142274768Y-83345237D02*
X142250959Y-83321428D01*
X142250959Y-83321428D02*
X142227149Y-83273809D01*
X142227149Y-82654762D02*
X142227149Y-82892857D01*
X142227149Y-82892857D02*
X142465244Y-82916666D01*
X142465244Y-82916666D02*
X142441435Y-82892857D01*
X142441435Y-82892857D02*
X142417625Y-82845238D01*
X142417625Y-82845238D02*
X142417625Y-82726190D01*
X142417625Y-82726190D02*
X142441435Y-82678571D01*
X142441435Y-82678571D02*
X142465244Y-82654762D01*
X142465244Y-82654762D02*
X142512863Y-82630952D01*
X142512863Y-82630952D02*
X142631911Y-82630952D01*
X142631911Y-82630952D02*
X142679530Y-82654762D01*
X142679530Y-82654762D02*
X142703340Y-82678571D01*
X142703340Y-82678571D02*
X142727149Y-82726190D01*
X142727149Y-82726190D02*
X142727149Y-82845238D01*
X142727149Y-82845238D02*
X142703340Y-82892857D01*
X142703340Y-82892857D02*
X142679530Y-82916666D01*
D10*
X171238095Y-101373866D02*
X171285714Y-101326247D01*
X171285714Y-101326247D02*
X171380952Y-101278628D01*
X171380952Y-101278628D02*
X171571428Y-101373866D01*
X171571428Y-101373866D02*
X171666666Y-101326247D01*
X171666666Y-101326247D02*
X171714285Y-101278628D01*
X169785714Y-105454819D02*
X169785714Y-104454819D01*
X169785714Y-104931009D02*
X170357142Y-104931009D01*
X170357142Y-105454819D02*
X170357142Y-104454819D01*
X171357142Y-105454819D02*
X170785714Y-105454819D01*
X171071428Y-105454819D02*
X171071428Y-104454819D01*
X171071428Y-104454819D02*
X170976190Y-104597676D01*
X170976190Y-104597676D02*
X170880952Y-104692914D01*
X170880952Y-104692914D02*
X170785714Y-104740533D01*
X171976190Y-104454819D02*
X172071428Y-104454819D01*
X172071428Y-104454819D02*
X172166666Y-104502438D01*
X172166666Y-104502438D02*
X172214285Y-104550057D01*
X172214285Y-104550057D02*
X172261904Y-104645295D01*
X172261904Y-104645295D02*
X172309523Y-104835771D01*
X172309523Y-104835771D02*
X172309523Y-105073866D01*
X172309523Y-105073866D02*
X172261904Y-105264342D01*
X172261904Y-105264342D02*
X172214285Y-105359580D01*
X172214285Y-105359580D02*
X172166666Y-105407200D01*
X172166666Y-105407200D02*
X172071428Y-105454819D01*
X172071428Y-105454819D02*
X171976190Y-105454819D01*
X171976190Y-105454819D02*
X171880952Y-105407200D01*
X171880952Y-105407200D02*
X171833333Y-105359580D01*
X171833333Y-105359580D02*
X171785714Y-105264342D01*
X171785714Y-105264342D02*
X171738095Y-105073866D01*
X171738095Y-105073866D02*
X171738095Y-104835771D01*
X171738095Y-104835771D02*
X171785714Y-104645295D01*
X171785714Y-104645295D02*
X171833333Y-104550057D01*
X171833333Y-104550057D02*
X171880952Y-104502438D01*
X171880952Y-104502438D02*
X171976190Y-104454819D01*
X172642857Y-104454819D02*
X173261904Y-104454819D01*
X173261904Y-104454819D02*
X172928571Y-104835771D01*
X172928571Y-104835771D02*
X173071428Y-104835771D01*
X173071428Y-104835771D02*
X173166666Y-104883390D01*
X173166666Y-104883390D02*
X173214285Y-104931009D01*
X173214285Y-104931009D02*
X173261904Y-105026247D01*
X173261904Y-105026247D02*
X173261904Y-105264342D01*
X173261904Y-105264342D02*
X173214285Y-105359580D01*
X173214285Y-105359580D02*
X173166666Y-105407200D01*
X173166666Y-105407200D02*
X173071428Y-105454819D01*
X173071428Y-105454819D02*
X172785714Y-105454819D01*
X172785714Y-105454819D02*
X172690476Y-105407200D01*
X172690476Y-105407200D02*
X172642857Y-105359580D01*
X110788152Y-60952380D02*
X111454819Y-60952380D01*
X110407200Y-61190475D02*
X111121485Y-61428570D01*
X111121485Y-61428570D02*
X111121485Y-60809523D01*
X111454819Y-60428570D02*
X110788152Y-60428570D01*
X110883390Y-60428570D02*
X110835771Y-60380951D01*
X110835771Y-60380951D02*
X110788152Y-60285713D01*
X110788152Y-60285713D02*
X110788152Y-60142856D01*
X110788152Y-60142856D02*
X110835771Y-60047618D01*
X110835771Y-60047618D02*
X110931009Y-59999999D01*
X110931009Y-59999999D02*
X111454819Y-59999999D01*
X110931009Y-59999999D02*
X110835771Y-59952380D01*
X110835771Y-59952380D02*
X110788152Y-59857142D01*
X110788152Y-59857142D02*
X110788152Y-59714285D01*
X110788152Y-59714285D02*
X110835771Y-59619046D01*
X110835771Y-59619046D02*
X110931009Y-59571427D01*
X110931009Y-59571427D02*
X111454819Y-59571427D01*
X110454819Y-59190475D02*
X110454819Y-58523809D01*
X110454819Y-58523809D02*
X111454819Y-58952380D01*
X120454819Y-61119047D02*
X120454819Y-61595237D01*
X120454819Y-61595237D02*
X119454819Y-61595237D01*
X120454819Y-60261904D02*
X120454819Y-60833332D01*
X120454819Y-60547618D02*
X119454819Y-60547618D01*
X119454819Y-60547618D02*
X119597676Y-60642856D01*
X119597676Y-60642856D02*
X119692914Y-60738094D01*
X119692914Y-60738094D02*
X119740533Y-60833332D01*
X119454819Y-59642856D02*
X119454819Y-59547618D01*
X119454819Y-59547618D02*
X119502438Y-59452380D01*
X119502438Y-59452380D02*
X119550057Y-59404761D01*
X119550057Y-59404761D02*
X119645295Y-59357142D01*
X119645295Y-59357142D02*
X119835771Y-59309523D01*
X119835771Y-59309523D02*
X120073866Y-59309523D01*
X120073866Y-59309523D02*
X120264342Y-59357142D01*
X120264342Y-59357142D02*
X120359580Y-59404761D01*
X120359580Y-59404761D02*
X120407200Y-59452380D01*
X120407200Y-59452380D02*
X120454819Y-59547618D01*
X120454819Y-59547618D02*
X120454819Y-59642856D01*
X120454819Y-59642856D02*
X120407200Y-59738094D01*
X120407200Y-59738094D02*
X120359580Y-59785713D01*
X120359580Y-59785713D02*
X120264342Y-59833332D01*
X120264342Y-59833332D02*
X120073866Y-59880951D01*
X120073866Y-59880951D02*
X119835771Y-59880951D01*
X119835771Y-59880951D02*
X119645295Y-59833332D01*
X119645295Y-59833332D02*
X119550057Y-59785713D01*
X119550057Y-59785713D02*
X119502438Y-59738094D01*
X119502438Y-59738094D02*
X119454819Y-59642856D01*
X119550057Y-58928570D02*
X119502438Y-58880951D01*
X119502438Y-58880951D02*
X119454819Y-58785713D01*
X119454819Y-58785713D02*
X119454819Y-58547618D01*
X119454819Y-58547618D02*
X119502438Y-58452380D01*
X119502438Y-58452380D02*
X119550057Y-58404761D01*
X119550057Y-58404761D02*
X119645295Y-58357142D01*
X119645295Y-58357142D02*
X119740533Y-58357142D01*
X119740533Y-58357142D02*
X119883390Y-58404761D01*
X119883390Y-58404761D02*
X120454819Y-58976189D01*
X120454819Y-58976189D02*
X120454819Y-58357142D01*
X101124819Y-80666666D02*
X101124819Y-81238094D01*
X101124819Y-80952380D02*
X100124819Y-80952380D01*
X100124819Y-80952380D02*
X100267676Y-81047618D01*
X100267676Y-81047618D02*
X100362914Y-81142856D01*
X100362914Y-81142856D02*
X100410533Y-81238094D01*
X100220057Y-80285713D02*
X100172438Y-80238094D01*
X100172438Y-80238094D02*
X100124819Y-80142856D01*
X100124819Y-80142856D02*
X100124819Y-79904761D01*
X100124819Y-79904761D02*
X100172438Y-79809523D01*
X100172438Y-79809523D02*
X100220057Y-79761904D01*
X100220057Y-79761904D02*
X100315295Y-79714285D01*
X100315295Y-79714285D02*
X100410533Y-79714285D01*
X100410533Y-79714285D02*
X100553390Y-79761904D01*
X100553390Y-79761904D02*
X101124819Y-80333332D01*
X101124819Y-80333332D02*
X101124819Y-79714285D01*
X100124819Y-79095237D02*
X100124819Y-78999999D01*
X100124819Y-78999999D02*
X100172438Y-78904761D01*
X100172438Y-78904761D02*
X100220057Y-78857142D01*
X100220057Y-78857142D02*
X100315295Y-78809523D01*
X100315295Y-78809523D02*
X100505771Y-78761904D01*
X100505771Y-78761904D02*
X100743866Y-78761904D01*
X100743866Y-78761904D02*
X100934342Y-78809523D01*
X100934342Y-78809523D02*
X101029580Y-78857142D01*
X101029580Y-78857142D02*
X101077200Y-78904761D01*
X101077200Y-78904761D02*
X101124819Y-78999999D01*
X101124819Y-78999999D02*
X101124819Y-79095237D01*
X101124819Y-79095237D02*
X101077200Y-79190475D01*
X101077200Y-79190475D02*
X101029580Y-79238094D01*
X101029580Y-79238094D02*
X100934342Y-79285713D01*
X100934342Y-79285713D02*
X100743866Y-79333332D01*
X100743866Y-79333332D02*
X100505771Y-79333332D01*
X100505771Y-79333332D02*
X100315295Y-79285713D01*
X100315295Y-79285713D02*
X100220057Y-79238094D01*
X100220057Y-79238094D02*
X100172438Y-79190475D01*
X100172438Y-79190475D02*
X100124819Y-79095237D01*
D11*
X102863855Y-80895237D02*
X102482902Y-81161904D01*
X102863855Y-81352380D02*
X102063855Y-81352380D01*
X102063855Y-81352380D02*
X102063855Y-81047618D01*
X102063855Y-81047618D02*
X102101950Y-80971428D01*
X102101950Y-80971428D02*
X102140045Y-80933333D01*
X102140045Y-80933333D02*
X102216236Y-80895237D01*
X102216236Y-80895237D02*
X102330521Y-80895237D01*
X102330521Y-80895237D02*
X102406712Y-80933333D01*
X102406712Y-80933333D02*
X102444807Y-80971428D01*
X102444807Y-80971428D02*
X102482902Y-81047618D01*
X102482902Y-81047618D02*
X102482902Y-81352380D01*
X102863855Y-80133333D02*
X102863855Y-80590476D01*
X102863855Y-80361904D02*
X102063855Y-80361904D01*
X102063855Y-80361904D02*
X102178140Y-80438095D01*
X102178140Y-80438095D02*
X102254331Y-80514285D01*
X102254331Y-80514285D02*
X102292426Y-80590476D01*
X102063855Y-79638094D02*
X102063855Y-79561904D01*
X102063855Y-79561904D02*
X102101950Y-79485713D01*
X102101950Y-79485713D02*
X102140045Y-79447618D01*
X102140045Y-79447618D02*
X102216236Y-79409523D01*
X102216236Y-79409523D02*
X102368617Y-79371428D01*
X102368617Y-79371428D02*
X102559093Y-79371428D01*
X102559093Y-79371428D02*
X102711474Y-79409523D01*
X102711474Y-79409523D02*
X102787664Y-79447618D01*
X102787664Y-79447618D02*
X102825760Y-79485713D01*
X102825760Y-79485713D02*
X102863855Y-79561904D01*
X102863855Y-79561904D02*
X102863855Y-79638094D01*
X102863855Y-79638094D02*
X102825760Y-79714285D01*
X102825760Y-79714285D02*
X102787664Y-79752380D01*
X102787664Y-79752380D02*
X102711474Y-79790475D01*
X102711474Y-79790475D02*
X102559093Y-79828571D01*
X102559093Y-79828571D02*
X102368617Y-79828571D01*
X102368617Y-79828571D02*
X102216236Y-79790475D01*
X102216236Y-79790475D02*
X102140045Y-79752380D01*
X102140045Y-79752380D02*
X102101950Y-79714285D01*
X102101950Y-79714285D02*
X102063855Y-79638094D01*
X102863855Y-78609523D02*
X102863855Y-79066666D01*
X102863855Y-78838094D02*
X102063855Y-78838094D01*
X102063855Y-78838094D02*
X102178140Y-78914285D01*
X102178140Y-78914285D02*
X102254331Y-78990475D01*
X102254331Y-78990475D02*
X102292426Y-79066666D01*
D10*
X102285714Y-86134819D02*
X101714286Y-86134819D01*
X102000000Y-86134819D02*
X102000000Y-85134819D01*
X102000000Y-85134819D02*
X101904762Y-85277676D01*
X101904762Y-85277676D02*
X101809524Y-85372914D01*
X101809524Y-85372914D02*
X101714286Y-85420533D01*
X102904762Y-85134819D02*
X103000000Y-85134819D01*
X103000000Y-85134819D02*
X103095238Y-85182438D01*
X103095238Y-85182438D02*
X103142857Y-85230057D01*
X103142857Y-85230057D02*
X103190476Y-85325295D01*
X103190476Y-85325295D02*
X103238095Y-85515771D01*
X103238095Y-85515771D02*
X103238095Y-85753866D01*
X103238095Y-85753866D02*
X103190476Y-85944342D01*
X103190476Y-85944342D02*
X103142857Y-86039580D01*
X103142857Y-86039580D02*
X103095238Y-86087200D01*
X103095238Y-86087200D02*
X103000000Y-86134819D01*
X103000000Y-86134819D02*
X102904762Y-86134819D01*
X102904762Y-86134819D02*
X102809524Y-86087200D01*
X102809524Y-86087200D02*
X102761905Y-86039580D01*
X102761905Y-86039580D02*
X102714286Y-85944342D01*
X102714286Y-85944342D02*
X102666667Y-85753866D01*
X102666667Y-85753866D02*
X102666667Y-85515771D01*
X102666667Y-85515771D02*
X102714286Y-85325295D01*
X102714286Y-85325295D02*
X102761905Y-85230057D01*
X102761905Y-85230057D02*
X102809524Y-85182438D01*
X102809524Y-85182438D02*
X102904762Y-85134819D01*
X103666667Y-85468152D02*
X103666667Y-86468152D01*
X104142857Y-85991961D02*
X104190476Y-86087200D01*
X104190476Y-86087200D02*
X104285714Y-86134819D01*
X103666667Y-85991961D02*
X103714286Y-86087200D01*
X103714286Y-86087200D02*
X103809524Y-86134819D01*
X103809524Y-86134819D02*
X104000000Y-86134819D01*
X104000000Y-86134819D02*
X104095238Y-86087200D01*
X104095238Y-86087200D02*
X104142857Y-85991961D01*
X104142857Y-85991961D02*
X104142857Y-85468152D01*
D12*
X102440476Y-84179530D02*
X102416667Y-84203340D01*
X102416667Y-84203340D02*
X102345238Y-84227149D01*
X102345238Y-84227149D02*
X102297619Y-84227149D01*
X102297619Y-84227149D02*
X102226191Y-84203340D01*
X102226191Y-84203340D02*
X102178572Y-84155720D01*
X102178572Y-84155720D02*
X102154762Y-84108101D01*
X102154762Y-84108101D02*
X102130953Y-84012863D01*
X102130953Y-84012863D02*
X102130953Y-83941435D01*
X102130953Y-83941435D02*
X102154762Y-83846197D01*
X102154762Y-83846197D02*
X102178572Y-83798578D01*
X102178572Y-83798578D02*
X102226191Y-83750959D01*
X102226191Y-83750959D02*
X102297619Y-83727149D01*
X102297619Y-83727149D02*
X102345238Y-83727149D01*
X102345238Y-83727149D02*
X102416667Y-83750959D01*
X102416667Y-83750959D02*
X102440476Y-83774768D01*
X102916667Y-84227149D02*
X102630953Y-84227149D01*
X102773810Y-84227149D02*
X102773810Y-83727149D01*
X102773810Y-83727149D02*
X102726191Y-83798578D01*
X102726191Y-83798578D02*
X102678572Y-83846197D01*
X102678572Y-83846197D02*
X102630953Y-83870006D01*
X103226190Y-83727149D02*
X103273809Y-83727149D01*
X103273809Y-83727149D02*
X103321428Y-83750959D01*
X103321428Y-83750959D02*
X103345238Y-83774768D01*
X103345238Y-83774768D02*
X103369047Y-83822387D01*
X103369047Y-83822387D02*
X103392857Y-83917625D01*
X103392857Y-83917625D02*
X103392857Y-84036673D01*
X103392857Y-84036673D02*
X103369047Y-84131911D01*
X103369047Y-84131911D02*
X103345238Y-84179530D01*
X103345238Y-84179530D02*
X103321428Y-84203340D01*
X103321428Y-84203340D02*
X103273809Y-84227149D01*
X103273809Y-84227149D02*
X103226190Y-84227149D01*
X103226190Y-84227149D02*
X103178571Y-84203340D01*
X103178571Y-84203340D02*
X103154762Y-84179530D01*
X103154762Y-84179530D02*
X103130952Y-84131911D01*
X103130952Y-84131911D02*
X103107143Y-84036673D01*
X103107143Y-84036673D02*
X103107143Y-83917625D01*
X103107143Y-83917625D02*
X103130952Y-83822387D01*
X103130952Y-83822387D02*
X103154762Y-83774768D01*
X103154762Y-83774768D02*
X103178571Y-83750959D01*
X103178571Y-83750959D02*
X103226190Y-83727149D01*
X103583333Y-83774768D02*
X103607142Y-83750959D01*
X103607142Y-83750959D02*
X103654761Y-83727149D01*
X103654761Y-83727149D02*
X103773809Y-83727149D01*
X103773809Y-83727149D02*
X103821428Y-83750959D01*
X103821428Y-83750959D02*
X103845237Y-83774768D01*
X103845237Y-83774768D02*
X103869047Y-83822387D01*
X103869047Y-83822387D02*
X103869047Y-83870006D01*
X103869047Y-83870006D02*
X103845237Y-83941435D01*
X103845237Y-83941435D02*
X103559523Y-84227149D01*
X103559523Y-84227149D02*
X103869047Y-84227149D01*
D10*
X85467319Y-82976190D02*
X84991128Y-83309523D01*
X85467319Y-83547618D02*
X84467319Y-83547618D01*
X84467319Y-83547618D02*
X84467319Y-83166666D01*
X84467319Y-83166666D02*
X84514938Y-83071428D01*
X84514938Y-83071428D02*
X84562557Y-83023809D01*
X84562557Y-83023809D02*
X84657795Y-82976190D01*
X84657795Y-82976190D02*
X84800652Y-82976190D01*
X84800652Y-82976190D02*
X84895890Y-83023809D01*
X84895890Y-83023809D02*
X84943509Y-83071428D01*
X84943509Y-83071428D02*
X84991128Y-83166666D01*
X84991128Y-83166666D02*
X84991128Y-83547618D01*
X85419700Y-82595237D02*
X85467319Y-82452380D01*
X85467319Y-82452380D02*
X85467319Y-82214285D01*
X85467319Y-82214285D02*
X85419700Y-82119047D01*
X85419700Y-82119047D02*
X85372080Y-82071428D01*
X85372080Y-82071428D02*
X85276842Y-82023809D01*
X85276842Y-82023809D02*
X85181604Y-82023809D01*
X85181604Y-82023809D02*
X85086366Y-82071428D01*
X85086366Y-82071428D02*
X85038747Y-82119047D01*
X85038747Y-82119047D02*
X84991128Y-82214285D01*
X84991128Y-82214285D02*
X84943509Y-82404761D01*
X84943509Y-82404761D02*
X84895890Y-82499999D01*
X84895890Y-82499999D02*
X84848271Y-82547618D01*
X84848271Y-82547618D02*
X84753033Y-82595237D01*
X84753033Y-82595237D02*
X84657795Y-82595237D01*
X84657795Y-82595237D02*
X84562557Y-82547618D01*
X84562557Y-82547618D02*
X84514938Y-82499999D01*
X84514938Y-82499999D02*
X84467319Y-82404761D01*
X84467319Y-82404761D02*
X84467319Y-82166666D01*
X84467319Y-82166666D02*
X84514938Y-82023809D01*
X84800652Y-81166666D02*
X85467319Y-81166666D01*
X84419700Y-81404761D02*
X85133985Y-81642856D01*
X85133985Y-81642856D02*
X85133985Y-81023809D01*
X84895890Y-80499999D02*
X84848271Y-80595237D01*
X84848271Y-80595237D02*
X84800652Y-80642856D01*
X84800652Y-80642856D02*
X84705414Y-80690475D01*
X84705414Y-80690475D02*
X84657795Y-80690475D01*
X84657795Y-80690475D02*
X84562557Y-80642856D01*
X84562557Y-80642856D02*
X84514938Y-80595237D01*
X84514938Y-80595237D02*
X84467319Y-80499999D01*
X84467319Y-80499999D02*
X84467319Y-80309523D01*
X84467319Y-80309523D02*
X84514938Y-80214285D01*
X84514938Y-80214285D02*
X84562557Y-80166666D01*
X84562557Y-80166666D02*
X84657795Y-80119047D01*
X84657795Y-80119047D02*
X84705414Y-80119047D01*
X84705414Y-80119047D02*
X84800652Y-80166666D01*
X84800652Y-80166666D02*
X84848271Y-80214285D01*
X84848271Y-80214285D02*
X84895890Y-80309523D01*
X84895890Y-80309523D02*
X84895890Y-80499999D01*
X84895890Y-80499999D02*
X84943509Y-80595237D01*
X84943509Y-80595237D02*
X84991128Y-80642856D01*
X84991128Y-80642856D02*
X85086366Y-80690475D01*
X85086366Y-80690475D02*
X85276842Y-80690475D01*
X85276842Y-80690475D02*
X85372080Y-80642856D01*
X85372080Y-80642856D02*
X85419700Y-80595237D01*
X85419700Y-80595237D02*
X85467319Y-80499999D01*
X85467319Y-80499999D02*
X85467319Y-80309523D01*
X85467319Y-80309523D02*
X85419700Y-80214285D01*
X85419700Y-80214285D02*
X85372080Y-80166666D01*
X85372080Y-80166666D02*
X85276842Y-80119047D01*
X85276842Y-80119047D02*
X85086366Y-80119047D01*
X85086366Y-80119047D02*
X84991128Y-80166666D01*
X84991128Y-80166666D02*
X84943509Y-80214285D01*
X84943509Y-80214285D02*
X84895890Y-80309523D01*
X84467319Y-79214285D02*
X84467319Y-79690475D01*
X84467319Y-79690475D02*
X84943509Y-79738094D01*
X84943509Y-79738094D02*
X84895890Y-79690475D01*
X84895890Y-79690475D02*
X84848271Y-79595237D01*
X84848271Y-79595237D02*
X84848271Y-79357142D01*
X84848271Y-79357142D02*
X84895890Y-79261904D01*
X84895890Y-79261904D02*
X84943509Y-79214285D01*
X84943509Y-79214285D02*
X85038747Y-79166666D01*
X85038747Y-79166666D02*
X85276842Y-79166666D01*
X85276842Y-79166666D02*
X85372080Y-79214285D01*
X85372080Y-79214285D02*
X85419700Y-79261904D01*
X85419700Y-79261904D02*
X85467319Y-79357142D01*
X85467319Y-79357142D02*
X85467319Y-79595237D01*
X85467319Y-79595237D02*
X85419700Y-79690475D01*
X85419700Y-79690475D02*
X85372080Y-79738094D01*
X85086366Y-78738094D02*
X85086366Y-77976190D01*
X85467319Y-77499999D02*
X84467319Y-77499999D01*
X85467319Y-77023809D02*
X84467319Y-77023809D01*
X84467319Y-77023809D02*
X85467319Y-76452381D01*
X85467319Y-76452381D02*
X84467319Y-76452381D01*
X93587319Y-81285714D02*
X94301604Y-81285714D01*
X94301604Y-81285714D02*
X94444461Y-81333333D01*
X94444461Y-81333333D02*
X94539700Y-81428571D01*
X94539700Y-81428571D02*
X94587319Y-81571428D01*
X94587319Y-81571428D02*
X94587319Y-81666666D01*
X94587319Y-80285714D02*
X94587319Y-80857142D01*
X94587319Y-80571428D02*
X93587319Y-80571428D01*
X93587319Y-80571428D02*
X93730176Y-80666666D01*
X93730176Y-80666666D02*
X93825414Y-80761904D01*
X93825414Y-80761904D02*
X93873033Y-80857142D01*
X93587319Y-79666666D02*
X93587319Y-79571428D01*
X93587319Y-79571428D02*
X93634938Y-79476190D01*
X93634938Y-79476190D02*
X93682557Y-79428571D01*
X93682557Y-79428571D02*
X93777795Y-79380952D01*
X93777795Y-79380952D02*
X93968271Y-79333333D01*
X93968271Y-79333333D02*
X94206366Y-79333333D01*
X94206366Y-79333333D02*
X94396842Y-79380952D01*
X94396842Y-79380952D02*
X94492080Y-79428571D01*
X94492080Y-79428571D02*
X94539700Y-79476190D01*
X94539700Y-79476190D02*
X94587319Y-79571428D01*
X94587319Y-79571428D02*
X94587319Y-79666666D01*
X94587319Y-79666666D02*
X94539700Y-79761904D01*
X94539700Y-79761904D02*
X94492080Y-79809523D01*
X94492080Y-79809523D02*
X94396842Y-79857142D01*
X94396842Y-79857142D02*
X94206366Y-79904761D01*
X94206366Y-79904761D02*
X93968271Y-79904761D01*
X93968271Y-79904761D02*
X93777795Y-79857142D01*
X93777795Y-79857142D02*
X93682557Y-79809523D01*
X93682557Y-79809523D02*
X93634938Y-79761904D01*
X93634938Y-79761904D02*
X93587319Y-79666666D01*
X93682557Y-78952380D02*
X93634938Y-78904761D01*
X93634938Y-78904761D02*
X93587319Y-78809523D01*
X93587319Y-78809523D02*
X93587319Y-78571428D01*
X93587319Y-78571428D02*
X93634938Y-78476190D01*
X93634938Y-78476190D02*
X93682557Y-78428571D01*
X93682557Y-78428571D02*
X93777795Y-78380952D01*
X93777795Y-78380952D02*
X93873033Y-78380952D01*
X93873033Y-78380952D02*
X94015890Y-78428571D01*
X94015890Y-78428571D02*
X94587319Y-78999999D01*
X94587319Y-78999999D02*
X94587319Y-78380952D01*
X138938152Y-79559523D02*
X139604819Y-79559523D01*
X138557200Y-79797618D02*
X139271485Y-80035713D01*
X139271485Y-80035713D02*
X139271485Y-79416666D01*
X138938152Y-79035713D02*
X139938152Y-79035713D01*
X139461961Y-78559523D02*
X139557200Y-78511904D01*
X139557200Y-78511904D02*
X139604819Y-78416666D01*
X139461961Y-79035713D02*
X139557200Y-78988094D01*
X139557200Y-78988094D02*
X139604819Y-78892856D01*
X139604819Y-78892856D02*
X139604819Y-78702380D01*
X139604819Y-78702380D02*
X139557200Y-78607142D01*
X139557200Y-78607142D02*
X139461961Y-78559523D01*
X139461961Y-78559523D02*
X138938152Y-78559523D01*
X138604819Y-78083332D02*
X138604819Y-77416666D01*
X138604819Y-77416666D02*
X139604819Y-77845237D01*
D11*
X141287664Y-79645237D02*
X141325760Y-79683333D01*
X141325760Y-79683333D02*
X141363855Y-79797618D01*
X141363855Y-79797618D02*
X141363855Y-79873809D01*
X141363855Y-79873809D02*
X141325760Y-79988095D01*
X141325760Y-79988095D02*
X141249569Y-80064285D01*
X141249569Y-80064285D02*
X141173379Y-80102380D01*
X141173379Y-80102380D02*
X141020998Y-80140476D01*
X141020998Y-80140476D02*
X140906712Y-80140476D01*
X140906712Y-80140476D02*
X140754331Y-80102380D01*
X140754331Y-80102380D02*
X140678140Y-80064285D01*
X140678140Y-80064285D02*
X140601950Y-79988095D01*
X140601950Y-79988095D02*
X140563855Y-79873809D01*
X140563855Y-79873809D02*
X140563855Y-79797618D01*
X140563855Y-79797618D02*
X140601950Y-79683333D01*
X140601950Y-79683333D02*
X140640045Y-79645237D01*
X141363855Y-78883333D02*
X141363855Y-79340476D01*
X141363855Y-79111904D02*
X140563855Y-79111904D01*
X140563855Y-79111904D02*
X140678140Y-79188095D01*
X140678140Y-79188095D02*
X140754331Y-79264285D01*
X140754331Y-79264285D02*
X140792426Y-79340476D01*
X140563855Y-78388094D02*
X140563855Y-78311904D01*
X140563855Y-78311904D02*
X140601950Y-78235713D01*
X140601950Y-78235713D02*
X140640045Y-78197618D01*
X140640045Y-78197618D02*
X140716236Y-78159523D01*
X140716236Y-78159523D02*
X140868617Y-78121428D01*
X140868617Y-78121428D02*
X141059093Y-78121428D01*
X141059093Y-78121428D02*
X141211474Y-78159523D01*
X141211474Y-78159523D02*
X141287664Y-78197618D01*
X141287664Y-78197618D02*
X141325760Y-78235713D01*
X141325760Y-78235713D02*
X141363855Y-78311904D01*
X141363855Y-78311904D02*
X141363855Y-78388094D01*
X141363855Y-78388094D02*
X141325760Y-78464285D01*
X141325760Y-78464285D02*
X141287664Y-78502380D01*
X141287664Y-78502380D02*
X141211474Y-78540475D01*
X141211474Y-78540475D02*
X141059093Y-78578571D01*
X141059093Y-78578571D02*
X140868617Y-78578571D01*
X140868617Y-78578571D02*
X140716236Y-78540475D01*
X140716236Y-78540475D02*
X140640045Y-78502380D01*
X140640045Y-78502380D02*
X140601950Y-78464285D01*
X140601950Y-78464285D02*
X140563855Y-78388094D01*
X140830521Y-77435713D02*
X141363855Y-77435713D01*
X140525760Y-77626189D02*
X141097188Y-77816666D01*
X141097188Y-77816666D02*
X141097188Y-77321427D01*
D10*
X110788152Y-100952380D02*
X111454819Y-100952380D01*
X110407200Y-101190475D02*
X111121485Y-101428570D01*
X111121485Y-101428570D02*
X111121485Y-100809523D01*
X111454819Y-100428570D02*
X110788152Y-100428570D01*
X110883390Y-100428570D02*
X110835771Y-100380951D01*
X110835771Y-100380951D02*
X110788152Y-100285713D01*
X110788152Y-100285713D02*
X110788152Y-100142856D01*
X110788152Y-100142856D02*
X110835771Y-100047618D01*
X110835771Y-100047618D02*
X110931009Y-99999999D01*
X110931009Y-99999999D02*
X111454819Y-99999999D01*
X110931009Y-99999999D02*
X110835771Y-99952380D01*
X110835771Y-99952380D02*
X110788152Y-99857142D01*
X110788152Y-99857142D02*
X110788152Y-99714285D01*
X110788152Y-99714285D02*
X110835771Y-99619046D01*
X110835771Y-99619046D02*
X110931009Y-99571427D01*
X110931009Y-99571427D02*
X111454819Y-99571427D01*
X110454819Y-99190475D02*
X110454819Y-98523809D01*
X110454819Y-98523809D02*
X111454819Y-98952380D01*
X120454819Y-101119047D02*
X120454819Y-101595237D01*
X120454819Y-101595237D02*
X119454819Y-101595237D01*
X120454819Y-100261904D02*
X120454819Y-100833332D01*
X120454819Y-100547618D02*
X119454819Y-100547618D01*
X119454819Y-100547618D02*
X119597676Y-100642856D01*
X119597676Y-100642856D02*
X119692914Y-100738094D01*
X119692914Y-100738094D02*
X119740533Y-100833332D01*
X119454819Y-99642856D02*
X119454819Y-99547618D01*
X119454819Y-99547618D02*
X119502438Y-99452380D01*
X119502438Y-99452380D02*
X119550057Y-99404761D01*
X119550057Y-99404761D02*
X119645295Y-99357142D01*
X119645295Y-99357142D02*
X119835771Y-99309523D01*
X119835771Y-99309523D02*
X120073866Y-99309523D01*
X120073866Y-99309523D02*
X120264342Y-99357142D01*
X120264342Y-99357142D02*
X120359580Y-99404761D01*
X120359580Y-99404761D02*
X120407200Y-99452380D01*
X120407200Y-99452380D02*
X120454819Y-99547618D01*
X120454819Y-99547618D02*
X120454819Y-99642856D01*
X120454819Y-99642856D02*
X120407200Y-99738094D01*
X120407200Y-99738094D02*
X120359580Y-99785713D01*
X120359580Y-99785713D02*
X120264342Y-99833332D01*
X120264342Y-99833332D02*
X120073866Y-99880951D01*
X120073866Y-99880951D02*
X119835771Y-99880951D01*
X119835771Y-99880951D02*
X119645295Y-99833332D01*
X119645295Y-99833332D02*
X119550057Y-99785713D01*
X119550057Y-99785713D02*
X119502438Y-99738094D01*
X119502438Y-99738094D02*
X119454819Y-99642856D01*
X119454819Y-98452380D02*
X119454819Y-98642856D01*
X119454819Y-98642856D02*
X119502438Y-98738094D01*
X119502438Y-98738094D02*
X119550057Y-98785713D01*
X119550057Y-98785713D02*
X119692914Y-98880951D01*
X119692914Y-98880951D02*
X119883390Y-98928570D01*
X119883390Y-98928570D02*
X120264342Y-98928570D01*
X120264342Y-98928570D02*
X120359580Y-98880951D01*
X120359580Y-98880951D02*
X120407200Y-98833332D01*
X120407200Y-98833332D02*
X120454819Y-98738094D01*
X120454819Y-98738094D02*
X120454819Y-98547618D01*
X120454819Y-98547618D02*
X120407200Y-98452380D01*
X120407200Y-98452380D02*
X120359580Y-98404761D01*
X120359580Y-98404761D02*
X120264342Y-98357142D01*
X120264342Y-98357142D02*
X120026247Y-98357142D01*
X120026247Y-98357142D02*
X119931009Y-98404761D01*
X119931009Y-98404761D02*
X119883390Y-98452380D01*
X119883390Y-98452380D02*
X119835771Y-98547618D01*
X119835771Y-98547618D02*
X119835771Y-98738094D01*
X119835771Y-98738094D02*
X119883390Y-98833332D01*
X119883390Y-98833332D02*
X119931009Y-98880951D01*
X119931009Y-98880951D02*
X120026247Y-98928570D01*
X88238095Y-101373866D02*
X88285714Y-101326247D01*
X88285714Y-101326247D02*
X88380952Y-101278628D01*
X88380952Y-101278628D02*
X88571428Y-101373866D01*
X88571428Y-101373866D02*
X88666666Y-101326247D01*
X88666666Y-101326247D02*
X88714285Y-101278628D01*
X86785714Y-105454819D02*
X86785714Y-104454819D01*
X86785714Y-104931009D02*
X87357142Y-104931009D01*
X87357142Y-105454819D02*
X87357142Y-104454819D01*
X88357142Y-105454819D02*
X87785714Y-105454819D01*
X88071428Y-105454819D02*
X88071428Y-104454819D01*
X88071428Y-104454819D02*
X87976190Y-104597676D01*
X87976190Y-104597676D02*
X87880952Y-104692914D01*
X87880952Y-104692914D02*
X87785714Y-104740533D01*
X88976190Y-104454819D02*
X89071428Y-104454819D01*
X89071428Y-104454819D02*
X89166666Y-104502438D01*
X89166666Y-104502438D02*
X89214285Y-104550057D01*
X89214285Y-104550057D02*
X89261904Y-104645295D01*
X89261904Y-104645295D02*
X89309523Y-104835771D01*
X89309523Y-104835771D02*
X89309523Y-105073866D01*
X89309523Y-105073866D02*
X89261904Y-105264342D01*
X89261904Y-105264342D02*
X89214285Y-105359580D01*
X89214285Y-105359580D02*
X89166666Y-105407200D01*
X89166666Y-105407200D02*
X89071428Y-105454819D01*
X89071428Y-105454819D02*
X88976190Y-105454819D01*
X88976190Y-105454819D02*
X88880952Y-105407200D01*
X88880952Y-105407200D02*
X88833333Y-105359580D01*
X88833333Y-105359580D02*
X88785714Y-105264342D01*
X88785714Y-105264342D02*
X88738095Y-105073866D01*
X88738095Y-105073866D02*
X88738095Y-104835771D01*
X88738095Y-104835771D02*
X88785714Y-104645295D01*
X88785714Y-104645295D02*
X88833333Y-104550057D01*
X88833333Y-104550057D02*
X88880952Y-104502438D01*
X88880952Y-104502438D02*
X88976190Y-104454819D01*
X89690476Y-104550057D02*
X89738095Y-104502438D01*
X89738095Y-104502438D02*
X89833333Y-104454819D01*
X89833333Y-104454819D02*
X90071428Y-104454819D01*
X90071428Y-104454819D02*
X90166666Y-104502438D01*
X90166666Y-104502438D02*
X90214285Y-104550057D01*
X90214285Y-104550057D02*
X90261904Y-104645295D01*
X90261904Y-104645295D02*
X90261904Y-104740533D01*
X90261904Y-104740533D02*
X90214285Y-104883390D01*
X90214285Y-104883390D02*
X89642857Y-105454819D01*
X89642857Y-105454819D02*
X90261904Y-105454819D01*
X124190476Y-86288152D02*
X124190476Y-86954819D01*
X123952381Y-85907200D02*
X123714286Y-86621485D01*
X123714286Y-86621485D02*
X124333333Y-86621485D01*
X124714286Y-86288152D02*
X124714286Y-87288152D01*
X125190476Y-86811961D02*
X125238095Y-86907200D01*
X125238095Y-86907200D02*
X125333333Y-86954819D01*
X124714286Y-86811961D02*
X124761905Y-86907200D01*
X124761905Y-86907200D02*
X124857143Y-86954819D01*
X124857143Y-86954819D02*
X125047619Y-86954819D01*
X125047619Y-86954819D02*
X125142857Y-86907200D01*
X125142857Y-86907200D02*
X125190476Y-86811961D01*
X125190476Y-86811961D02*
X125190476Y-86288152D01*
X125666667Y-85954819D02*
X126333333Y-85954819D01*
X126333333Y-85954819D02*
X125904762Y-86954819D01*
X123880952Y-77954819D02*
X123404762Y-77954819D01*
X123404762Y-77954819D02*
X123404762Y-76954819D01*
X124738095Y-77954819D02*
X124166667Y-77954819D01*
X124452381Y-77954819D02*
X124452381Y-76954819D01*
X124452381Y-76954819D02*
X124357143Y-77097676D01*
X124357143Y-77097676D02*
X124261905Y-77192914D01*
X124261905Y-77192914D02*
X124166667Y-77240533D01*
X125357143Y-76954819D02*
X125452381Y-76954819D01*
X125452381Y-76954819D02*
X125547619Y-77002438D01*
X125547619Y-77002438D02*
X125595238Y-77050057D01*
X125595238Y-77050057D02*
X125642857Y-77145295D01*
X125642857Y-77145295D02*
X125690476Y-77335771D01*
X125690476Y-77335771D02*
X125690476Y-77573866D01*
X125690476Y-77573866D02*
X125642857Y-77764342D01*
X125642857Y-77764342D02*
X125595238Y-77859580D01*
X125595238Y-77859580D02*
X125547619Y-77907200D01*
X125547619Y-77907200D02*
X125452381Y-77954819D01*
X125452381Y-77954819D02*
X125357143Y-77954819D01*
X125357143Y-77954819D02*
X125261905Y-77907200D01*
X125261905Y-77907200D02*
X125214286Y-77859580D01*
X125214286Y-77859580D02*
X125166667Y-77764342D01*
X125166667Y-77764342D02*
X125119048Y-77573866D01*
X125119048Y-77573866D02*
X125119048Y-77335771D01*
X125119048Y-77335771D02*
X125166667Y-77145295D01*
X125166667Y-77145295D02*
X125214286Y-77050057D01*
X125214286Y-77050057D02*
X125261905Y-77002438D01*
X125261905Y-77002438D02*
X125357143Y-76954819D01*
X126166667Y-77954819D02*
X126357143Y-77954819D01*
X126357143Y-77954819D02*
X126452381Y-77907200D01*
X126452381Y-77907200D02*
X126500000Y-77859580D01*
X126500000Y-77859580D02*
X126595238Y-77716723D01*
X126595238Y-77716723D02*
X126642857Y-77526247D01*
X126642857Y-77526247D02*
X126642857Y-77145295D01*
X126642857Y-77145295D02*
X126595238Y-77050057D01*
X126595238Y-77050057D02*
X126547619Y-77002438D01*
X126547619Y-77002438D02*
X126452381Y-76954819D01*
X126452381Y-76954819D02*
X126261905Y-76954819D01*
X126261905Y-76954819D02*
X126166667Y-77002438D01*
X126166667Y-77002438D02*
X126119048Y-77050057D01*
X126119048Y-77050057D02*
X126071429Y-77145295D01*
X126071429Y-77145295D02*
X126071429Y-77383390D01*
X126071429Y-77383390D02*
X126119048Y-77478628D01*
X126119048Y-77478628D02*
X126166667Y-77526247D01*
X126166667Y-77526247D02*
X126261905Y-77573866D01*
X126261905Y-77573866D02*
X126452381Y-77573866D01*
X126452381Y-77573866D02*
X126547619Y-77526247D01*
X126547619Y-77526247D02*
X126595238Y-77478628D01*
X126595238Y-77478628D02*
X126642857Y-77383390D01*
X88238095Y-58773866D02*
X88285714Y-58726247D01*
X88285714Y-58726247D02*
X88380952Y-58678628D01*
X88380952Y-58678628D02*
X88571428Y-58773866D01*
X88571428Y-58773866D02*
X88666666Y-58726247D01*
X88666666Y-58726247D02*
X88714285Y-58678628D01*
X86785714Y-55454819D02*
X86785714Y-54454819D01*
X86785714Y-54931009D02*
X87357142Y-54931009D01*
X87357142Y-55454819D02*
X87357142Y-54454819D01*
X88357142Y-55454819D02*
X87785714Y-55454819D01*
X88071428Y-55454819D02*
X88071428Y-54454819D01*
X88071428Y-54454819D02*
X87976190Y-54597676D01*
X87976190Y-54597676D02*
X87880952Y-54692914D01*
X87880952Y-54692914D02*
X87785714Y-54740533D01*
X88976190Y-54454819D02*
X89071428Y-54454819D01*
X89071428Y-54454819D02*
X89166666Y-54502438D01*
X89166666Y-54502438D02*
X89214285Y-54550057D01*
X89214285Y-54550057D02*
X89261904Y-54645295D01*
X89261904Y-54645295D02*
X89309523Y-54835771D01*
X89309523Y-54835771D02*
X89309523Y-55073866D01*
X89309523Y-55073866D02*
X89261904Y-55264342D01*
X89261904Y-55264342D02*
X89214285Y-55359580D01*
X89214285Y-55359580D02*
X89166666Y-55407200D01*
X89166666Y-55407200D02*
X89071428Y-55454819D01*
X89071428Y-55454819D02*
X88976190Y-55454819D01*
X88976190Y-55454819D02*
X88880952Y-55407200D01*
X88880952Y-55407200D02*
X88833333Y-55359580D01*
X88833333Y-55359580D02*
X88785714Y-55264342D01*
X88785714Y-55264342D02*
X88738095Y-55073866D01*
X88738095Y-55073866D02*
X88738095Y-54835771D01*
X88738095Y-54835771D02*
X88785714Y-54645295D01*
X88785714Y-54645295D02*
X88833333Y-54550057D01*
X88833333Y-54550057D02*
X88880952Y-54502438D01*
X88880952Y-54502438D02*
X88976190Y-54454819D01*
X90261904Y-55454819D02*
X89690476Y-55454819D01*
X89976190Y-55454819D02*
X89976190Y-54454819D01*
X89976190Y-54454819D02*
X89880952Y-54597676D01*
X89880952Y-54597676D02*
X89785714Y-54692914D01*
X89785714Y-54692914D02*
X89690476Y-54740533D01*
X151559523Y-71334819D02*
X151083333Y-71334819D01*
X151083333Y-71334819D02*
X151035714Y-71811009D01*
X151035714Y-71811009D02*
X151083333Y-71763390D01*
X151083333Y-71763390D02*
X151178571Y-71715771D01*
X151178571Y-71715771D02*
X151416666Y-71715771D01*
X151416666Y-71715771D02*
X151511904Y-71763390D01*
X151511904Y-71763390D02*
X151559523Y-71811009D01*
X151559523Y-71811009D02*
X151607142Y-71906247D01*
X151607142Y-71906247D02*
X151607142Y-72144342D01*
X151607142Y-72144342D02*
X151559523Y-72239580D01*
X151559523Y-72239580D02*
X151511904Y-72287200D01*
X151511904Y-72287200D02*
X151416666Y-72334819D01*
X151416666Y-72334819D02*
X151178571Y-72334819D01*
X151178571Y-72334819D02*
X151083333Y-72287200D01*
X151083333Y-72287200D02*
X151035714Y-72239580D01*
X151892857Y-71334819D02*
X152226190Y-72334819D01*
X152226190Y-72334819D02*
X152559523Y-71334819D01*
X150464285Y-80454819D02*
X150464285Y-81169104D01*
X150464285Y-81169104D02*
X150416666Y-81311961D01*
X150416666Y-81311961D02*
X150321428Y-81407200D01*
X150321428Y-81407200D02*
X150178571Y-81454819D01*
X150178571Y-81454819D02*
X150083333Y-81454819D01*
X151464285Y-81454819D02*
X150892857Y-81454819D01*
X151178571Y-81454819D02*
X151178571Y-80454819D01*
X151178571Y-80454819D02*
X151083333Y-80597676D01*
X151083333Y-80597676D02*
X150988095Y-80692914D01*
X150988095Y-80692914D02*
X150892857Y-80740533D01*
X152083333Y-80454819D02*
X152178571Y-80454819D01*
X152178571Y-80454819D02*
X152273809Y-80502438D01*
X152273809Y-80502438D02*
X152321428Y-80550057D01*
X152321428Y-80550057D02*
X152369047Y-80645295D01*
X152369047Y-80645295D02*
X152416666Y-80835771D01*
X152416666Y-80835771D02*
X152416666Y-81073866D01*
X152416666Y-81073866D02*
X152369047Y-81264342D01*
X152369047Y-81264342D02*
X152321428Y-81359580D01*
X152321428Y-81359580D02*
X152273809Y-81407200D01*
X152273809Y-81407200D02*
X152178571Y-81454819D01*
X152178571Y-81454819D02*
X152083333Y-81454819D01*
X152083333Y-81454819D02*
X151988095Y-81407200D01*
X151988095Y-81407200D02*
X151940476Y-81359580D01*
X151940476Y-81359580D02*
X151892857Y-81264342D01*
X151892857Y-81264342D02*
X151845238Y-81073866D01*
X151845238Y-81073866D02*
X151845238Y-80835771D01*
X151845238Y-80835771D02*
X151892857Y-80645295D01*
X151892857Y-80645295D02*
X151940476Y-80550057D01*
X151940476Y-80550057D02*
X151988095Y-80502438D01*
X151988095Y-80502438D02*
X152083333Y-80454819D01*
X153273809Y-80788152D02*
X153273809Y-81454819D01*
X153035714Y-80407200D02*
X152797619Y-81121485D01*
X152797619Y-81121485D02*
X153416666Y-81121485D01*
X111166667Y-88442319D02*
X111166667Y-87442319D01*
X111166667Y-87442319D02*
X111547619Y-87442319D01*
X111547619Y-87442319D02*
X111642857Y-87489938D01*
X111642857Y-87489938D02*
X111690476Y-87537557D01*
X111690476Y-87537557D02*
X111738095Y-87632795D01*
X111738095Y-87632795D02*
X111738095Y-87775652D01*
X111738095Y-87775652D02*
X111690476Y-87870890D01*
X111690476Y-87870890D02*
X111642857Y-87918509D01*
X111642857Y-87918509D02*
X111547619Y-87966128D01*
X111547619Y-87966128D02*
X111166667Y-87966128D01*
X112071429Y-87442319D02*
X112309524Y-88442319D01*
X112309524Y-88442319D02*
X112500000Y-87728033D01*
X112500000Y-87728033D02*
X112690476Y-88442319D01*
X112690476Y-88442319D02*
X112928572Y-87442319D01*
X113880952Y-88442319D02*
X113547619Y-87966128D01*
X113309524Y-88442319D02*
X113309524Y-87442319D01*
X113309524Y-87442319D02*
X113690476Y-87442319D01*
X113690476Y-87442319D02*
X113785714Y-87489938D01*
X113785714Y-87489938D02*
X113833333Y-87537557D01*
X113833333Y-87537557D02*
X113880952Y-87632795D01*
X113880952Y-87632795D02*
X113880952Y-87775652D01*
X113880952Y-87775652D02*
X113833333Y-87870890D01*
X113833333Y-87870890D02*
X113785714Y-87918509D01*
X113785714Y-87918509D02*
X113690476Y-87966128D01*
X113690476Y-87966128D02*
X113309524Y-87966128D01*
X111214285Y-78322319D02*
X111214285Y-79036604D01*
X111214285Y-79036604D02*
X111166666Y-79179461D01*
X111166666Y-79179461D02*
X111071428Y-79274700D01*
X111071428Y-79274700D02*
X110928571Y-79322319D01*
X110928571Y-79322319D02*
X110833333Y-79322319D01*
X112214285Y-79322319D02*
X111642857Y-79322319D01*
X111928571Y-79322319D02*
X111928571Y-78322319D01*
X111928571Y-78322319D02*
X111833333Y-78465176D01*
X111833333Y-78465176D02*
X111738095Y-78560414D01*
X111738095Y-78560414D02*
X111642857Y-78608033D01*
X112833333Y-78322319D02*
X112928571Y-78322319D01*
X112928571Y-78322319D02*
X113023809Y-78369938D01*
X113023809Y-78369938D02*
X113071428Y-78417557D01*
X113071428Y-78417557D02*
X113119047Y-78512795D01*
X113119047Y-78512795D02*
X113166666Y-78703271D01*
X113166666Y-78703271D02*
X113166666Y-78941366D01*
X113166666Y-78941366D02*
X113119047Y-79131842D01*
X113119047Y-79131842D02*
X113071428Y-79227080D01*
X113071428Y-79227080D02*
X113023809Y-79274700D01*
X113023809Y-79274700D02*
X112928571Y-79322319D01*
X112928571Y-79322319D02*
X112833333Y-79322319D01*
X112833333Y-79322319D02*
X112738095Y-79274700D01*
X112738095Y-79274700D02*
X112690476Y-79227080D01*
X112690476Y-79227080D02*
X112642857Y-79131842D01*
X112642857Y-79131842D02*
X112595238Y-78941366D01*
X112595238Y-78941366D02*
X112595238Y-78703271D01*
X112595238Y-78703271D02*
X112642857Y-78512795D01*
X112642857Y-78512795D02*
X112690476Y-78417557D01*
X112690476Y-78417557D02*
X112738095Y-78369938D01*
X112738095Y-78369938D02*
X112833333Y-78322319D01*
X114119047Y-79322319D02*
X113547619Y-79322319D01*
X113833333Y-79322319D02*
X113833333Y-78322319D01*
X113833333Y-78322319D02*
X113738095Y-78465176D01*
X113738095Y-78465176D02*
X113642857Y-78560414D01*
X113642857Y-78560414D02*
X113547619Y-78608033D01*
X130788152Y-100952380D02*
X131454819Y-100952380D01*
X130407200Y-101190475D02*
X131121485Y-101428570D01*
X131121485Y-101428570D02*
X131121485Y-100809523D01*
X131454819Y-100428570D02*
X130788152Y-100428570D01*
X130883390Y-100428570D02*
X130835771Y-100380951D01*
X130835771Y-100380951D02*
X130788152Y-100285713D01*
X130788152Y-100285713D02*
X130788152Y-100142856D01*
X130788152Y-100142856D02*
X130835771Y-100047618D01*
X130835771Y-100047618D02*
X130931009Y-99999999D01*
X130931009Y-99999999D02*
X131454819Y-99999999D01*
X130931009Y-99999999D02*
X130835771Y-99952380D01*
X130835771Y-99952380D02*
X130788152Y-99857142D01*
X130788152Y-99857142D02*
X130788152Y-99714285D01*
X130788152Y-99714285D02*
X130835771Y-99619046D01*
X130835771Y-99619046D02*
X130931009Y-99571427D01*
X130931009Y-99571427D02*
X131454819Y-99571427D01*
X130454819Y-99190475D02*
X130454819Y-98523809D01*
X130454819Y-98523809D02*
X131454819Y-98952380D01*
X140454819Y-101119047D02*
X140454819Y-101595237D01*
X140454819Y-101595237D02*
X139454819Y-101595237D01*
X140454819Y-100261904D02*
X140454819Y-100833332D01*
X140454819Y-100547618D02*
X139454819Y-100547618D01*
X139454819Y-100547618D02*
X139597676Y-100642856D01*
X139597676Y-100642856D02*
X139692914Y-100738094D01*
X139692914Y-100738094D02*
X139740533Y-100833332D01*
X139454819Y-99642856D02*
X139454819Y-99547618D01*
X139454819Y-99547618D02*
X139502438Y-99452380D01*
X139502438Y-99452380D02*
X139550057Y-99404761D01*
X139550057Y-99404761D02*
X139645295Y-99357142D01*
X139645295Y-99357142D02*
X139835771Y-99309523D01*
X139835771Y-99309523D02*
X140073866Y-99309523D01*
X140073866Y-99309523D02*
X140264342Y-99357142D01*
X140264342Y-99357142D02*
X140359580Y-99404761D01*
X140359580Y-99404761D02*
X140407200Y-99452380D01*
X140407200Y-99452380D02*
X140454819Y-99547618D01*
X140454819Y-99547618D02*
X140454819Y-99642856D01*
X140454819Y-99642856D02*
X140407200Y-99738094D01*
X140407200Y-99738094D02*
X140359580Y-99785713D01*
X140359580Y-99785713D02*
X140264342Y-99833332D01*
X140264342Y-99833332D02*
X140073866Y-99880951D01*
X140073866Y-99880951D02*
X139835771Y-99880951D01*
X139835771Y-99880951D02*
X139645295Y-99833332D01*
X139645295Y-99833332D02*
X139550057Y-99785713D01*
X139550057Y-99785713D02*
X139502438Y-99738094D01*
X139502438Y-99738094D02*
X139454819Y-99642856D01*
X139454819Y-98976189D02*
X139454819Y-98309523D01*
X139454819Y-98309523D02*
X140454819Y-98738094D01*
X175442319Y-83785714D02*
X174966128Y-84119047D01*
X175442319Y-84357142D02*
X174442319Y-84357142D01*
X174442319Y-84357142D02*
X174442319Y-83976190D01*
X174442319Y-83976190D02*
X174489938Y-83880952D01*
X174489938Y-83880952D02*
X174537557Y-83833333D01*
X174537557Y-83833333D02*
X174632795Y-83785714D01*
X174632795Y-83785714D02*
X174775652Y-83785714D01*
X174775652Y-83785714D02*
X174870890Y-83833333D01*
X174870890Y-83833333D02*
X174918509Y-83880952D01*
X174918509Y-83880952D02*
X174966128Y-83976190D01*
X174966128Y-83976190D02*
X174966128Y-84357142D01*
X175394700Y-83404761D02*
X175442319Y-83261904D01*
X175442319Y-83261904D02*
X175442319Y-83023809D01*
X175442319Y-83023809D02*
X175394700Y-82928571D01*
X175394700Y-82928571D02*
X175347080Y-82880952D01*
X175347080Y-82880952D02*
X175251842Y-82833333D01*
X175251842Y-82833333D02*
X175156604Y-82833333D01*
X175156604Y-82833333D02*
X175061366Y-82880952D01*
X175061366Y-82880952D02*
X175013747Y-82928571D01*
X175013747Y-82928571D02*
X174966128Y-83023809D01*
X174966128Y-83023809D02*
X174918509Y-83214285D01*
X174918509Y-83214285D02*
X174870890Y-83309523D01*
X174870890Y-83309523D02*
X174823271Y-83357142D01*
X174823271Y-83357142D02*
X174728033Y-83404761D01*
X174728033Y-83404761D02*
X174632795Y-83404761D01*
X174632795Y-83404761D02*
X174537557Y-83357142D01*
X174537557Y-83357142D02*
X174489938Y-83309523D01*
X174489938Y-83309523D02*
X174442319Y-83214285D01*
X174442319Y-83214285D02*
X174442319Y-82976190D01*
X174442319Y-82976190D02*
X174489938Y-82833333D01*
X174775652Y-81976190D02*
X175442319Y-81976190D01*
X174394700Y-82214285D02*
X175108985Y-82452380D01*
X175108985Y-82452380D02*
X175108985Y-81833333D01*
X174870890Y-81309523D02*
X174823271Y-81404761D01*
X174823271Y-81404761D02*
X174775652Y-81452380D01*
X174775652Y-81452380D02*
X174680414Y-81499999D01*
X174680414Y-81499999D02*
X174632795Y-81499999D01*
X174632795Y-81499999D02*
X174537557Y-81452380D01*
X174537557Y-81452380D02*
X174489938Y-81404761D01*
X174489938Y-81404761D02*
X174442319Y-81309523D01*
X174442319Y-81309523D02*
X174442319Y-81119047D01*
X174442319Y-81119047D02*
X174489938Y-81023809D01*
X174489938Y-81023809D02*
X174537557Y-80976190D01*
X174537557Y-80976190D02*
X174632795Y-80928571D01*
X174632795Y-80928571D02*
X174680414Y-80928571D01*
X174680414Y-80928571D02*
X174775652Y-80976190D01*
X174775652Y-80976190D02*
X174823271Y-81023809D01*
X174823271Y-81023809D02*
X174870890Y-81119047D01*
X174870890Y-81119047D02*
X174870890Y-81309523D01*
X174870890Y-81309523D02*
X174918509Y-81404761D01*
X174918509Y-81404761D02*
X174966128Y-81452380D01*
X174966128Y-81452380D02*
X175061366Y-81499999D01*
X175061366Y-81499999D02*
X175251842Y-81499999D01*
X175251842Y-81499999D02*
X175347080Y-81452380D01*
X175347080Y-81452380D02*
X175394700Y-81404761D01*
X175394700Y-81404761D02*
X175442319Y-81309523D01*
X175442319Y-81309523D02*
X175442319Y-81119047D01*
X175442319Y-81119047D02*
X175394700Y-81023809D01*
X175394700Y-81023809D02*
X175347080Y-80976190D01*
X175347080Y-80976190D02*
X175251842Y-80928571D01*
X175251842Y-80928571D02*
X175061366Y-80928571D01*
X175061366Y-80928571D02*
X174966128Y-80976190D01*
X174966128Y-80976190D02*
X174918509Y-81023809D01*
X174918509Y-81023809D02*
X174870890Y-81119047D01*
X174442319Y-80023809D02*
X174442319Y-80499999D01*
X174442319Y-80499999D02*
X174918509Y-80547618D01*
X174918509Y-80547618D02*
X174870890Y-80499999D01*
X174870890Y-80499999D02*
X174823271Y-80404761D01*
X174823271Y-80404761D02*
X174823271Y-80166666D01*
X174823271Y-80166666D02*
X174870890Y-80071428D01*
X174870890Y-80071428D02*
X174918509Y-80023809D01*
X174918509Y-80023809D02*
X175013747Y-79976190D01*
X175013747Y-79976190D02*
X175251842Y-79976190D01*
X175251842Y-79976190D02*
X175347080Y-80023809D01*
X175347080Y-80023809D02*
X175394700Y-80071428D01*
X175394700Y-80071428D02*
X175442319Y-80166666D01*
X175442319Y-80166666D02*
X175442319Y-80404761D01*
X175442319Y-80404761D02*
X175394700Y-80499999D01*
X175394700Y-80499999D02*
X175347080Y-80547618D01*
X175061366Y-79547618D02*
X175061366Y-78785714D01*
X175442319Y-79166666D02*
X174680414Y-79166666D01*
X175442319Y-78309523D02*
X174442319Y-78309523D01*
X174442319Y-78309523D02*
X174442319Y-77928571D01*
X174442319Y-77928571D02*
X174489938Y-77833333D01*
X174489938Y-77833333D02*
X174537557Y-77785714D01*
X174537557Y-77785714D02*
X174632795Y-77738095D01*
X174632795Y-77738095D02*
X174775652Y-77738095D01*
X174775652Y-77738095D02*
X174870890Y-77785714D01*
X174870890Y-77785714D02*
X174918509Y-77833333D01*
X174918509Y-77833333D02*
X174966128Y-77928571D01*
X174966128Y-77928571D02*
X174966128Y-78309523D01*
X174442319Y-77404761D02*
X175442319Y-77166666D01*
X175442319Y-77166666D02*
X174728033Y-76976190D01*
X174728033Y-76976190D02*
X175442319Y-76785714D01*
X175442319Y-76785714D02*
X174442319Y-76547619D01*
X175442319Y-75595238D02*
X174966128Y-75928571D01*
X175442319Y-76166666D02*
X174442319Y-76166666D01*
X174442319Y-76166666D02*
X174442319Y-75785714D01*
X174442319Y-75785714D02*
X174489938Y-75690476D01*
X174489938Y-75690476D02*
X174537557Y-75642857D01*
X174537557Y-75642857D02*
X174632795Y-75595238D01*
X174632795Y-75595238D02*
X174775652Y-75595238D01*
X174775652Y-75595238D02*
X174870890Y-75642857D01*
X174870890Y-75642857D02*
X174918509Y-75690476D01*
X174918509Y-75690476D02*
X174966128Y-75785714D01*
X174966128Y-75785714D02*
X174966128Y-76166666D01*
X165322319Y-81285714D02*
X166036604Y-81285714D01*
X166036604Y-81285714D02*
X166179461Y-81333333D01*
X166179461Y-81333333D02*
X166274700Y-81428571D01*
X166274700Y-81428571D02*
X166322319Y-81571428D01*
X166322319Y-81571428D02*
X166322319Y-81666666D01*
X166322319Y-80285714D02*
X166322319Y-80857142D01*
X166322319Y-80571428D02*
X165322319Y-80571428D01*
X165322319Y-80571428D02*
X165465176Y-80666666D01*
X165465176Y-80666666D02*
X165560414Y-80761904D01*
X165560414Y-80761904D02*
X165608033Y-80857142D01*
X165322319Y-79666666D02*
X165322319Y-79571428D01*
X165322319Y-79571428D02*
X165369938Y-79476190D01*
X165369938Y-79476190D02*
X165417557Y-79428571D01*
X165417557Y-79428571D02*
X165512795Y-79380952D01*
X165512795Y-79380952D02*
X165703271Y-79333333D01*
X165703271Y-79333333D02*
X165941366Y-79333333D01*
X165941366Y-79333333D02*
X166131842Y-79380952D01*
X166131842Y-79380952D02*
X166227080Y-79428571D01*
X166227080Y-79428571D02*
X166274700Y-79476190D01*
X166274700Y-79476190D02*
X166322319Y-79571428D01*
X166322319Y-79571428D02*
X166322319Y-79666666D01*
X166322319Y-79666666D02*
X166274700Y-79761904D01*
X166274700Y-79761904D02*
X166227080Y-79809523D01*
X166227080Y-79809523D02*
X166131842Y-79857142D01*
X166131842Y-79857142D02*
X165941366Y-79904761D01*
X165941366Y-79904761D02*
X165703271Y-79904761D01*
X165703271Y-79904761D02*
X165512795Y-79857142D01*
X165512795Y-79857142D02*
X165417557Y-79809523D01*
X165417557Y-79809523D02*
X165369938Y-79761904D01*
X165369938Y-79761904D02*
X165322319Y-79666666D01*
X165322319Y-78999999D02*
X165322319Y-78380952D01*
X165322319Y-78380952D02*
X165703271Y-78714285D01*
X165703271Y-78714285D02*
X165703271Y-78571428D01*
X165703271Y-78571428D02*
X165750890Y-78476190D01*
X165750890Y-78476190D02*
X165798509Y-78428571D01*
X165798509Y-78428571D02*
X165893747Y-78380952D01*
X165893747Y-78380952D02*
X166131842Y-78380952D01*
X166131842Y-78380952D02*
X166227080Y-78428571D01*
X166227080Y-78428571D02*
X166274700Y-78476190D01*
X166274700Y-78476190D02*
X166322319Y-78571428D01*
X166322319Y-78571428D02*
X166322319Y-78857142D01*
X166322319Y-78857142D02*
X166274700Y-78952380D01*
X166274700Y-78952380D02*
X166227080Y-78999999D01*
X102285714Y-78134819D02*
X101714286Y-78134819D01*
X102000000Y-78134819D02*
X102000000Y-77134819D01*
X102000000Y-77134819D02*
X101904762Y-77277676D01*
X101904762Y-77277676D02*
X101809524Y-77372914D01*
X101809524Y-77372914D02*
X101714286Y-77420533D01*
X102904762Y-77134819D02*
X103000000Y-77134819D01*
X103000000Y-77134819D02*
X103095238Y-77182438D01*
X103095238Y-77182438D02*
X103142857Y-77230057D01*
X103142857Y-77230057D02*
X103190476Y-77325295D01*
X103190476Y-77325295D02*
X103238095Y-77515771D01*
X103238095Y-77515771D02*
X103238095Y-77753866D01*
X103238095Y-77753866D02*
X103190476Y-77944342D01*
X103190476Y-77944342D02*
X103142857Y-78039580D01*
X103142857Y-78039580D02*
X103095238Y-78087200D01*
X103095238Y-78087200D02*
X103000000Y-78134819D01*
X103000000Y-78134819D02*
X102904762Y-78134819D01*
X102904762Y-78134819D02*
X102809524Y-78087200D01*
X102809524Y-78087200D02*
X102761905Y-78039580D01*
X102761905Y-78039580D02*
X102714286Y-77944342D01*
X102714286Y-77944342D02*
X102666667Y-77753866D01*
X102666667Y-77753866D02*
X102666667Y-77515771D01*
X102666667Y-77515771D02*
X102714286Y-77325295D01*
X102714286Y-77325295D02*
X102761905Y-77230057D01*
X102761905Y-77230057D02*
X102809524Y-77182438D01*
X102809524Y-77182438D02*
X102904762Y-77134819D01*
X103666667Y-77468152D02*
X103666667Y-78468152D01*
X104142857Y-77991961D02*
X104190476Y-78087200D01*
X104190476Y-78087200D02*
X104285714Y-78134819D01*
X103666667Y-77991961D02*
X103714286Y-78087200D01*
X103714286Y-78087200D02*
X103809524Y-78134819D01*
X103809524Y-78134819D02*
X104000000Y-78134819D01*
X104000000Y-78134819D02*
X104095238Y-78087200D01*
X104095238Y-78087200D02*
X104142857Y-77991961D01*
X104142857Y-77991961D02*
X104142857Y-77468152D01*
D12*
X102440476Y-76179530D02*
X102416667Y-76203340D01*
X102416667Y-76203340D02*
X102345238Y-76227149D01*
X102345238Y-76227149D02*
X102297619Y-76227149D01*
X102297619Y-76227149D02*
X102226191Y-76203340D01*
X102226191Y-76203340D02*
X102178572Y-76155720D01*
X102178572Y-76155720D02*
X102154762Y-76108101D01*
X102154762Y-76108101D02*
X102130953Y-76012863D01*
X102130953Y-76012863D02*
X102130953Y-75941435D01*
X102130953Y-75941435D02*
X102154762Y-75846197D01*
X102154762Y-75846197D02*
X102178572Y-75798578D01*
X102178572Y-75798578D02*
X102226191Y-75750959D01*
X102226191Y-75750959D02*
X102297619Y-75727149D01*
X102297619Y-75727149D02*
X102345238Y-75727149D01*
X102345238Y-75727149D02*
X102416667Y-75750959D01*
X102416667Y-75750959D02*
X102440476Y-75774768D01*
X102916667Y-76227149D02*
X102630953Y-76227149D01*
X102773810Y-76227149D02*
X102773810Y-75727149D01*
X102773810Y-75727149D02*
X102726191Y-75798578D01*
X102726191Y-75798578D02*
X102678572Y-75846197D01*
X102678572Y-75846197D02*
X102630953Y-75870006D01*
X103226190Y-75727149D02*
X103273809Y-75727149D01*
X103273809Y-75727149D02*
X103321428Y-75750959D01*
X103321428Y-75750959D02*
X103345238Y-75774768D01*
X103345238Y-75774768D02*
X103369047Y-75822387D01*
X103369047Y-75822387D02*
X103392857Y-75917625D01*
X103392857Y-75917625D02*
X103392857Y-76036673D01*
X103392857Y-76036673D02*
X103369047Y-76131911D01*
X103369047Y-76131911D02*
X103345238Y-76179530D01*
X103345238Y-76179530D02*
X103321428Y-76203340D01*
X103321428Y-76203340D02*
X103273809Y-76227149D01*
X103273809Y-76227149D02*
X103226190Y-76227149D01*
X103226190Y-76227149D02*
X103178571Y-76203340D01*
X103178571Y-76203340D02*
X103154762Y-76179530D01*
X103154762Y-76179530D02*
X103130952Y-76131911D01*
X103130952Y-76131911D02*
X103107143Y-76036673D01*
X103107143Y-76036673D02*
X103107143Y-75917625D01*
X103107143Y-75917625D02*
X103130952Y-75822387D01*
X103130952Y-75822387D02*
X103154762Y-75774768D01*
X103154762Y-75774768D02*
X103178571Y-75750959D01*
X103178571Y-75750959D02*
X103226190Y-75727149D01*
X103869047Y-76227149D02*
X103583333Y-76227149D01*
X103726190Y-76227149D02*
X103726190Y-75727149D01*
X103726190Y-75727149D02*
X103678571Y-75798578D01*
X103678571Y-75798578D02*
X103630952Y-75846197D01*
X103630952Y-75846197D02*
X103583333Y-75870006D01*
D10*
X129896786Y-87904819D02*
X130468214Y-87904819D01*
X130182500Y-88904819D02*
X130182500Y-87904819D01*
X130753929Y-88857200D02*
X130896786Y-88904819D01*
X130896786Y-88904819D02*
X131134881Y-88904819D01*
X131134881Y-88904819D02*
X131230119Y-88857200D01*
X131230119Y-88857200D02*
X131277738Y-88809580D01*
X131277738Y-88809580D02*
X131325357Y-88714342D01*
X131325357Y-88714342D02*
X131325357Y-88619104D01*
X131325357Y-88619104D02*
X131277738Y-88523866D01*
X131277738Y-88523866D02*
X131230119Y-88476247D01*
X131230119Y-88476247D02*
X131134881Y-88428628D01*
X131134881Y-88428628D02*
X130944405Y-88381009D01*
X130944405Y-88381009D02*
X130849167Y-88333390D01*
X130849167Y-88333390D02*
X130801548Y-88285771D01*
X130801548Y-88285771D02*
X130753929Y-88190533D01*
X130753929Y-88190533D02*
X130753929Y-88095295D01*
X130753929Y-88095295D02*
X130801548Y-88000057D01*
X130801548Y-88000057D02*
X130849167Y-87952438D01*
X130849167Y-87952438D02*
X130944405Y-87904819D01*
X130944405Y-87904819D02*
X131182500Y-87904819D01*
X131182500Y-87904819D02*
X131325357Y-87952438D01*
X132325357Y-88904819D02*
X131992024Y-88428628D01*
X131753929Y-88904819D02*
X131753929Y-87904819D01*
X131753929Y-87904819D02*
X132134881Y-87904819D01*
X132134881Y-87904819D02*
X132230119Y-87952438D01*
X132230119Y-87952438D02*
X132277738Y-88000057D01*
X132277738Y-88000057D02*
X132325357Y-88095295D01*
X132325357Y-88095295D02*
X132325357Y-88238152D01*
X132325357Y-88238152D02*
X132277738Y-88333390D01*
X132277738Y-88333390D02*
X132230119Y-88381009D01*
X132230119Y-88381009D02*
X132134881Y-88428628D01*
X132134881Y-88428628D02*
X131753929Y-88428628D01*
X132658691Y-87904819D02*
X133277738Y-87904819D01*
X133277738Y-87904819D02*
X132944405Y-88285771D01*
X132944405Y-88285771D02*
X133087262Y-88285771D01*
X133087262Y-88285771D02*
X133182500Y-88333390D01*
X133182500Y-88333390D02*
X133230119Y-88381009D01*
X133230119Y-88381009D02*
X133277738Y-88476247D01*
X133277738Y-88476247D02*
X133277738Y-88714342D01*
X133277738Y-88714342D02*
X133230119Y-88809580D01*
X133230119Y-88809580D02*
X133182500Y-88857200D01*
X133182500Y-88857200D02*
X133087262Y-88904819D01*
X133087262Y-88904819D02*
X132801548Y-88904819D01*
X132801548Y-88904819D02*
X132706310Y-88857200D01*
X132706310Y-88857200D02*
X132658691Y-88809580D01*
X133706310Y-88523866D02*
X134468215Y-88523866D01*
X134896786Y-88000057D02*
X134944405Y-87952438D01*
X134944405Y-87952438D02*
X135039643Y-87904819D01*
X135039643Y-87904819D02*
X135277738Y-87904819D01*
X135277738Y-87904819D02*
X135372976Y-87952438D01*
X135372976Y-87952438D02*
X135420595Y-88000057D01*
X135420595Y-88000057D02*
X135468214Y-88095295D01*
X135468214Y-88095295D02*
X135468214Y-88190533D01*
X135468214Y-88190533D02*
X135420595Y-88333390D01*
X135420595Y-88333390D02*
X134849167Y-88904819D01*
X134849167Y-88904819D02*
X135468214Y-88904819D01*
X136325357Y-88238152D02*
X136325357Y-88904819D01*
X136087262Y-87857200D02*
X135849167Y-88571485D01*
X135849167Y-88571485D02*
X136468214Y-88571485D01*
X137325357Y-87904819D02*
X136849167Y-87904819D01*
X136849167Y-87904819D02*
X136801548Y-88381009D01*
X136801548Y-88381009D02*
X136849167Y-88333390D01*
X136849167Y-88333390D02*
X136944405Y-88285771D01*
X136944405Y-88285771D02*
X137182500Y-88285771D01*
X137182500Y-88285771D02*
X137277738Y-88333390D01*
X137277738Y-88333390D02*
X137325357Y-88381009D01*
X137325357Y-88381009D02*
X137372976Y-88476247D01*
X137372976Y-88476247D02*
X137372976Y-88714342D01*
X137372976Y-88714342D02*
X137325357Y-88809580D01*
X137325357Y-88809580D02*
X137277738Y-88857200D01*
X137277738Y-88857200D02*
X137182500Y-88904819D01*
X137182500Y-88904819D02*
X136944405Y-88904819D01*
X136944405Y-88904819D02*
X136849167Y-88857200D01*
X136849167Y-88857200D02*
X136801548Y-88809580D01*
X137992024Y-87904819D02*
X138087262Y-87904819D01*
X138087262Y-87904819D02*
X138182500Y-87952438D01*
X138182500Y-87952438D02*
X138230119Y-88000057D01*
X138230119Y-88000057D02*
X138277738Y-88095295D01*
X138277738Y-88095295D02*
X138325357Y-88285771D01*
X138325357Y-88285771D02*
X138325357Y-88523866D01*
X138325357Y-88523866D02*
X138277738Y-88714342D01*
X138277738Y-88714342D02*
X138230119Y-88809580D01*
X138230119Y-88809580D02*
X138182500Y-88857200D01*
X138182500Y-88857200D02*
X138087262Y-88904819D01*
X138087262Y-88904819D02*
X137992024Y-88904819D01*
X137992024Y-88904819D02*
X137896786Y-88857200D01*
X137896786Y-88857200D02*
X137849167Y-88809580D01*
X137849167Y-88809580D02*
X137801548Y-88714342D01*
X137801548Y-88714342D02*
X137753929Y-88523866D01*
X137753929Y-88523866D02*
X137753929Y-88285771D01*
X137753929Y-88285771D02*
X137801548Y-88095295D01*
X137801548Y-88095295D02*
X137849167Y-88000057D01*
X137849167Y-88000057D02*
X137896786Y-87952438D01*
X137896786Y-87952438D02*
X137992024Y-87904819D01*
X138753929Y-88904819D02*
X138753929Y-87904819D01*
X138753929Y-87904819D02*
X139325357Y-88904819D01*
X139325357Y-88904819D02*
X139325357Y-87904819D01*
X132968214Y-79454819D02*
X132968214Y-80264342D01*
X132968214Y-80264342D02*
X133015833Y-80359580D01*
X133015833Y-80359580D02*
X133063452Y-80407200D01*
X133063452Y-80407200D02*
X133158690Y-80454819D01*
X133158690Y-80454819D02*
X133349166Y-80454819D01*
X133349166Y-80454819D02*
X133444404Y-80407200D01*
X133444404Y-80407200D02*
X133492023Y-80359580D01*
X133492023Y-80359580D02*
X133539642Y-80264342D01*
X133539642Y-80264342D02*
X133539642Y-79454819D01*
X134539642Y-80454819D02*
X133968214Y-80454819D01*
X134253928Y-80454819D02*
X134253928Y-79454819D01*
X134253928Y-79454819D02*
X134158690Y-79597676D01*
X134158690Y-79597676D02*
X134063452Y-79692914D01*
X134063452Y-79692914D02*
X133968214Y-79740533D01*
X135158690Y-79454819D02*
X135253928Y-79454819D01*
X135253928Y-79454819D02*
X135349166Y-79502438D01*
X135349166Y-79502438D02*
X135396785Y-79550057D01*
X135396785Y-79550057D02*
X135444404Y-79645295D01*
X135444404Y-79645295D02*
X135492023Y-79835771D01*
X135492023Y-79835771D02*
X135492023Y-80073866D01*
X135492023Y-80073866D02*
X135444404Y-80264342D01*
X135444404Y-80264342D02*
X135396785Y-80359580D01*
X135396785Y-80359580D02*
X135349166Y-80407200D01*
X135349166Y-80407200D02*
X135253928Y-80454819D01*
X135253928Y-80454819D02*
X135158690Y-80454819D01*
X135158690Y-80454819D02*
X135063452Y-80407200D01*
X135063452Y-80407200D02*
X135015833Y-80359580D01*
X135015833Y-80359580D02*
X134968214Y-80264342D01*
X134968214Y-80264342D02*
X134920595Y-80073866D01*
X134920595Y-80073866D02*
X134920595Y-79835771D01*
X134920595Y-79835771D02*
X134968214Y-79645295D01*
X134968214Y-79645295D02*
X135015833Y-79550057D01*
X135015833Y-79550057D02*
X135063452Y-79502438D01*
X135063452Y-79502438D02*
X135158690Y-79454819D01*
X136444404Y-80454819D02*
X135872976Y-80454819D01*
X136158690Y-80454819D02*
X136158690Y-79454819D01*
X136158690Y-79454819D02*
X136063452Y-79597676D01*
X136063452Y-79597676D02*
X135968214Y-79692914D01*
X135968214Y-79692914D02*
X135872976Y-79740533D01*
X150788152Y-60952380D02*
X151454819Y-60952380D01*
X150407200Y-61190475D02*
X151121485Y-61428570D01*
X151121485Y-61428570D02*
X151121485Y-60809523D01*
X151454819Y-60428570D02*
X150788152Y-60428570D01*
X150883390Y-60428570D02*
X150835771Y-60380951D01*
X150835771Y-60380951D02*
X150788152Y-60285713D01*
X150788152Y-60285713D02*
X150788152Y-60142856D01*
X150788152Y-60142856D02*
X150835771Y-60047618D01*
X150835771Y-60047618D02*
X150931009Y-59999999D01*
X150931009Y-59999999D02*
X151454819Y-59999999D01*
X150931009Y-59999999D02*
X150835771Y-59952380D01*
X150835771Y-59952380D02*
X150788152Y-59857142D01*
X150788152Y-59857142D02*
X150788152Y-59714285D01*
X150788152Y-59714285D02*
X150835771Y-59619046D01*
X150835771Y-59619046D02*
X150931009Y-59571427D01*
X150931009Y-59571427D02*
X151454819Y-59571427D01*
X150454819Y-59190475D02*
X150454819Y-58523809D01*
X150454819Y-58523809D02*
X151454819Y-58952380D01*
X160454819Y-61119047D02*
X160454819Y-61595237D01*
X160454819Y-61595237D02*
X159454819Y-61595237D01*
X160454819Y-60261904D02*
X160454819Y-60833332D01*
X160454819Y-60547618D02*
X159454819Y-60547618D01*
X159454819Y-60547618D02*
X159597676Y-60642856D01*
X159597676Y-60642856D02*
X159692914Y-60738094D01*
X159692914Y-60738094D02*
X159740533Y-60833332D01*
X159454819Y-59642856D02*
X159454819Y-59547618D01*
X159454819Y-59547618D02*
X159502438Y-59452380D01*
X159502438Y-59452380D02*
X159550057Y-59404761D01*
X159550057Y-59404761D02*
X159645295Y-59357142D01*
X159645295Y-59357142D02*
X159835771Y-59309523D01*
X159835771Y-59309523D02*
X160073866Y-59309523D01*
X160073866Y-59309523D02*
X160264342Y-59357142D01*
X160264342Y-59357142D02*
X160359580Y-59404761D01*
X160359580Y-59404761D02*
X160407200Y-59452380D01*
X160407200Y-59452380D02*
X160454819Y-59547618D01*
X160454819Y-59547618D02*
X160454819Y-59642856D01*
X160454819Y-59642856D02*
X160407200Y-59738094D01*
X160407200Y-59738094D02*
X160359580Y-59785713D01*
X160359580Y-59785713D02*
X160264342Y-59833332D01*
X160264342Y-59833332D02*
X160073866Y-59880951D01*
X160073866Y-59880951D02*
X159835771Y-59880951D01*
X159835771Y-59880951D02*
X159645295Y-59833332D01*
X159645295Y-59833332D02*
X159550057Y-59785713D01*
X159550057Y-59785713D02*
X159502438Y-59738094D01*
X159502438Y-59738094D02*
X159454819Y-59642856D01*
X159788152Y-58452380D02*
X160454819Y-58452380D01*
X159407200Y-58690475D02*
X160121485Y-58928570D01*
X160121485Y-58928570D02*
X160121485Y-58309523D01*
X150788152Y-100952380D02*
X151454819Y-100952380D01*
X150407200Y-101190475D02*
X151121485Y-101428570D01*
X151121485Y-101428570D02*
X151121485Y-100809523D01*
X151454819Y-100428570D02*
X150788152Y-100428570D01*
X150883390Y-100428570D02*
X150835771Y-100380951D01*
X150835771Y-100380951D02*
X150788152Y-100285713D01*
X150788152Y-100285713D02*
X150788152Y-100142856D01*
X150788152Y-100142856D02*
X150835771Y-100047618D01*
X150835771Y-100047618D02*
X150931009Y-99999999D01*
X150931009Y-99999999D02*
X151454819Y-99999999D01*
X150931009Y-99999999D02*
X150835771Y-99952380D01*
X150835771Y-99952380D02*
X150788152Y-99857142D01*
X150788152Y-99857142D02*
X150788152Y-99714285D01*
X150788152Y-99714285D02*
X150835771Y-99619046D01*
X150835771Y-99619046D02*
X150931009Y-99571427D01*
X150931009Y-99571427D02*
X151454819Y-99571427D01*
X150454819Y-99190475D02*
X150454819Y-98523809D01*
X150454819Y-98523809D02*
X151454819Y-98952380D01*
X160454819Y-101119047D02*
X160454819Y-101595237D01*
X160454819Y-101595237D02*
X159454819Y-101595237D01*
X160454819Y-100261904D02*
X160454819Y-100833332D01*
X160454819Y-100547618D02*
X159454819Y-100547618D01*
X159454819Y-100547618D02*
X159597676Y-100642856D01*
X159597676Y-100642856D02*
X159692914Y-100738094D01*
X159692914Y-100738094D02*
X159740533Y-100833332D01*
X159454819Y-99642856D02*
X159454819Y-99547618D01*
X159454819Y-99547618D02*
X159502438Y-99452380D01*
X159502438Y-99452380D02*
X159550057Y-99404761D01*
X159550057Y-99404761D02*
X159645295Y-99357142D01*
X159645295Y-99357142D02*
X159835771Y-99309523D01*
X159835771Y-99309523D02*
X160073866Y-99309523D01*
X160073866Y-99309523D02*
X160264342Y-99357142D01*
X160264342Y-99357142D02*
X160359580Y-99404761D01*
X160359580Y-99404761D02*
X160407200Y-99452380D01*
X160407200Y-99452380D02*
X160454819Y-99547618D01*
X160454819Y-99547618D02*
X160454819Y-99642856D01*
X160454819Y-99642856D02*
X160407200Y-99738094D01*
X160407200Y-99738094D02*
X160359580Y-99785713D01*
X160359580Y-99785713D02*
X160264342Y-99833332D01*
X160264342Y-99833332D02*
X160073866Y-99880951D01*
X160073866Y-99880951D02*
X159835771Y-99880951D01*
X159835771Y-99880951D02*
X159645295Y-99833332D01*
X159645295Y-99833332D02*
X159550057Y-99785713D01*
X159550057Y-99785713D02*
X159502438Y-99738094D01*
X159502438Y-99738094D02*
X159454819Y-99642856D01*
X159883390Y-98738094D02*
X159835771Y-98833332D01*
X159835771Y-98833332D02*
X159788152Y-98880951D01*
X159788152Y-98880951D02*
X159692914Y-98928570D01*
X159692914Y-98928570D02*
X159645295Y-98928570D01*
X159645295Y-98928570D02*
X159550057Y-98880951D01*
X159550057Y-98880951D02*
X159502438Y-98833332D01*
X159502438Y-98833332D02*
X159454819Y-98738094D01*
X159454819Y-98738094D02*
X159454819Y-98547618D01*
X159454819Y-98547618D02*
X159502438Y-98452380D01*
X159502438Y-98452380D02*
X159550057Y-98404761D01*
X159550057Y-98404761D02*
X159645295Y-98357142D01*
X159645295Y-98357142D02*
X159692914Y-98357142D01*
X159692914Y-98357142D02*
X159788152Y-98404761D01*
X159788152Y-98404761D02*
X159835771Y-98452380D01*
X159835771Y-98452380D02*
X159883390Y-98547618D01*
X159883390Y-98547618D02*
X159883390Y-98738094D01*
X159883390Y-98738094D02*
X159931009Y-98833332D01*
X159931009Y-98833332D02*
X159978628Y-98880951D01*
X159978628Y-98880951D02*
X160073866Y-98928570D01*
X160073866Y-98928570D02*
X160264342Y-98928570D01*
X160264342Y-98928570D02*
X160359580Y-98880951D01*
X160359580Y-98880951D02*
X160407200Y-98833332D01*
X160407200Y-98833332D02*
X160454819Y-98738094D01*
X160454819Y-98738094D02*
X160454819Y-98547618D01*
X160454819Y-98547618D02*
X160407200Y-98452380D01*
X160407200Y-98452380D02*
X160359580Y-98404761D01*
X160359580Y-98404761D02*
X160264342Y-98357142D01*
X160264342Y-98357142D02*
X160073866Y-98357142D01*
X160073866Y-98357142D02*
X159978628Y-98404761D01*
X159978628Y-98404761D02*
X159931009Y-98452380D01*
X159931009Y-98452380D02*
X159883390Y-98547618D01*
D13*
%TO.C,L105*%
X92300000Y-92300000D02*
X92300000Y-107700000D01*
X92300000Y-107700000D02*
X96700000Y-107700000D01*
X94500000Y-99400000D02*
X94700000Y-98500000D01*
X94500000Y-100600000D02*
X94500000Y-99400000D01*
X94700000Y-98500000D02*
X94900000Y-97900000D01*
X94700000Y-101600000D02*
X94500000Y-100600000D01*
X94900000Y-96100000D02*
X95000000Y-95700000D01*
X94900000Y-97900000D02*
X95100000Y-97400000D01*
X94900000Y-104000000D02*
X95000000Y-103500000D01*
X95000000Y-95700000D02*
X95200000Y-95400000D01*
X95000000Y-102400000D02*
X94700000Y-101600000D01*
X95000000Y-103500000D02*
X95300000Y-103100000D01*
X95000000Y-104500000D02*
X94900000Y-104000000D01*
X95100000Y-96700000D02*
X94900000Y-96100000D01*
X95100000Y-97400000D02*
X95300000Y-97000000D01*
X95200000Y-95400000D02*
X95400000Y-95100000D01*
X95300000Y-97000000D02*
X95100000Y-96700000D01*
X95300000Y-103100000D02*
X95400000Y-103000000D01*
X95400000Y-95100000D02*
X95900000Y-94900000D01*
X95400000Y-103000000D02*
X95000000Y-102400000D01*
X95400000Y-104800000D02*
X95000000Y-104500000D01*
X95700000Y-105000000D02*
X95400000Y-104800000D01*
X95900000Y-94900000D02*
X96400000Y-95000000D01*
X96200000Y-105100000D02*
X95700000Y-105000000D01*
X96400000Y-95000000D02*
X96800000Y-95200000D01*
X96600000Y-105000000D02*
X96200000Y-105100000D01*
X96700000Y-92300000D02*
X92300000Y-92300000D01*
X96700000Y-104900000D02*
X96600000Y-105000000D01*
X103300000Y-104900000D02*
X103600000Y-105000000D01*
X103500000Y-95000000D02*
X103200000Y-95200000D01*
X103600000Y-105000000D02*
X104000000Y-105100000D01*
X104000000Y-94900000D02*
X103500000Y-95000000D01*
X104000000Y-105100000D02*
X104300000Y-105000000D01*
X104300000Y-105000000D02*
X104700000Y-104800000D01*
X104500000Y-95100000D02*
X104000000Y-94900000D01*
X104600000Y-103000000D02*
X104900000Y-102600000D01*
X104700000Y-97000000D02*
X104900000Y-96700000D01*
X104700000Y-104800000D02*
X104900000Y-104500000D01*
X104800000Y-95400000D02*
X104500000Y-95100000D01*
X104900000Y-96700000D02*
X105100000Y-96300000D01*
X104900000Y-97400000D02*
X104700000Y-97000000D01*
X104900000Y-102600000D02*
X105100000Y-102200000D01*
X104900000Y-103300000D02*
X104600000Y-103000000D01*
X104900000Y-104500000D02*
X105100000Y-104200000D01*
X105000000Y-95800000D02*
X104800000Y-95400000D01*
X105000000Y-103600000D02*
X104900000Y-103300000D01*
X105100000Y-96300000D02*
X105000000Y-95800000D01*
X105100000Y-102200000D02*
X105300000Y-101700000D01*
X105100000Y-103900000D02*
X105000000Y-103600000D01*
X105100000Y-104200000D02*
X105100000Y-103900000D01*
X105300000Y-98300000D02*
X104900000Y-97400000D01*
X105300000Y-101700000D02*
X105500000Y-100900000D01*
X105500000Y-99200000D02*
X105300000Y-98300000D01*
X105500000Y-100900000D02*
X105600000Y-100000000D01*
X105600000Y-100000000D02*
X105500000Y-99200000D01*
X107700000Y-92300000D02*
X103300000Y-92300000D01*
X107700000Y-107700000D02*
X103300000Y-107700000D01*
X107700000Y-107700000D02*
X107700000Y-92300000D01*
X97390512Y-97900000D02*
G75*
G02*
X96609488Y-97900000I-390512J0D01*
G01*
X96609488Y-97900000D02*
G75*
G02*
X97390512Y-97900000I390512J0D01*
G01*
%TO.C,L103*%
X132300000Y-52300000D02*
X132300000Y-67700000D01*
X132300000Y-67700000D02*
X136700000Y-67700000D01*
X134500000Y-59400000D02*
X134700000Y-58500000D01*
X134500000Y-60600000D02*
X134500000Y-59400000D01*
X134700000Y-58500000D02*
X134900000Y-57900000D01*
X134700000Y-61600000D02*
X134500000Y-60600000D01*
X134900000Y-56100000D02*
X135000000Y-55700000D01*
X134900000Y-57900000D02*
X135100000Y-57400000D01*
X134900000Y-64000000D02*
X135000000Y-63500000D01*
X135000000Y-55700000D02*
X135200000Y-55400000D01*
X135000000Y-62400000D02*
X134700000Y-61600000D01*
X135000000Y-63500000D02*
X135300000Y-63100000D01*
X135000000Y-64500000D02*
X134900000Y-64000000D01*
X135100000Y-56700000D02*
X134900000Y-56100000D01*
X135100000Y-57400000D02*
X135300000Y-57000000D01*
X135200000Y-55400000D02*
X135400000Y-55100000D01*
X135300000Y-57000000D02*
X135100000Y-56700000D01*
X135300000Y-63100000D02*
X135400000Y-63000000D01*
X135400000Y-55100000D02*
X135900000Y-54900000D01*
X135400000Y-63000000D02*
X135000000Y-62400000D01*
X135400000Y-64800000D02*
X135000000Y-64500000D01*
X135700000Y-65000000D02*
X135400000Y-64800000D01*
X135900000Y-54900000D02*
X136400000Y-55000000D01*
X136200000Y-65100000D02*
X135700000Y-65000000D01*
X136400000Y-55000000D02*
X136800000Y-55200000D01*
X136600000Y-65000000D02*
X136200000Y-65100000D01*
X136700000Y-52300000D02*
X132300000Y-52300000D01*
X136700000Y-64900000D02*
X136600000Y-65000000D01*
X143300000Y-64900000D02*
X143600000Y-65000000D01*
X143500000Y-55000000D02*
X143200000Y-55200000D01*
X143600000Y-65000000D02*
X144000000Y-65100000D01*
X144000000Y-54900000D02*
X143500000Y-55000000D01*
X144000000Y-65100000D02*
X144300000Y-65000000D01*
X144300000Y-65000000D02*
X144700000Y-64800000D01*
X144500000Y-55100000D02*
X144000000Y-54900000D01*
X144600000Y-63000000D02*
X144900000Y-62600000D01*
X144700000Y-57000000D02*
X144900000Y-56700000D01*
X144700000Y-64800000D02*
X144900000Y-64500000D01*
X144800000Y-55400000D02*
X144500000Y-55100000D01*
X144900000Y-56700000D02*
X145100000Y-56300000D01*
X144900000Y-57400000D02*
X144700000Y-57000000D01*
X144900000Y-62600000D02*
X145100000Y-62200000D01*
X144900000Y-63300000D02*
X144600000Y-63000000D01*
X144900000Y-64500000D02*
X145100000Y-64200000D01*
X145000000Y-55800000D02*
X144800000Y-55400000D01*
X145000000Y-63600000D02*
X144900000Y-63300000D01*
X145100000Y-56300000D02*
X145000000Y-55800000D01*
X145100000Y-62200000D02*
X145300000Y-61700000D01*
X145100000Y-63900000D02*
X145000000Y-63600000D01*
X145100000Y-64200000D02*
X145100000Y-63900000D01*
X145300000Y-58300000D02*
X144900000Y-57400000D01*
X145300000Y-61700000D02*
X145500000Y-60900000D01*
X145500000Y-59200000D02*
X145300000Y-58300000D01*
X145500000Y-60900000D02*
X145600000Y-60000000D01*
X145600000Y-60000000D02*
X145500000Y-59200000D01*
X147700000Y-52300000D02*
X143300000Y-52300000D01*
X147700000Y-67700000D02*
X143300000Y-67700000D01*
X147700000Y-67700000D02*
X147700000Y-52300000D01*
X137390512Y-57900000D02*
G75*
G02*
X136609488Y-57900000I-390512J0D01*
G01*
X136609488Y-57900000D02*
G75*
G02*
X137390512Y-57900000I390512J0D01*
G01*
%TO.C,C103*%
X122900000Y-82200000D02*
X126100000Y-82200000D01*
X122900000Y-83800000D02*
X122900000Y-82200000D01*
X126100000Y-82200000D02*
X126100000Y-83800000D01*
X126100000Y-83800000D02*
X122900000Y-83800000D01*
%TO.C,L101*%
X92300000Y-52300000D02*
X92300000Y-67700000D01*
X92300000Y-67700000D02*
X96700000Y-67700000D01*
X94500000Y-59400000D02*
X94700000Y-58500000D01*
X94500000Y-60600000D02*
X94500000Y-59400000D01*
X94700000Y-58500000D02*
X94900000Y-57900000D01*
X94700000Y-61600000D02*
X94500000Y-60600000D01*
X94900000Y-56100000D02*
X95000000Y-55700000D01*
X94900000Y-57900000D02*
X95100000Y-57400000D01*
X94900000Y-64000000D02*
X95000000Y-63500000D01*
X95000000Y-55700000D02*
X95200000Y-55400000D01*
X95000000Y-62400000D02*
X94700000Y-61600000D01*
X95000000Y-63500000D02*
X95300000Y-63100000D01*
X95000000Y-64500000D02*
X94900000Y-64000000D01*
X95100000Y-56700000D02*
X94900000Y-56100000D01*
X95100000Y-57400000D02*
X95300000Y-57000000D01*
X95200000Y-55400000D02*
X95400000Y-55100000D01*
X95300000Y-57000000D02*
X95100000Y-56700000D01*
X95300000Y-63100000D02*
X95400000Y-63000000D01*
X95400000Y-55100000D02*
X95900000Y-54900000D01*
X95400000Y-63000000D02*
X95000000Y-62400000D01*
X95400000Y-64800000D02*
X95000000Y-64500000D01*
X95700000Y-65000000D02*
X95400000Y-64800000D01*
X95900000Y-54900000D02*
X96400000Y-55000000D01*
X96200000Y-65100000D02*
X95700000Y-65000000D01*
X96400000Y-55000000D02*
X96800000Y-55200000D01*
X96600000Y-65000000D02*
X96200000Y-65100000D01*
X96700000Y-52300000D02*
X92300000Y-52300000D01*
X96700000Y-64900000D02*
X96600000Y-65000000D01*
X103300000Y-64900000D02*
X103600000Y-65000000D01*
X103500000Y-55000000D02*
X103200000Y-55200000D01*
X103600000Y-65000000D02*
X104000000Y-65100000D01*
X104000000Y-54900000D02*
X103500000Y-55000000D01*
X104000000Y-65100000D02*
X104300000Y-65000000D01*
X104300000Y-65000000D02*
X104700000Y-64800000D01*
X104500000Y-55100000D02*
X104000000Y-54900000D01*
X104600000Y-63000000D02*
X104900000Y-62600000D01*
X104700000Y-57000000D02*
X104900000Y-56700000D01*
X104700000Y-64800000D02*
X104900000Y-64500000D01*
X104800000Y-55400000D02*
X104500000Y-55100000D01*
X104900000Y-56700000D02*
X105100000Y-56300000D01*
X104900000Y-57400000D02*
X104700000Y-57000000D01*
X104900000Y-62600000D02*
X105100000Y-62200000D01*
X104900000Y-63300000D02*
X104600000Y-63000000D01*
X104900000Y-64500000D02*
X105100000Y-64200000D01*
X105000000Y-55800000D02*
X104800000Y-55400000D01*
X105000000Y-63600000D02*
X104900000Y-63300000D01*
X105100000Y-56300000D02*
X105000000Y-55800000D01*
X105100000Y-62200000D02*
X105300000Y-61700000D01*
X105100000Y-63900000D02*
X105000000Y-63600000D01*
X105100000Y-64200000D02*
X105100000Y-63900000D01*
X105300000Y-58300000D02*
X104900000Y-57400000D01*
X105300000Y-61700000D02*
X105500000Y-60900000D01*
X105500000Y-59200000D02*
X105300000Y-58300000D01*
X105500000Y-60900000D02*
X105600000Y-60000000D01*
X105600000Y-60000000D02*
X105500000Y-59200000D01*
X107700000Y-52300000D02*
X103300000Y-52300000D01*
X107700000Y-67700000D02*
X103300000Y-67700000D01*
X107700000Y-67700000D02*
X107700000Y-52300000D01*
X97390512Y-57900000D02*
G75*
G02*
X96609488Y-57900000I-390512J0D01*
G01*
X96609488Y-57900000D02*
G75*
G02*
X97390512Y-57900000I390512J0D01*
G01*
%TO.C,C105*%
X141875000Y-82500000D02*
X143125000Y-82500000D01*
X141875000Y-84500000D02*
X141875000Y-82500000D01*
X143125000Y-82500000D02*
X143125000Y-84500000D01*
X143125000Y-84500000D02*
X141875000Y-84500000D01*
%TO.C,L102*%
X112300000Y-52300000D02*
X112300000Y-67700000D01*
X112300000Y-67700000D02*
X116700000Y-67700000D01*
X114500000Y-59400000D02*
X114700000Y-58500000D01*
X114500000Y-60600000D02*
X114500000Y-59400000D01*
X114700000Y-58500000D02*
X114900000Y-57900000D01*
X114700000Y-61600000D02*
X114500000Y-60600000D01*
X114900000Y-56100000D02*
X115000000Y-55700000D01*
X114900000Y-57900000D02*
X115100000Y-57400000D01*
X114900000Y-64000000D02*
X115000000Y-63500000D01*
X115000000Y-55700000D02*
X115200000Y-55400000D01*
X115000000Y-62400000D02*
X114700000Y-61600000D01*
X115000000Y-63500000D02*
X115300000Y-63100000D01*
X115000000Y-64500000D02*
X114900000Y-64000000D01*
X115100000Y-56700000D02*
X114900000Y-56100000D01*
X115100000Y-57400000D02*
X115300000Y-57000000D01*
X115200000Y-55400000D02*
X115400000Y-55100000D01*
X115300000Y-57000000D02*
X115100000Y-56700000D01*
X115300000Y-63100000D02*
X115400000Y-63000000D01*
X115400000Y-55100000D02*
X115900000Y-54900000D01*
X115400000Y-63000000D02*
X115000000Y-62400000D01*
X115400000Y-64800000D02*
X115000000Y-64500000D01*
X115700000Y-65000000D02*
X115400000Y-64800000D01*
X115900000Y-54900000D02*
X116400000Y-55000000D01*
X116200000Y-65100000D02*
X115700000Y-65000000D01*
X116400000Y-55000000D02*
X116800000Y-55200000D01*
X116600000Y-65000000D02*
X116200000Y-65100000D01*
X116700000Y-52300000D02*
X112300000Y-52300000D01*
X116700000Y-64900000D02*
X116600000Y-65000000D01*
X123300000Y-64900000D02*
X123600000Y-65000000D01*
X123500000Y-55000000D02*
X123200000Y-55200000D01*
X123600000Y-65000000D02*
X124000000Y-65100000D01*
X124000000Y-54900000D02*
X123500000Y-55000000D01*
X124000000Y-65100000D02*
X124300000Y-65000000D01*
X124300000Y-65000000D02*
X124700000Y-64800000D01*
X124500000Y-55100000D02*
X124000000Y-54900000D01*
X124600000Y-63000000D02*
X124900000Y-62600000D01*
X124700000Y-57000000D02*
X124900000Y-56700000D01*
X124700000Y-64800000D02*
X124900000Y-64500000D01*
X124800000Y-55400000D02*
X124500000Y-55100000D01*
X124900000Y-56700000D02*
X125100000Y-56300000D01*
X124900000Y-57400000D02*
X124700000Y-57000000D01*
X124900000Y-62600000D02*
X125100000Y-62200000D01*
X124900000Y-63300000D02*
X124600000Y-63000000D01*
X124900000Y-64500000D02*
X125100000Y-64200000D01*
X125000000Y-55800000D02*
X124800000Y-55400000D01*
X125000000Y-63600000D02*
X124900000Y-63300000D01*
X125100000Y-56300000D02*
X125000000Y-55800000D01*
X125100000Y-62200000D02*
X125300000Y-61700000D01*
X125100000Y-63900000D02*
X125000000Y-63600000D01*
X125100000Y-64200000D02*
X125100000Y-63900000D01*
X125300000Y-58300000D02*
X124900000Y-57400000D01*
X125300000Y-61700000D02*
X125500000Y-60900000D01*
X125500000Y-59200000D02*
X125300000Y-58300000D01*
X125500000Y-60900000D02*
X125600000Y-60000000D01*
X125600000Y-60000000D02*
X125500000Y-59200000D01*
X127700000Y-52300000D02*
X123300000Y-52300000D01*
X127700000Y-67700000D02*
X123300000Y-67700000D01*
X127700000Y-67700000D02*
X127700000Y-52300000D01*
X117390512Y-57900000D02*
G75*
G02*
X116609488Y-57900000I-390512J0D01*
G01*
X116609488Y-57900000D02*
G75*
G02*
X117390512Y-57900000I390512J0D01*
G01*
%TO.C,R101*%
X101700000Y-78400000D02*
X103300000Y-78400000D01*
X101700000Y-81600000D02*
X101700000Y-78400000D01*
X103300000Y-78400000D02*
X103300000Y-81600000D01*
X103300000Y-81600000D02*
X101700000Y-81600000D01*
%TO.C,C102*%
X102000000Y-83375000D02*
X104000000Y-83375000D01*
X102000000Y-84625000D02*
X102000000Y-83375000D01*
X104000000Y-83375000D02*
X104000000Y-84625000D01*
X104000000Y-84625000D02*
X102000000Y-84625000D01*
%TO.C,J102*%
X86132500Y-74850000D02*
X87132500Y-73850000D01*
X86132500Y-75350000D02*
X86132500Y-80350000D01*
X86132500Y-80350000D02*
X86132500Y-85350000D01*
X86132500Y-80350000D02*
X100132500Y-80350000D01*
X86132500Y-85350000D02*
X100132500Y-85350000D01*
X86132500Y-86150000D02*
X86132500Y-74850000D01*
X87132500Y-73850000D02*
X87132500Y-86150000D01*
X87132500Y-73850000D02*
X100132500Y-73850000D01*
X87432500Y-75850000D02*
X87432500Y-79850000D01*
X87432500Y-79850000D02*
X90732500Y-79850000D01*
X87432500Y-80850000D02*
X87432500Y-84850000D01*
X87432500Y-84850000D02*
X90732500Y-84850000D01*
X90732500Y-75850000D02*
X87432500Y-75850000D01*
X90732500Y-79850000D02*
X90732500Y-75850000D01*
X90732500Y-80850000D02*
X87432500Y-80850000D01*
X90732500Y-84850000D02*
X90732500Y-80850000D01*
X91432500Y-75850000D02*
X91432500Y-79850000D01*
X91432500Y-79850000D02*
X92432500Y-79850000D01*
X91432500Y-80850000D02*
X91432500Y-84850000D01*
X91432500Y-84850000D02*
X92432500Y-84850000D01*
X92432500Y-75850000D02*
X91432500Y-75850000D01*
X92432500Y-79850000D02*
X92432500Y-75850000D01*
X92432500Y-80850000D02*
X91432500Y-80850000D01*
X92432500Y-84850000D02*
X92432500Y-80850000D01*
X92832500Y-73850000D02*
X92832500Y-86150000D01*
X95632500Y-73850000D02*
X95632500Y-86150000D01*
X97282500Y-77350000D02*
X97282500Y-78350000D01*
X97282500Y-78350000D02*
X99782500Y-78350000D01*
X97282500Y-82350000D02*
X97282500Y-83350000D01*
X97282500Y-83350000D02*
X99782500Y-83350000D01*
X99782500Y-77350000D02*
X97282500Y-77350000D01*
X99782500Y-78350000D02*
X99782500Y-77350000D01*
X99782500Y-82350000D02*
X97282500Y-82350000D01*
X99782500Y-83350000D02*
X99782500Y-82350000D01*
X100132500Y-73850000D02*
X100132500Y-86150000D01*
X100132500Y-75350000D02*
X86132500Y-75350000D01*
X100132500Y-80350000D02*
X86132500Y-80350000D01*
X100132500Y-80350000D02*
X100132500Y-75350000D01*
X100132500Y-85350000D02*
X100132500Y-80350000D01*
X100132500Y-86150000D02*
X86132500Y-86150000D01*
%TO.C,C104*%
X140200000Y-77150000D02*
X141800000Y-77150000D01*
X140200000Y-80350000D02*
X140200000Y-77150000D01*
X141800000Y-77150000D02*
X141800000Y-80350000D01*
X141800000Y-80350000D02*
X140200000Y-80350000D01*
%TO.C,L106*%
X112300000Y-92300000D02*
X112300000Y-107700000D01*
X112300000Y-107700000D02*
X116700000Y-107700000D01*
X114500000Y-99400000D02*
X114700000Y-98500000D01*
X114500000Y-100600000D02*
X114500000Y-99400000D01*
X114700000Y-98500000D02*
X114900000Y-97900000D01*
X114700000Y-101600000D02*
X114500000Y-100600000D01*
X114900000Y-96100000D02*
X115000000Y-95700000D01*
X114900000Y-97900000D02*
X115100000Y-97400000D01*
X114900000Y-104000000D02*
X115000000Y-103500000D01*
X115000000Y-95700000D02*
X115200000Y-95400000D01*
X115000000Y-102400000D02*
X114700000Y-101600000D01*
X115000000Y-103500000D02*
X115300000Y-103100000D01*
X115000000Y-104500000D02*
X114900000Y-104000000D01*
X115100000Y-96700000D02*
X114900000Y-96100000D01*
X115100000Y-97400000D02*
X115300000Y-97000000D01*
X115200000Y-95400000D02*
X115400000Y-95100000D01*
X115300000Y-97000000D02*
X115100000Y-96700000D01*
X115300000Y-103100000D02*
X115400000Y-103000000D01*
X115400000Y-95100000D02*
X115900000Y-94900000D01*
X115400000Y-103000000D02*
X115000000Y-102400000D01*
X115400000Y-104800000D02*
X115000000Y-104500000D01*
X115700000Y-105000000D02*
X115400000Y-104800000D01*
X115900000Y-94900000D02*
X116400000Y-95000000D01*
X116200000Y-105100000D02*
X115700000Y-105000000D01*
X116400000Y-95000000D02*
X116800000Y-95200000D01*
X116600000Y-105000000D02*
X116200000Y-105100000D01*
X116700000Y-92300000D02*
X112300000Y-92300000D01*
X116700000Y-104900000D02*
X116600000Y-105000000D01*
X123300000Y-104900000D02*
X123600000Y-105000000D01*
X123500000Y-95000000D02*
X123200000Y-95200000D01*
X123600000Y-105000000D02*
X124000000Y-105100000D01*
X124000000Y-94900000D02*
X123500000Y-95000000D01*
X124000000Y-105100000D02*
X124300000Y-105000000D01*
X124300000Y-105000000D02*
X124700000Y-104800000D01*
X124500000Y-95100000D02*
X124000000Y-94900000D01*
X124600000Y-103000000D02*
X124900000Y-102600000D01*
X124700000Y-97000000D02*
X124900000Y-96700000D01*
X124700000Y-104800000D02*
X124900000Y-104500000D01*
X124800000Y-95400000D02*
X124500000Y-95100000D01*
X124900000Y-96700000D02*
X125100000Y-96300000D01*
X124900000Y-97400000D02*
X124700000Y-97000000D01*
X124900000Y-102600000D02*
X125100000Y-102200000D01*
X124900000Y-103300000D02*
X124600000Y-103000000D01*
X124900000Y-104500000D02*
X125100000Y-104200000D01*
X125000000Y-95800000D02*
X124800000Y-95400000D01*
X125000000Y-103600000D02*
X124900000Y-103300000D01*
X125100000Y-96300000D02*
X125000000Y-95800000D01*
X125100000Y-102200000D02*
X125300000Y-101700000D01*
X125100000Y-103900000D02*
X125000000Y-103600000D01*
X125100000Y-104200000D02*
X125100000Y-103900000D01*
X125300000Y-98300000D02*
X124900000Y-97400000D01*
X125300000Y-101700000D02*
X125500000Y-100900000D01*
X125500000Y-99200000D02*
X125300000Y-98300000D01*
X125500000Y-100900000D02*
X125600000Y-100000000D01*
X125600000Y-100000000D02*
X125500000Y-99200000D01*
X127700000Y-92300000D02*
X123300000Y-92300000D01*
X127700000Y-107700000D02*
X123300000Y-107700000D01*
X127700000Y-107700000D02*
X127700000Y-92300000D01*
X117390512Y-97900000D02*
G75*
G02*
X116609488Y-97900000I-390512J0D01*
G01*
X116609488Y-97900000D02*
G75*
G02*
X117390512Y-97900000I390512J0D01*
G01*
%TO.C,L109*%
X122575000Y-74900000D02*
X127425000Y-74900000D01*
X127425000Y-80100000D01*
X122575000Y-80100000D01*
X122575000Y-74900000D01*
%TO.C,J104*%
X145600000Y-73000000D02*
X156900000Y-73000000D01*
X145600000Y-87000000D02*
X145600000Y-73000000D01*
X146400000Y-73000000D02*
X146400000Y-87000000D01*
X146400000Y-87000000D02*
X151400000Y-87000000D01*
X146900000Y-74300000D02*
X146900000Y-77600000D01*
X146900000Y-77600000D02*
X150900000Y-77600000D01*
X146900000Y-78300000D02*
X146900000Y-79300000D01*
X146900000Y-79300000D02*
X150900000Y-79300000D01*
X148400000Y-84150000D02*
X148400000Y-86650000D01*
X148400000Y-86650000D02*
X149400000Y-86650000D01*
X149400000Y-84150000D02*
X148400000Y-84150000D01*
X149400000Y-86650000D02*
X149400000Y-84150000D01*
X150900000Y-74300000D02*
X146900000Y-74300000D01*
X150900000Y-77600000D02*
X150900000Y-74300000D01*
X150900000Y-78300000D02*
X146900000Y-78300000D01*
X150900000Y-79300000D02*
X150900000Y-78300000D01*
X151400000Y-73000000D02*
X146400000Y-73000000D01*
X151400000Y-73000000D02*
X151400000Y-87000000D01*
X151400000Y-87000000D02*
X151400000Y-73000000D01*
X151400000Y-87000000D02*
X156400000Y-87000000D01*
X151900000Y-74300000D02*
X151900000Y-77600000D01*
X151900000Y-77600000D02*
X155900000Y-77600000D01*
X151900000Y-78300000D02*
X151900000Y-79300000D01*
X151900000Y-79300000D02*
X155900000Y-79300000D01*
X153400000Y-84150000D02*
X153400000Y-86650000D01*
X153400000Y-86650000D02*
X154400000Y-86650000D01*
X154400000Y-84150000D02*
X153400000Y-84150000D01*
X154400000Y-86650000D02*
X154400000Y-84150000D01*
X155900000Y-74300000D02*
X151900000Y-74300000D01*
X155900000Y-77600000D02*
X155900000Y-74300000D01*
X155900000Y-78300000D02*
X151900000Y-78300000D01*
X155900000Y-79300000D02*
X155900000Y-78300000D01*
X156400000Y-73000000D02*
X151400000Y-73000000D01*
X156400000Y-87000000D02*
X156400000Y-73000000D01*
X156900000Y-73000000D02*
X157900000Y-74000000D01*
X157900000Y-74000000D02*
X145600000Y-74000000D01*
X157900000Y-74000000D02*
X157900000Y-87000000D01*
X157900000Y-79700000D02*
X145600000Y-79700000D01*
X157900000Y-82500000D02*
X145600000Y-82500000D01*
X157900000Y-87000000D02*
X145600000Y-87000000D01*
%TO.C,J101*%
X106350000Y-72867500D02*
X118650000Y-72867500D01*
X106350000Y-77367500D02*
X118650000Y-77367500D01*
X106350000Y-80167500D02*
X118650000Y-80167500D01*
X106350000Y-85867500D02*
X106350000Y-72867500D01*
X106350000Y-85867500D02*
X118650000Y-85867500D01*
X107350000Y-86867500D02*
X106350000Y-85867500D01*
X107850000Y-72867500D02*
X107850000Y-86867500D01*
X107850000Y-86867500D02*
X112850000Y-86867500D01*
X108350000Y-80567500D02*
X108350000Y-81567500D01*
X108350000Y-81567500D02*
X112350000Y-81567500D01*
X108350000Y-82267500D02*
X108350000Y-85567500D01*
X108350000Y-85567500D02*
X112350000Y-85567500D01*
X109850000Y-73217500D02*
X109850000Y-75717500D01*
X109850000Y-75717500D02*
X110850000Y-75717500D01*
X110850000Y-73217500D02*
X109850000Y-73217500D01*
X110850000Y-75717500D02*
X110850000Y-73217500D01*
X112350000Y-80567500D02*
X108350000Y-80567500D01*
X112350000Y-81567500D02*
X112350000Y-80567500D01*
X112350000Y-82267500D02*
X108350000Y-82267500D01*
X112350000Y-85567500D02*
X112350000Y-82267500D01*
X112850000Y-72867500D02*
X107850000Y-72867500D01*
X112850000Y-72867500D02*
X112850000Y-86867500D01*
X112850000Y-86867500D02*
X112850000Y-72867500D01*
X112850000Y-86867500D02*
X117850000Y-86867500D01*
X113350000Y-80567500D02*
X113350000Y-81567500D01*
X113350000Y-81567500D02*
X117350000Y-81567500D01*
X113350000Y-82267500D02*
X113350000Y-85567500D01*
X113350000Y-85567500D02*
X117350000Y-85567500D01*
X114850000Y-73217500D02*
X114850000Y-75717500D01*
X114850000Y-75717500D02*
X115850000Y-75717500D01*
X115850000Y-73217500D02*
X114850000Y-73217500D01*
X115850000Y-75717500D02*
X115850000Y-73217500D01*
X117350000Y-80567500D02*
X113350000Y-80567500D01*
X117350000Y-81567500D02*
X117350000Y-80567500D01*
X117350000Y-82267500D02*
X113350000Y-82267500D01*
X117350000Y-85567500D02*
X117350000Y-82267500D01*
X117850000Y-72867500D02*
X112850000Y-72867500D01*
X117850000Y-86867500D02*
X117850000Y-72867500D01*
X118650000Y-72867500D02*
X118650000Y-86867500D01*
X118650000Y-86867500D02*
X107350000Y-86867500D01*
%TO.C,L107*%
X132300000Y-92300000D02*
X132300000Y-107700000D01*
X132300000Y-107700000D02*
X136700000Y-107700000D01*
X134500000Y-99400000D02*
X134700000Y-98500000D01*
X134500000Y-100600000D02*
X134500000Y-99400000D01*
X134700000Y-98500000D02*
X134900000Y-97900000D01*
X134700000Y-101600000D02*
X134500000Y-100600000D01*
X134900000Y-96100000D02*
X135000000Y-95700000D01*
X134900000Y-97900000D02*
X135100000Y-97400000D01*
X134900000Y-104000000D02*
X135000000Y-103500000D01*
X135000000Y-95700000D02*
X135200000Y-95400000D01*
X135000000Y-102400000D02*
X134700000Y-101600000D01*
X135000000Y-103500000D02*
X135300000Y-103100000D01*
X135000000Y-104500000D02*
X134900000Y-104000000D01*
X135100000Y-96700000D02*
X134900000Y-96100000D01*
X135100000Y-97400000D02*
X135300000Y-97000000D01*
X135200000Y-95400000D02*
X135400000Y-95100000D01*
X135300000Y-97000000D02*
X135100000Y-96700000D01*
X135300000Y-103100000D02*
X135400000Y-103000000D01*
X135400000Y-95100000D02*
X135900000Y-94900000D01*
X135400000Y-103000000D02*
X135000000Y-102400000D01*
X135400000Y-104800000D02*
X135000000Y-104500000D01*
X135700000Y-105000000D02*
X135400000Y-104800000D01*
X135900000Y-94900000D02*
X136400000Y-95000000D01*
X136200000Y-105100000D02*
X135700000Y-105000000D01*
X136400000Y-95000000D02*
X136800000Y-95200000D01*
X136600000Y-105000000D02*
X136200000Y-105100000D01*
X136700000Y-92300000D02*
X132300000Y-92300000D01*
X136700000Y-104900000D02*
X136600000Y-105000000D01*
X143300000Y-104900000D02*
X143600000Y-105000000D01*
X143500000Y-95000000D02*
X143200000Y-95200000D01*
X143600000Y-105000000D02*
X144000000Y-105100000D01*
X144000000Y-94900000D02*
X143500000Y-95000000D01*
X144000000Y-105100000D02*
X144300000Y-105000000D01*
X144300000Y-105000000D02*
X144700000Y-104800000D01*
X144500000Y-95100000D02*
X144000000Y-94900000D01*
X144600000Y-103000000D02*
X144900000Y-102600000D01*
X144700000Y-97000000D02*
X144900000Y-96700000D01*
X144700000Y-104800000D02*
X144900000Y-104500000D01*
X144800000Y-95400000D02*
X144500000Y-95100000D01*
X144900000Y-96700000D02*
X145100000Y-96300000D01*
X144900000Y-97400000D02*
X144700000Y-97000000D01*
X144900000Y-102600000D02*
X145100000Y-102200000D01*
X144900000Y-103300000D02*
X144600000Y-103000000D01*
X144900000Y-104500000D02*
X145100000Y-104200000D01*
X145000000Y-95800000D02*
X144800000Y-95400000D01*
X145000000Y-103600000D02*
X144900000Y-103300000D01*
X145100000Y-96300000D02*
X145000000Y-95800000D01*
X145100000Y-102200000D02*
X145300000Y-101700000D01*
X145100000Y-103900000D02*
X145000000Y-103600000D01*
X145100000Y-104200000D02*
X145100000Y-103900000D01*
X145300000Y-98300000D02*
X144900000Y-97400000D01*
X145300000Y-101700000D02*
X145500000Y-100900000D01*
X145500000Y-99200000D02*
X145300000Y-98300000D01*
X145500000Y-100900000D02*
X145600000Y-100000000D01*
X145600000Y-100000000D02*
X145500000Y-99200000D01*
X147700000Y-92300000D02*
X143300000Y-92300000D01*
X147700000Y-107700000D02*
X143300000Y-107700000D01*
X147700000Y-107700000D02*
X147700000Y-92300000D01*
X137390512Y-97900000D02*
G75*
G02*
X136609488Y-97900000I-390512J0D01*
G01*
X136609488Y-97900000D02*
G75*
G02*
X137390512Y-97900000I390512J0D01*
G01*
%TO.C,J103*%
X159867500Y-73850000D02*
X173867500Y-73850000D01*
X159867500Y-74650000D02*
X159867500Y-79650000D01*
X159867500Y-79650000D02*
X159867500Y-84650000D01*
X159867500Y-79650000D02*
X173867500Y-79650000D01*
X159867500Y-84650000D02*
X173867500Y-84650000D01*
X159867500Y-86150000D02*
X159867500Y-73850000D01*
X160217500Y-76650000D02*
X160217500Y-77650000D01*
X160217500Y-77650000D02*
X162717500Y-77650000D01*
X160217500Y-81650000D02*
X160217500Y-82650000D01*
X160217500Y-82650000D02*
X162717500Y-82650000D01*
X162717500Y-76650000D02*
X160217500Y-76650000D01*
X162717500Y-77650000D02*
X162717500Y-76650000D01*
X162717500Y-81650000D02*
X160217500Y-81650000D01*
X162717500Y-82650000D02*
X162717500Y-81650000D01*
X164367500Y-86150000D02*
X164367500Y-73850000D01*
X167167500Y-86150000D02*
X167167500Y-73850000D01*
X167567500Y-75150000D02*
X167567500Y-79150000D01*
X167567500Y-79150000D02*
X168567500Y-79150000D01*
X167567500Y-80150000D02*
X167567500Y-84150000D01*
X167567500Y-84150000D02*
X168567500Y-84150000D01*
X168567500Y-75150000D02*
X167567500Y-75150000D01*
X168567500Y-79150000D02*
X168567500Y-75150000D01*
X168567500Y-80150000D02*
X167567500Y-80150000D01*
X168567500Y-84150000D02*
X168567500Y-80150000D01*
X169267500Y-75150000D02*
X169267500Y-79150000D01*
X169267500Y-79150000D02*
X172567500Y-79150000D01*
X169267500Y-80150000D02*
X169267500Y-84150000D01*
X169267500Y-84150000D02*
X172567500Y-84150000D01*
X172567500Y-75150000D02*
X169267500Y-75150000D01*
X172567500Y-79150000D02*
X172567500Y-75150000D01*
X172567500Y-80150000D02*
X169267500Y-80150000D01*
X172567500Y-84150000D02*
X172567500Y-80150000D01*
X172867500Y-86150000D02*
X159867500Y-86150000D01*
X172867500Y-86150000D02*
X172867500Y-73850000D01*
X173867500Y-73850000D02*
X173867500Y-85150000D01*
X173867500Y-74650000D02*
X159867500Y-74650000D01*
X173867500Y-79650000D02*
X159867500Y-79650000D01*
X173867500Y-79650000D02*
X173867500Y-74650000D01*
X173867500Y-84650000D02*
X173867500Y-79650000D01*
X173867500Y-85150000D02*
X172867500Y-86150000D01*
%TO.C,C101*%
X102000000Y-75375000D02*
X104000000Y-75375000D01*
X102000000Y-76625000D02*
X102000000Y-75375000D01*
X104000000Y-75375000D02*
X104000000Y-76625000D01*
X104000000Y-76625000D02*
X102000000Y-76625000D01*
%TO.C,U101*%
X138482500Y-87000000D02*
X130882500Y-87000000D01*
X130882500Y-74000000D01*
X131882500Y-73000000D01*
X138482500Y-73000000D01*
X138482500Y-87000000D01*
%TO.C,L104*%
X152300000Y-52300000D02*
X152300000Y-67700000D01*
X152300000Y-67700000D02*
X156700000Y-67700000D01*
X154500000Y-59400000D02*
X154700000Y-58500000D01*
X154500000Y-60600000D02*
X154500000Y-59400000D01*
X154700000Y-58500000D02*
X154900000Y-57900000D01*
X154700000Y-61600000D02*
X154500000Y-60600000D01*
X154900000Y-56100000D02*
X155000000Y-55700000D01*
X154900000Y-57900000D02*
X155100000Y-57400000D01*
X154900000Y-64000000D02*
X155000000Y-63500000D01*
X155000000Y-55700000D02*
X155200000Y-55400000D01*
X155000000Y-62400000D02*
X154700000Y-61600000D01*
X155000000Y-63500000D02*
X155300000Y-63100000D01*
X155000000Y-64500000D02*
X154900000Y-64000000D01*
X155100000Y-56700000D02*
X154900000Y-56100000D01*
X155100000Y-57400000D02*
X155300000Y-57000000D01*
X155200000Y-55400000D02*
X155400000Y-55100000D01*
X155300000Y-57000000D02*
X155100000Y-56700000D01*
X155300000Y-63100000D02*
X155400000Y-63000000D01*
X155400000Y-55100000D02*
X155900000Y-54900000D01*
X155400000Y-63000000D02*
X155000000Y-62400000D01*
X155400000Y-64800000D02*
X155000000Y-64500000D01*
X155700000Y-65000000D02*
X155400000Y-64800000D01*
X155900000Y-54900000D02*
X156400000Y-55000000D01*
X156200000Y-65100000D02*
X155700000Y-65000000D01*
X156400000Y-55000000D02*
X156800000Y-55200000D01*
X156600000Y-65000000D02*
X156200000Y-65100000D01*
X156700000Y-52300000D02*
X152300000Y-52300000D01*
X156700000Y-64900000D02*
X156600000Y-65000000D01*
X163300000Y-64900000D02*
X163600000Y-65000000D01*
X163500000Y-55000000D02*
X163200000Y-55200000D01*
X163600000Y-65000000D02*
X164000000Y-65100000D01*
X164000000Y-54900000D02*
X163500000Y-55000000D01*
X164000000Y-65100000D02*
X164300000Y-65000000D01*
X164300000Y-65000000D02*
X164700000Y-64800000D01*
X164500000Y-55100000D02*
X164000000Y-54900000D01*
X164600000Y-63000000D02*
X164900000Y-62600000D01*
X164700000Y-57000000D02*
X164900000Y-56700000D01*
X164700000Y-64800000D02*
X164900000Y-64500000D01*
X164800000Y-55400000D02*
X164500000Y-55100000D01*
X164900000Y-56700000D02*
X165100000Y-56300000D01*
X164900000Y-57400000D02*
X164700000Y-57000000D01*
X164900000Y-62600000D02*
X165100000Y-62200000D01*
X164900000Y-63300000D02*
X164600000Y-63000000D01*
X164900000Y-64500000D02*
X165100000Y-64200000D01*
X165000000Y-55800000D02*
X164800000Y-55400000D01*
X165000000Y-63600000D02*
X164900000Y-63300000D01*
X165100000Y-56300000D02*
X165000000Y-55800000D01*
X165100000Y-62200000D02*
X165300000Y-61700000D01*
X165100000Y-63900000D02*
X165000000Y-63600000D01*
X165100000Y-64200000D02*
X165100000Y-63900000D01*
X165300000Y-58300000D02*
X164900000Y-57400000D01*
X165300000Y-61700000D02*
X165500000Y-60900000D01*
X165500000Y-59200000D02*
X165300000Y-58300000D01*
X165500000Y-60900000D02*
X165600000Y-60000000D01*
X165600000Y-60000000D02*
X165500000Y-59200000D01*
X167700000Y-52300000D02*
X163300000Y-52300000D01*
X167700000Y-67700000D02*
X163300000Y-67700000D01*
X167700000Y-67700000D02*
X167700000Y-52300000D01*
X157390512Y-57900000D02*
G75*
G02*
X156609488Y-57900000I-390512J0D01*
G01*
X156609488Y-57900000D02*
G75*
G02*
X157390512Y-57900000I390512J0D01*
G01*
%TO.C,L108*%
X152300000Y-92300000D02*
X152300000Y-107700000D01*
X152300000Y-107700000D02*
X156700000Y-107700000D01*
X154500000Y-99400000D02*
X154700000Y-98500000D01*
X154500000Y-100600000D02*
X154500000Y-99400000D01*
X154700000Y-98500000D02*
X154900000Y-97900000D01*
X154700000Y-101600000D02*
X154500000Y-100600000D01*
X154900000Y-96100000D02*
X155000000Y-95700000D01*
X154900000Y-97900000D02*
X155100000Y-97400000D01*
X154900000Y-104000000D02*
X155000000Y-103500000D01*
X155000000Y-95700000D02*
X155200000Y-95400000D01*
X155000000Y-102400000D02*
X154700000Y-101600000D01*
X155000000Y-103500000D02*
X155300000Y-103100000D01*
X155000000Y-104500000D02*
X154900000Y-104000000D01*
X155100000Y-96700000D02*
X154900000Y-96100000D01*
X155100000Y-97400000D02*
X155300000Y-97000000D01*
X155200000Y-95400000D02*
X155400000Y-95100000D01*
X155300000Y-97000000D02*
X155100000Y-96700000D01*
X155300000Y-103100000D02*
X155400000Y-103000000D01*
X155400000Y-95100000D02*
X155900000Y-94900000D01*
X155400000Y-103000000D02*
X155000000Y-102400000D01*
X155400000Y-104800000D02*
X155000000Y-104500000D01*
X155700000Y-105000000D02*
X155400000Y-104800000D01*
X155900000Y-94900000D02*
X156400000Y-95000000D01*
X156200000Y-105100000D02*
X155700000Y-105000000D01*
X156400000Y-95000000D02*
X156800000Y-95200000D01*
X156600000Y-105000000D02*
X156200000Y-105100000D01*
X156700000Y-92300000D02*
X152300000Y-92300000D01*
X156700000Y-104900000D02*
X156600000Y-105000000D01*
X163300000Y-104900000D02*
X163600000Y-105000000D01*
X163500000Y-95000000D02*
X163200000Y-95200000D01*
X163600000Y-105000000D02*
X164000000Y-105100000D01*
X164000000Y-94900000D02*
X163500000Y-95000000D01*
X164000000Y-105100000D02*
X164300000Y-105000000D01*
X164300000Y-105000000D02*
X164700000Y-104800000D01*
X164500000Y-95100000D02*
X164000000Y-94900000D01*
X164600000Y-103000000D02*
X164900000Y-102600000D01*
X164700000Y-97000000D02*
X164900000Y-96700000D01*
X164700000Y-104800000D02*
X164900000Y-104500000D01*
X164800000Y-95400000D02*
X164500000Y-95100000D01*
X164900000Y-96700000D02*
X165100000Y-96300000D01*
X164900000Y-97400000D02*
X164700000Y-97000000D01*
X164900000Y-102600000D02*
X165100000Y-102200000D01*
X164900000Y-103300000D02*
X164600000Y-103000000D01*
X164900000Y-104500000D02*
X165100000Y-104200000D01*
X165000000Y-95800000D02*
X164800000Y-95400000D01*
X165000000Y-103600000D02*
X164900000Y-103300000D01*
X165100000Y-96300000D02*
X165000000Y-95800000D01*
X165100000Y-102200000D02*
X165300000Y-101700000D01*
X165100000Y-103900000D02*
X165000000Y-103600000D01*
X165100000Y-104200000D02*
X165100000Y-103900000D01*
X165300000Y-98300000D02*
X164900000Y-97400000D01*
X165300000Y-101700000D02*
X165500000Y-100900000D01*
X165500000Y-99200000D02*
X165300000Y-98300000D01*
X165500000Y-100900000D02*
X165600000Y-100000000D01*
X165600000Y-100000000D02*
X165500000Y-99200000D01*
X167700000Y-92300000D02*
X163300000Y-92300000D01*
X167700000Y-107700000D02*
X163300000Y-107700000D01*
X167700000Y-107700000D02*
X167700000Y-92300000D01*
X157390512Y-97900000D02*
G75*
G02*
X156609488Y-97900000I-390512J0D01*
G01*
X156609488Y-97900000D02*
G75*
G02*
X157390512Y-97900000I390512J0D01*
G01*
%TD*%
M02*
