G04 #@! TF.GenerationSoftware,KiCad,Pcbnew,9.0.6+1*
G04 #@! TF.CreationDate,2025-12-02T12:13:26+00:00*
G04 #@! TF.ProjectId,pors485,706f7273-3438-4352-9e6b-696361645f70,0.1*
G04 #@! TF.SameCoordinates,Original*
G04 #@! TF.FileFunction,Legend,Bot*
G04 #@! TF.FilePolarity,Positive*
%FSLAX46Y46*%
G04 Gerber Fmt 4.6, Leading zero omitted, Abs format (unit mm)*
G04 Created by KiCad (PCBNEW 9.0.6+1) date 2025-12-02 12:13:26*
%MOMM*%
%LPD*%
G01*
G04 APERTURE LIST*
%ADD10C,5.500000*%
%ADD11R,3.000000X1.500000*%
%ADD12O,3.000000X1.500000*%
%ADD13R,1.500000X3.000000*%
%ADD14O,1.500000X3.000000*%
%ADD15C,2.000000*%
G04 APERTURE END LIST*
%LPC*%
D10*
X171500000Y-55000000D03*
X171500000Y-105000000D03*
G36*
G01*
X93882501Y-76600000D02*
X96382499Y-76600000D01*
G75*
G02*
X96632500Y-76850001I0J-250001D01*
G01*
X96632500Y-77849999D01*
G75*
G02*
X96382499Y-78100000I-250001J0D01*
G01*
X93882501Y-78100000D01*
G75*
G02*
X93632500Y-77849999I0J250001D01*
G01*
X93632500Y-76850001D01*
G75*
G02*
X93882501Y-76600000I250001J0D01*
G01*
G37*
D11*
X90132500Y-77350000D03*
D12*
X95132500Y-82350000D03*
X90132500Y-82350000D03*
D10*
X88500000Y-105000000D03*
X88500000Y-55000000D03*
G36*
G01*
X155150000Y-80750001D02*
X155150000Y-83249999D01*
G75*
G02*
X154899999Y-83500000I-250001J0D01*
G01*
X153900001Y-83500000D01*
G75*
G02*
X153650000Y-83249999I0J250001D01*
G01*
X153650000Y-80750001D01*
G75*
G02*
X153900001Y-80500000I250001J0D01*
G01*
X154899999Y-80500000D01*
G75*
G02*
X155150000Y-80750001I0J-250001D01*
G01*
G37*
D13*
X154400000Y-77000000D03*
D14*
X149400000Y-82000000D03*
X149400000Y-77000000D03*
G36*
G01*
X109100000Y-79117499D02*
X109100000Y-76617501D01*
G75*
G02*
X109350001Y-76367500I250001J0D01*
G01*
X110349999Y-76367500D01*
G75*
G02*
X110600000Y-76617501I0J-250001D01*
G01*
X110600000Y-79117499D01*
G75*
G02*
X110349999Y-79367500I-250001J0D01*
G01*
X109350001Y-79367500D01*
G75*
G02*
X109100000Y-79117499I0J250001D01*
G01*
G37*
D13*
X109850000Y-82867500D03*
D14*
X114850000Y-77867500D03*
X114850000Y-82867500D03*
G36*
G01*
X166117499Y-83400000D02*
X163617501Y-83400000D01*
G75*
G02*
X163367500Y-83149999I0J250001D01*
G01*
X163367500Y-82150001D01*
G75*
G02*
X163617501Y-81900000I250001J0D01*
G01*
X166117499Y-81900000D01*
G75*
G02*
X166367500Y-82150001I0J-250001D01*
G01*
X166367500Y-83149999D01*
G75*
G02*
X166117499Y-83400000I-250001J0D01*
G01*
G37*
D11*
X169867500Y-82650000D03*
D12*
X164867500Y-77650000D03*
X169867500Y-77650000D03*
G36*
G01*
X136042500Y-78210000D02*
X136042500Y-76710000D01*
G75*
G02*
X136292500Y-76460000I250000J0D01*
G01*
X137792500Y-76460000D01*
G75*
G02*
X138042500Y-76710000I0J-250000D01*
G01*
X138042500Y-78210000D01*
G75*
G02*
X137792500Y-78460000I-250000J0D01*
G01*
X136292500Y-78460000D01*
G75*
G02*
X136042500Y-78210000I0J250000D01*
G01*
G37*
D15*
X137042500Y-80000000D03*
X137042500Y-82540000D03*
%LPD*%
M02*
