G04 #@! TF.GenerationSoftware,KiCad,Pcbnew,9.0.6+1*
G04 #@! TF.CreationDate,2025-12-01T13:58:59+00:00*
G04 #@! TF.ProjectId,pors485,706f7273-3438-4352-9e6b-696361645f70,0.1*
G04 #@! TF.SameCoordinates,Original*
G04 #@! TF.FileFunction,Soldermask,Top*
G04 #@! TF.FilePolarity,Negative*
%FSLAX46Y46*%
G04 Gerber Fmt 4.6, Leading zero omitted, Abs format (unit mm)*
G04 Created by KiCad (PCBNEW 9.0.6+1) date 2025-12-01 13:58:59*
%MOMM*%
%LPD*%
G01*
G04 APERTURE LIST*
%ADD10C,5.500000*%
%ADD11R,6.000000X3.500000*%
%ADD12R,3.000000X1.500000*%
%ADD13O,3.000000X1.500000*%
%ADD14R,1.500000X3.000000*%
%ADD15O,1.500000X3.000000*%
%ADD16C,2.000000*%
G04 APERTURE END LIST*
D10*
X171500000Y-55000000D03*
D11*
X100000000Y-94000000D03*
X100000000Y-106000000D03*
X140000000Y-54000000D03*
X140000000Y-66000000D03*
G36*
G01*
X122450000Y-83650000D02*
X122450000Y-82350000D01*
G75*
G02*
X122700000Y-82100000I250000J0D01*
G01*
X123350000Y-82100000D01*
G75*
G02*
X123600000Y-82350000I0J-250000D01*
G01*
X123600000Y-83650000D01*
G75*
G02*
X123350000Y-83900000I-250000J0D01*
G01*
X122700000Y-83900000D01*
G75*
G02*
X122450000Y-83650000I0J250000D01*
G01*
G37*
G36*
G01*
X125400000Y-83650000D02*
X125400000Y-82350000D01*
G75*
G02*
X125650000Y-82100000I250000J0D01*
G01*
X126300000Y-82100000D01*
G75*
G02*
X126550000Y-82350000I0J-250000D01*
G01*
X126550000Y-83650000D01*
G75*
G02*
X126300000Y-83900000I-250000J0D01*
G01*
X125650000Y-83900000D01*
G75*
G02*
X125400000Y-83650000I0J250000D01*
G01*
G37*
X100000000Y-54000000D03*
X100000000Y-66000000D03*
G36*
G01*
X142975000Y-84950000D02*
X142025000Y-84950000D01*
G75*
G02*
X141775000Y-84700000I0J250000D01*
G01*
X141775000Y-84200000D01*
G75*
G02*
X142025000Y-83950000I250000J0D01*
G01*
X142975000Y-83950000D01*
G75*
G02*
X143225000Y-84200000I0J-250000D01*
G01*
X143225000Y-84700000D01*
G75*
G02*
X142975000Y-84950000I-250000J0D01*
G01*
G37*
G36*
G01*
X142975000Y-83050000D02*
X142025000Y-83050000D01*
G75*
G02*
X141775000Y-82800000I0J250000D01*
G01*
X141775000Y-82300000D01*
G75*
G02*
X142025000Y-82050000I250000J0D01*
G01*
X142975000Y-82050000D01*
G75*
G02*
X143225000Y-82300000I0J-250000D01*
G01*
X143225000Y-82800000D01*
G75*
G02*
X142975000Y-83050000I-250000J0D01*
G01*
G37*
D10*
X171500000Y-105000000D03*
D11*
X120000000Y-54000000D03*
X120000000Y-66000000D03*
G36*
G01*
X101875000Y-77975000D02*
X103125000Y-77975000D01*
G75*
G02*
X103375000Y-78225000I0J-250000D01*
G01*
X103375000Y-78850000D01*
G75*
G02*
X103125000Y-79100000I-250000J0D01*
G01*
X101875000Y-79100000D01*
G75*
G02*
X101625000Y-78850000I0J250000D01*
G01*
X101625000Y-78225000D01*
G75*
G02*
X101875000Y-77975000I250000J0D01*
G01*
G37*
G36*
G01*
X101875000Y-80900000D02*
X103125000Y-80900000D01*
G75*
G02*
X103375000Y-81150000I0J-250000D01*
G01*
X103375000Y-81775000D01*
G75*
G02*
X103125000Y-82025000I-250000J0D01*
G01*
X101875000Y-82025000D01*
G75*
G02*
X101625000Y-81775000I0J250000D01*
G01*
X101625000Y-81150000D01*
G75*
G02*
X101875000Y-80900000I250000J0D01*
G01*
G37*
G36*
G01*
X101550000Y-84475000D02*
X101550000Y-83525000D01*
G75*
G02*
X101800000Y-83275000I250000J0D01*
G01*
X102300000Y-83275000D01*
G75*
G02*
X102550000Y-83525000I0J-250000D01*
G01*
X102550000Y-84475000D01*
G75*
G02*
X102300000Y-84725000I-250000J0D01*
G01*
X101800000Y-84725000D01*
G75*
G02*
X101550000Y-84475000I0J250000D01*
G01*
G37*
G36*
G01*
X103450000Y-84475000D02*
X103450000Y-83525000D01*
G75*
G02*
X103700000Y-83275000I250000J0D01*
G01*
X104200000Y-83275000D01*
G75*
G02*
X104450000Y-83525000I0J-250000D01*
G01*
X104450000Y-84475000D01*
G75*
G02*
X104200000Y-84725000I-250000J0D01*
G01*
X103700000Y-84725000D01*
G75*
G02*
X103450000Y-84475000I0J250000D01*
G01*
G37*
G36*
G01*
X93882501Y-76600000D02*
X96382499Y-76600000D01*
G75*
G02*
X96632500Y-76850001I0J-250001D01*
G01*
X96632500Y-77849999D01*
G75*
G02*
X96382499Y-78100000I-250001J0D01*
G01*
X93882501Y-78100000D01*
G75*
G02*
X93632500Y-77849999I0J250001D01*
G01*
X93632500Y-76850001D01*
G75*
G02*
X93882501Y-76600000I250001J0D01*
G01*
G37*
D12*
X90132500Y-77350000D03*
D13*
X95132500Y-82350000D03*
X90132500Y-82350000D03*
G36*
G01*
X140350000Y-76700000D02*
X141650000Y-76700000D01*
G75*
G02*
X141900000Y-76950000I0J-250000D01*
G01*
X141900000Y-77600000D01*
G75*
G02*
X141650000Y-77850000I-250000J0D01*
G01*
X140350000Y-77850000D01*
G75*
G02*
X140100000Y-77600000I0J250000D01*
G01*
X140100000Y-76950000D01*
G75*
G02*
X140350000Y-76700000I250000J0D01*
G01*
G37*
G36*
G01*
X140350000Y-79650000D02*
X141650000Y-79650000D01*
G75*
G02*
X141900000Y-79900000I0J-250000D01*
G01*
X141900000Y-80550000D01*
G75*
G02*
X141650000Y-80800000I-250000J0D01*
G01*
X140350000Y-80800000D01*
G75*
G02*
X140100000Y-80550000I0J250000D01*
G01*
X140100000Y-79900000D01*
G75*
G02*
X140350000Y-79650000I250000J0D01*
G01*
G37*
D11*
X120000000Y-94000000D03*
X120000000Y-106000000D03*
D10*
X88500000Y-105000000D03*
G36*
G01*
X122000000Y-78500000D02*
X122000000Y-76500000D01*
G75*
G02*
X122250000Y-76250000I250000J0D01*
G01*
X123650000Y-76250000D01*
G75*
G02*
X123900000Y-76500000I0J-250000D01*
G01*
X123900000Y-78500000D01*
G75*
G02*
X123650000Y-78750000I-250000J0D01*
G01*
X122250000Y-78750000D01*
G75*
G02*
X122000000Y-78500000I0J250000D01*
G01*
G37*
G36*
G01*
X126100000Y-78500000D02*
X126100000Y-76500000D01*
G75*
G02*
X126350000Y-76250000I250000J0D01*
G01*
X127750000Y-76250000D01*
G75*
G02*
X128000000Y-76500000I0J-250000D01*
G01*
X128000000Y-78500000D01*
G75*
G02*
X127750000Y-78750000I-250000J0D01*
G01*
X126350000Y-78750000D01*
G75*
G02*
X126100000Y-78500000I0J250000D01*
G01*
G37*
X88500000Y-55000000D03*
G36*
G01*
X155150000Y-80750001D02*
X155150000Y-83249999D01*
G75*
G02*
X154899999Y-83500000I-250001J0D01*
G01*
X153900001Y-83500000D01*
G75*
G02*
X153650000Y-83249999I0J250001D01*
G01*
X153650000Y-80750001D01*
G75*
G02*
X153900001Y-80500000I250001J0D01*
G01*
X154899999Y-80500000D01*
G75*
G02*
X155150000Y-80750001I0J-250001D01*
G01*
G37*
D14*
X154400000Y-77000000D03*
D15*
X149400000Y-82000000D03*
X149400000Y-77000000D03*
G36*
G01*
X109100000Y-79117499D02*
X109100000Y-76617501D01*
G75*
G02*
X109350001Y-76367500I250001J0D01*
G01*
X110349999Y-76367500D01*
G75*
G02*
X110600000Y-76617501I0J-250001D01*
G01*
X110600000Y-79117499D01*
G75*
G02*
X110349999Y-79367500I-250001J0D01*
G01*
X109350001Y-79367500D01*
G75*
G02*
X109100000Y-79117499I0J250001D01*
G01*
G37*
D14*
X109850000Y-82867500D03*
D15*
X114850000Y-77867500D03*
X114850000Y-82867500D03*
D11*
X140000000Y-94000000D03*
X140000000Y-106000000D03*
G36*
G01*
X166117499Y-83400000D02*
X163617501Y-83400000D01*
G75*
G02*
X163367500Y-83149999I0J250001D01*
G01*
X163367500Y-82150001D01*
G75*
G02*
X163617501Y-81900000I250001J0D01*
G01*
X166117499Y-81900000D01*
G75*
G02*
X166367500Y-82150001I0J-250001D01*
G01*
X166367500Y-83149999D01*
G75*
G02*
X166117499Y-83400000I-250001J0D01*
G01*
G37*
D12*
X169867500Y-82650000D03*
D13*
X164867500Y-77650000D03*
X169867500Y-77650000D03*
G36*
G01*
X101550000Y-76475000D02*
X101550000Y-75525000D01*
G75*
G02*
X101800000Y-75275000I250000J0D01*
G01*
X102300000Y-75275000D01*
G75*
G02*
X102550000Y-75525000I0J-250000D01*
G01*
X102550000Y-76475000D01*
G75*
G02*
X102300000Y-76725000I-250000J0D01*
G01*
X101800000Y-76725000D01*
G75*
G02*
X101550000Y-76475000I0J250000D01*
G01*
G37*
G36*
G01*
X103450000Y-76475000D02*
X103450000Y-75525000D01*
G75*
G02*
X103700000Y-75275000I250000J0D01*
G01*
X104200000Y-75275000D01*
G75*
G02*
X104450000Y-75525000I0J-250000D01*
G01*
X104450000Y-76475000D01*
G75*
G02*
X104200000Y-76725000I-250000J0D01*
G01*
X103700000Y-76725000D01*
G75*
G02*
X103450000Y-76475000I0J250000D01*
G01*
G37*
G36*
G01*
X136042500Y-78210000D02*
X136042500Y-76710000D01*
G75*
G02*
X136292500Y-76460000I250000J0D01*
G01*
X137792500Y-76460000D01*
G75*
G02*
X138042500Y-76710000I0J-250000D01*
G01*
X138042500Y-78210000D01*
G75*
G02*
X137792500Y-78460000I-250000J0D01*
G01*
X136292500Y-78460000D01*
G75*
G02*
X136042500Y-78210000I0J250000D01*
G01*
G37*
D16*
X137042500Y-80000000D03*
X137042500Y-82540000D03*
D11*
X160000000Y-54000000D03*
X160000000Y-66000000D03*
X160000000Y-94000000D03*
X160000000Y-106000000D03*
M02*
